<?xml version="1.0" encoding="UTF-8" standalone="no"?>
<!DOCTYPE svg PUBLIC "-//W3C//DTD SVG 1.0//EN"
 "http://www.w3.org/TR/2001/REC-SVG-20010904/DTD/svg10.dtd" [
 <!ATTLIST svg xmlns:xlink CDATA #FIXED "http://www.w3.org/1999/xlink">
]>
<!-- Generated by Graphviz version 2.20.2 (Tue Mar &#160;2 19:03:41 UTC 2010)
     For user: (bh00038) Brian Holt -->
<!-- Title: Tree Pages: 1 -->
<svg width="2086pt" height="524pt"
 viewBox="0.00 0.00 2086.00 524.00" xmlns="http://www.w3.org/2000/svg" xmlns:xlink="http://www.w3.org/1999/xlink">
<g id="graph0" class="graph" transform="scale(1 1) rotate(0) translate(4 520)">
<title>Tree</title>
<polygon style="fill:white;stroke:white;" points="-4,4 -4,-520 2082,-520 2082,4 -4,4"/>
<!-- 14 -->
<g id="node1" class="node"><title>14</title>
<ellipse style="fill:none;stroke:black;" cx="1038" cy="-462" rx="130.108" ry="53.7401"/>
<text text-anchor="middle" x="1038" y="-483.4" style="font-family:Times New Roman;font-size:14.00;">x[12] &lt; 9.605 </text>
<text text-anchor="middle" x="1038" y="-466.4" style="font-family:Times New Roman;font-size:14.00;"> error = 42716.295415 </text>
<text text-anchor="middle" x="1038" y="-449.4" style="font-family:Times New Roman;font-size:14.00;"> samples = 506 </text>
<text text-anchor="middle" x="1038" y="-432.4" style="font-family:Times New Roman;font-size:14.00;"> v = 22.5328063241</text>
</g>
<!-- 6 -->
<g id="node2" class="node"><title>6</title>
<ellipse style="fill:none;stroke:black;" cx="827" cy="-318" rx="104.151" ry="53.7401"/>
<text text-anchor="middle" x="827" y="-339.4" style="font-family:Times New Roman;font-size:14.00;">x[5] &lt; 6.941 </text>
<text text-anchor="middle" x="827" y="-322.4" style="font-family:Times New Roman;font-size:14.00;"> error = 16541.78 </text>
<text text-anchor="middle" x="827" y="-305.4" style="font-family:Times New Roman;font-size:14.00;"> samples = 206 </text>
<text text-anchor="middle" x="827" y="-288.4" style="font-family:Times New Roman;font-size:14.00;"> v = 29.9</text>
</g>
<!-- 14&#45;&gt;6 -->
<g id="edge2" class="edge"><title>14&#45;&gt;6</title>
<path style="fill:none;stroke:black;" d="M971,-416C948,-400 922,-382 898,-367"/>
<polygon style="fill:black;stroke:black;" points="900.1,-364.2 890,-361 895.9,-369.8 900.1,-364.2"/>
</g>
<!-- 13 -->
<g id="node3" class="node"><title>13</title>
<ellipse style="fill:none;stroke:black;" cx="1250" cy="-318" rx="111.016" ry="53.7401"/>
<text text-anchor="middle" x="1250" y="-339.4" style="font-family:Times New Roman;font-size:14.00;">x[12] &lt; 16.215 </text>
<text text-anchor="middle" x="1250" y="-322.4" style="font-family:Times New Roman;font-size:14.00;"> error = 7316.2972 </text>
<text text-anchor="middle" x="1250" y="-305.4" style="font-family:Times New Roman;font-size:14.00;"> samples = 300 </text>
<text text-anchor="middle" x="1250" y="-288.4" style="font-family:Times New Roman;font-size:14.00;"> v = 17.474</text>
</g>
<!-- 14&#45;&gt;13 -->
<g id="edge4" class="edge"><title>14&#45;&gt;13</title>
<path style="fill:none;stroke:black;" d="M1105,-416C1128,-401 1154,-383 1177,-368"/>
<polygon style="fill:black;stroke:black;" points="1179.1,-370.8 1185,-362 1174.9,-365.2 1179.1,-370.8"/>
</g>
<!-- 2 -->
<g id="node6" class="node"><title>2</title>
<ellipse style="fill:none;stroke:black;" cx="335" cy="-174" rx="135.972" ry="53.7401"/>
<text text-anchor="middle" x="335" y="-195.4" style="font-family:Times New Roman;font-size:14.00;">x[7] &lt; 3.0037 </text>
<text text-anchor="middle" x="335" y="-178.4" style="font-family:Times New Roman;font-size:14.00;"> error = 4473.62277372 </text>
<text text-anchor="middle" x="335" y="-161.4" style="font-family:Times New Roman;font-size:14.00;"> samples = 137 </text>
<text text-anchor="middle" x="335" y="-144.4" style="font-family:Times New Roman;font-size:14.00;"> v = 25.4795620438</text>
</g>
<!-- 6&#45;&gt;2 -->
<g id="edge6" class="edge"><title>6&#45;&gt;2</title>
<path style="fill:none;stroke:black;" d="M736,-292C657,-269 541,-235 454,-209"/>
<polygon style="fill:black;stroke:black;" points="454.584,-205.521 444,-206 452.573,-212.226 454.584,-205.521"/>
</g>
<!-- 5 -->
<g id="node7" class="node"><title>5</title>
<ellipse style="fill:none;stroke:black;" cx="827" cy="-174" rx="135.972" ry="53.7401"/>
<text text-anchor="middle" x="827" y="-195.4" style="font-family:Times New Roman;font-size:14.00;">x[5] &lt; 7.437 </text>
<text text-anchor="middle" x="827" y="-178.4" style="font-family:Times New Roman;font-size:14.00;"> error = 4075.90289855 </text>
<text text-anchor="middle" x="827" y="-161.4" style="font-family:Times New Roman;font-size:14.00;"> samples = 69 </text>
<text text-anchor="middle" x="827" y="-144.4" style="font-family:Times New Roman;font-size:14.00;"> v = 38.6768115942</text>
</g>
<!-- 6&#45;&gt;5 -->
<g id="edge8" class="edge"><title>6&#45;&gt;5</title>
<path style="fill:none;stroke:black;" d="M827,-264C827,-255 827,-247 827,-238"/>
<polygon style="fill:black;stroke:black;" points="830.5,-238 827,-228 823.5,-238 830.5,-238"/>
</g>
<!-- 9 -->
<g id="node18" class="node"><title>9</title>
<ellipse style="fill:none;stroke:black;" cx="1250" cy="-174" rx="135.972" ry="53.7401"/>
<text text-anchor="middle" x="1250" y="-195.4" style="font-family:Times New Roman;font-size:14.00;">x[10] &lt; 18.75 </text>
<text text-anchor="middle" x="1250" y="-178.4" style="font-family:Times New Roman;font-size:14.00;"> error = 1816.72918239 </text>
<text text-anchor="middle" x="1250" y="-161.4" style="font-family:Times New Roman;font-size:14.00;"> samples = 159 </text>
<text text-anchor="middle" x="1250" y="-144.4" style="font-family:Times New Roman;font-size:14.00;"> v = 20.3761006289</text>
</g>
<!-- 13&#45;&gt;9 -->
<g id="edge18" class="edge"><title>13&#45;&gt;9</title>
<path style="fill:none;stroke:black;" d="M1250,-264C1250,-255 1250,-247 1250,-238"/>
<polygon style="fill:black;stroke:black;" points="1253.5,-238 1250,-228 1246.5,-238 1253.5,-238"/>
</g>
<!-- 12 -->
<g id="node19" class="node"><title>12</title>
<ellipse style="fill:none;stroke:black;" cx="1749" cy="-174" rx="135.972" ry="53.7401"/>
<text text-anchor="middle" x="1749" y="-195.4" style="font-family:Times New Roman;font-size:14.00;">x[4] &lt; 0.657 </text>
<text text-anchor="middle" x="1749" y="-178.4" style="font-family:Times New Roman;font-size:14.00;"> error = 2650.35971631 </text>
<text text-anchor="middle" x="1749" y="-161.4" style="font-family:Times New Roman;font-size:14.00;"> samples = 141 </text>
<text text-anchor="middle" x="1749" y="-144.4" style="font-family:Times New Roman;font-size:14.00;"> v = 14.2014184397</text>
</g>
<!-- 13&#45;&gt;12 -->
<g id="edge20" class="edge"><title>13&#45;&gt;12</title>
<path style="fill:none;stroke:black;" d="M1345,-290C1426,-267 1542,-234 1629,-209"/>
<polygon style="fill:black;stroke:black;" points="1630.43,-212.226 1639,-206 1628.42,-205.521 1630.43,-212.226"/>
</g>
<!-- 0 -->
<g id="node10" class="node"><title>0</title>
<ellipse style="fill:none;stroke:black;" cx="95" cy="-42" rx="94.9596" ry="41.7193"/>
<text text-anchor="middle" x="95" y="-54.9" style="font-family:Times New Roman;font-size:14.00;">error = 2359.18 </text>
<text text-anchor="middle" x="95" y="-37.9" style="font-family:Times New Roman;font-size:14.00;"> samples = 20 </text>
<text text-anchor="middle" x="95" y="-20.9" style="font-family:Times New Roman;font-size:14.00;"> v = 30.5</text>
</g>
<!-- 2&#45;&gt;0 -->
<g id="edge10" class="edge"><title>2&#45;&gt;0</title>
<path style="fill:none;stroke:black;" d="M256,-130C226,-114 192,-95 163,-80"/>
<polygon style="fill:black;stroke:black;" points="164.441,-76.7969 154,-75 161.042,-82.916 164.441,-76.7969"/>
</g>
<!-- 1 -->
<g id="node11" class="node"><title>1</title>
<ellipse style="fill:none;stroke:black;" cx="335" cy="-42" rx="126.78" ry="41.7193"/>
<text text-anchor="middle" x="335" y="-54.9" style="font-family:Times New Roman;font-size:14.00;">error = 1524.1765812 </text>
<text text-anchor="middle" x="335" y="-37.9" style="font-family:Times New Roman;font-size:14.00;"> samples = 117 </text>
<text text-anchor="middle" x="335" y="-20.9" style="font-family:Times New Roman;font-size:14.00;"> v = 24.6213675214</text>
</g>
<!-- 2&#45;&gt;1 -->
<g id="edge12" class="edge"><title>2&#45;&gt;1</title>
<path style="fill:none;stroke:black;" d="M335,-120C335,-112 335,-103 335,-94"/>
<polygon style="fill:black;stroke:black;" points="338.5,-94 335,-84 331.5,-94 338.5,-94"/>
</g>
<!-- 3 -->
<g id="node14" class="node"><title>3</title>
<ellipse style="fill:none;stroke:black;" cx="613" cy="-42" rx="133.143" ry="41.7193"/>
<text text-anchor="middle" x="613" y="-54.9" style="font-family:Times New Roman;font-size:14.00;">error = 789.512307692 </text>
<text text-anchor="middle" x="613" y="-37.9" style="font-family:Times New Roman;font-size:14.00;"> samples = 39 </text>
<text text-anchor="middle" x="613" y="-20.9" style="font-family:Times New Roman;font-size:14.00;"> v = 33.7384615385</text>
</g>
<!-- 5&#45;&gt;3 -->
<g id="edge14" class="edge"><title>5&#45;&gt;3</title>
<path style="fill:none;stroke:black;" d="M754,-129C731,-115 705,-99 682,-85"/>
<polygon style="fill:black;stroke:black;" points="683.262,-81.6349 673,-79 679.379,-87.4592 683.262,-81.6349"/>
</g>
<!-- 4 -->
<g id="node15" class="node"><title>4</title>
<ellipse style="fill:none;stroke:black;" cx="897" cy="-42" rx="133.143" ry="41.7193"/>
<text text-anchor="middle" x="897" y="-54.9" style="font-family:Times New Roman;font-size:14.00;">error = 1098.84966667 </text>
<text text-anchor="middle" x="897" y="-37.9" style="font-family:Times New Roman;font-size:14.00;"> samples = 30 </text>
<text text-anchor="middle" x="897" y="-20.9" style="font-family:Times New Roman;font-size:14.00;"> v = 45.0966666667</text>
</g>
<!-- 5&#45;&gt;4 -->
<g id="edge16" class="edge"><title>5&#45;&gt;4</title>
<path style="fill:none;stroke:black;" d="M855,-121C860,-111 865,-102 870,-92"/>
<polygon style="fill:black;stroke:black;" points="873.203,-93.4414 875,-83 867.084,-90.0418 873.203,-93.4414"/>
</g>
<!-- 7 -->
<g id="node22" class="node"><title>7</title>
<ellipse style="fill:none;stroke:black;" cx="1181" cy="-42" rx="133.143" ry="41.7193"/>
<text text-anchor="middle" x="1181" y="-54.9" style="font-family:Times New Roman;font-size:14.00;">error = 823.544383562 </text>
<text text-anchor="middle" x="1181" y="-37.9" style="font-family:Times New Roman;font-size:14.00;"> samples = 73 </text>
<text text-anchor="middle" x="1181" y="-20.9" style="font-family:Times New Roman;font-size:14.00;"> v = 21.4657534247</text>
</g>
<!-- 9&#45;&gt;7 -->
<g id="edge22" class="edge"><title>9&#45;&gt;7</title>
<path style="fill:none;stroke:black;" d="M1223,-121C1218,-111 1212,-101 1207,-92"/>
<polygon style="fill:black;stroke:black;" points="1209.92,-90.0418 1202,-83 1203.8,-93.4414 1209.92,-90.0418"/>
</g>
<!-- 8 -->
<g id="node23" class="node"><title>8</title>
<ellipse style="fill:none;stroke:black;" cx="1465" cy="-42" rx="133.143" ry="41.7193"/>
<text text-anchor="middle" x="1465" y="-54.9" style="font-family:Times New Roman;font-size:14.00;">error = 832.934883721 </text>
<text text-anchor="middle" x="1465" y="-37.9" style="font-family:Times New Roman;font-size:14.00;"> samples = 86 </text>
<text text-anchor="middle" x="1465" y="-20.9" style="font-family:Times New Roman;font-size:14.00;"> v = 19.4511627907</text>
</g>
<!-- 9&#45;&gt;8 -->
<g id="edge24" class="edge"><title>9&#45;&gt;8</title>
<path style="fill:none;stroke:black;" d="M1323,-129C1347,-115 1373,-99 1396,-85"/>
<polygon style="fill:black;stroke:black;" points="1398.62,-87.4592 1405,-79 1394.74,-81.6349 1398.62,-87.4592"/>
</g>
<!-- 10 -->
<g id="node26" class="node"><title>10</title>
<ellipse style="fill:none;stroke:black;" cx="1749" cy="-42" rx="133.143" ry="41.7193"/>
<text text-anchor="middle" x="1749" y="-54.9" style="font-family:Times New Roman;font-size:14.00;">error = 923.980615385 </text>
<text text-anchor="middle" x="1749" y="-37.9" style="font-family:Times New Roman;font-size:14.00;"> samples = 65 </text>
<text text-anchor="middle" x="1749" y="-20.9" style="font-family:Times New Roman;font-size:14.00;"> v = 16.7753846154</text>
</g>
<!-- 12&#45;&gt;10 -->
<g id="edge26" class="edge"><title>12&#45;&gt;10</title>
<path style="fill:none;stroke:black;" d="M1749,-120C1749,-112 1749,-103 1749,-94"/>
<polygon style="fill:black;stroke:black;" points="1752.5,-94 1749,-84 1745.5,-94 1752.5,-94"/>
</g>
<!-- 11 -->
<g id="node27" class="node"><title>11</title>
<ellipse style="fill:none;stroke:black;" cx="1989" cy="-42" rx="89.0955" ry="41.7193"/>
<text text-anchor="middle" x="1989" y="-54.9" style="font-family:Times New Roman;font-size:14.00;">error = 927.42 </text>
<text text-anchor="middle" x="1989" y="-37.9" style="font-family:Times New Roman;font-size:14.00;"> samples = 76 </text>
<text text-anchor="middle" x="1989" y="-20.9" style="font-family:Times New Roman;font-size:14.00;"> v = 12.0</text>
</g>
<!-- 12&#45;&gt;11 -->
<g id="edge28" class="edge"><title>12&#45;&gt;11</title>
<path style="fill:none;stroke:black;" d="M1828,-130C1859,-114 1893,-95 1922,-79"/>
<polygon style="fill:black;stroke:black;" points="1923.96,-81.916 1931,-74 1920.56,-75.7969 1923.96,-81.916"/>
</g>
</g>
</svg>
