<?xml version="1.0" encoding="UTF-8" standalone="no"?>
<!DOCTYPE svg PUBLIC "-//W3C//DTD SVG 1.0//EN"
 "http://www.w3.org/TR/2001/REC-SVG-20010904/DTD/svg10.dtd" [
 <!ATTLIST svg xmlns:xlink CDATA #FIXED "http://www.w3.org/1999/xlink">
]>
<!-- Generated by Graphviz version 2.20.2 (Tue Mar &#160;2 19:03:41 UTC 2010)
     For user: (bh00038) Brian Holt -->
<!-- Title: Tree Pages: 1 -->
<svg width="600pt" height="640pt"
 viewBox="0.00 0.00 1515.00 812.00" xmlns="http://www.w3.org/2000/svg" xmlns:xlink="http://www.w3.org/1999/xlink">
<g id="graph0" class="graph" transform="scale(1 1) rotate(0) translate(4 808)">
<title>Tree</title>
<polygon style="fill:white;stroke:white;" points="-4,4 -4,-808 1511,-808 1511,4 -4,4"/>
<!-- 16 -->
<g id="node1" class="node"><title>16</title>
<ellipse style="fill:none;stroke:black;" cx="773" cy="-750" rx="191.833" ry="53.7401"/>
<text text-anchor="middle" x="773" y="-771.4" style="font-family:Times New Roman;font-size:14.00;">petal length (cm) &lt; 2.45000004768 </text>
<text text-anchor="middle" x="773" y="-754.4" style="font-family:Times New Roman;font-size:14.00;"> error = 0.666666686535 </text>
<text text-anchor="middle" x="773" y="-737.4" style="font-family:Times New Roman;font-size:14.00;"> samples = 150 </text>
<text text-anchor="middle" x="773" y="-720.4" style="font-family:Times New Roman;font-size:14.00;"> v = [ 50. &#160;50. &#160;50.]</text>
</g>
<!-- 0 -->
<g id="node2" class="node"><title>0</title>
<ellipse style="fill:none;stroke:black;" cx="649" cy="-606" rx="99.201" ry="41.7193"/>
<text text-anchor="middle" x="649" y="-618.9" style="font-family:Times New Roman;font-size:14.00;">error = 0.0 </text>
<text text-anchor="middle" x="649" y="-601.9" style="font-family:Times New Roman;font-size:14.00;"> samples = 50 </text>
<text text-anchor="middle" x="649" y="-584.9" style="font-family:Times New Roman;font-size:14.00;"> v = [ 50. &#160;&#160;0. &#160;&#160;0.]</text>
</g>
<!-- 16&#45;&gt;0 -->
<g id="edge2" class="edge"><title>16&#45;&gt;0</title>
<path style="fill:none;stroke:black;" d="M728,-698C715,-683 702,-667 690,-653"/>
<polygon style="fill:black;stroke:black;" points="692.219,-650.221 683,-645 686.951,-654.831 692.219,-650.221"/>
</g>
<!-- 15 -->
<g id="node3" class="node"><title>15</title>
<ellipse style="fill:none;stroke:black;" cx="897" cy="-606" rx="131.022" ry="53.7401"/>
<text text-anchor="middle" x="897" y="-627.4" style="font-family:Times New Roman;font-size:14.00;">petal width (cm) &lt; 1.75 </text>
<text text-anchor="middle" x="897" y="-610.4" style="font-family:Times New Roman;font-size:14.00;"> error = 0.5 </text>
<text text-anchor="middle" x="897" y="-593.4" style="font-family:Times New Roman;font-size:14.00;"> samples = 100 </text>
<text text-anchor="middle" x="897" y="-576.4" style="font-family:Times New Roman;font-size:14.00;"> v = [ &#160;0. &#160;50. &#160;50.]</text>
</g>
<!-- 16&#45;&gt;15 -->
<g id="edge4" class="edge"><title>16&#45;&gt;15</title>
<path style="fill:none;stroke:black;" d="M818,-698C828,-687 838,-675 847,-664"/>
<polygon style="fill:black;stroke:black;" points="849.404,-666.546 854,-657 844.454,-661.596 849.404,-666.546"/>
</g>
<!-- 9 -->
<g id="node6" class="node"><title>9</title>
<ellipse style="fill:none;stroke:black;" cx="696" cy="-462" rx="191.833" ry="53.7401"/>
<text text-anchor="middle" x="696" y="-483.4" style="font-family:Times New Roman;font-size:14.00;">petal length (cm) &lt; 4.94999980927 </text>
<text text-anchor="middle" x="696" y="-466.4" style="font-family:Times New Roman;font-size:14.00;"> error = 0.168038412929 </text>
<text text-anchor="middle" x="696" y="-449.4" style="font-family:Times New Roman;font-size:14.00;"> samples = 54 </text>
<text text-anchor="middle" x="696" y="-432.4" style="font-family:Times New Roman;font-size:14.00;"> v = [ &#160;0. &#160;49. &#160;&#160;5.]</text>
</g>
<!-- 15&#45;&gt;9 -->
<g id="edge6" class="edge"><title>15&#45;&gt;9</title>
<path style="fill:none;stroke:black;" d="M832,-559C814,-546 793,-531 774,-518"/>
<polygon style="fill:black;stroke:black;" points="776.1,-515.2 766,-512 771.9,-520.8 776.1,-515.2"/>
</g>
<!-- 14 -->
<g id="node7" class="node"><title>14</title>
<ellipse style="fill:none;stroke:black;" cx="1098" cy="-462" rx="191.833" ry="53.7401"/>
<text text-anchor="middle" x="1098" y="-483.4" style="font-family:Times New Roman;font-size:14.00;">petal length (cm) &lt; 4.85000038147 </text>
<text text-anchor="middle" x="1098" y="-466.4" style="font-family:Times New Roman;font-size:14.00;"> error = 0.0425330810249 </text>
<text text-anchor="middle" x="1098" y="-449.4" style="font-family:Times New Roman;font-size:14.00;"> samples = 46 </text>
<text text-anchor="middle" x="1098" y="-432.4" style="font-family:Times New Roman;font-size:14.00;"> v = [ &#160;0. &#160;&#160;1. &#160;45.]</text>
</g>
<!-- 15&#45;&gt;14 -->
<g id="edge8" class="edge"><title>15&#45;&gt;14</title>
<path style="fill:none;stroke:black;" d="M962,-559C980,-546 1001,-531 1020,-518"/>
<polygon style="fill:black;stroke:black;" points="1022.1,-520.8 1028,-512 1017.9,-515.2 1022.1,-520.8"/>
</g>
<!-- 3 -->
<g id="node10" class="node"><title>3</title>
<ellipse style="fill:none;stroke:black;" cx="301" cy="-318" rx="188.798" ry="53.7401"/>
<text text-anchor="middle" x="301" y="-339.4" style="font-family:Times New Roman;font-size:14.00;">petal width (cm) &lt; 1.65000009537 </text>
<text text-anchor="middle" x="301" y="-322.4" style="font-family:Times New Roman;font-size:14.00;"> error = 0.040798611939 </text>
<text text-anchor="middle" x="301" y="-305.4" style="font-family:Times New Roman;font-size:14.00;"> samples = 48 </text>
<text text-anchor="middle" x="301" y="-288.4" style="font-family:Times New Roman;font-size:14.00;"> v = [ &#160;0. &#160;47. &#160;&#160;1.]</text>
</g>
<!-- 9&#45;&gt;3 -->
<g id="edge10" class="edge"><title>9&#45;&gt;3</title>
<path style="fill:none;stroke:black;" d="M579,-419C531,-402 475,-382 427,-364"/>
<polygon style="fill:black;stroke:black;" points="427.585,-360.464 417,-360 424.985,-366.964 427.585,-360.464"/>
</g>
<!-- 8 -->
<g id="node11" class="node"><title>8</title>
<ellipse style="fill:none;stroke:black;" cx="697" cy="-318" rx="188.798" ry="53.7401"/>
<text text-anchor="middle" x="697" y="-339.4" style="font-family:Times New Roman;font-size:14.00;">petal width (cm) &lt; 1.54999995232 </text>
<text text-anchor="middle" x="697" y="-322.4" style="font-family:Times New Roman;font-size:14.00;"> error = 0.444444447756 </text>
<text text-anchor="middle" x="697" y="-305.4" style="font-family:Times New Roman;font-size:14.00;"> samples = 6 </text>
<text text-anchor="middle" x="697" y="-288.4" style="font-family:Times New Roman;font-size:14.00;"> v = [ 0. &#160;2. &#160;4.]</text>
</g>
<!-- 9&#45;&gt;8 -->
<g id="edge12" class="edge"><title>9&#45;&gt;8</title>
<path style="fill:none;stroke:black;" d="M696,-408C696,-399 696,-391 696,-382"/>
<polygon style="fill:black;stroke:black;" points="699.488,-382.299 697,-372 692.522,-381.602 699.488,-382.299"/>
</g>
<!-- 12 -->
<g id="node26" class="node"><title>12</title>
<ellipse style="fill:none;stroke:black;" cx="1098" cy="-318" rx="193.04" ry="53.7401"/>
<text text-anchor="middle" x="1098" y="-339.4" style="font-family:Times New Roman;font-size:14.00;">sepal length (cm) &lt; 5.94999980927 </text>
<text text-anchor="middle" x="1098" y="-322.4" style="font-family:Times New Roman;font-size:14.00;"> error = 0.444444447756 </text>
<text text-anchor="middle" x="1098" y="-305.4" style="font-family:Times New Roman;font-size:14.00;"> samples = 3 </text>
<text text-anchor="middle" x="1098" y="-288.4" style="font-family:Times New Roman;font-size:14.00;"> v = [ 0. &#160;1. &#160;2.]</text>
</g>
<!-- 14&#45;&gt;12 -->
<g id="edge26" class="edge"><title>14&#45;&gt;12</title>
<path style="fill:none;stroke:black;" d="M1098,-408C1098,-399 1098,-391 1098,-382"/>
<polygon style="fill:black;stroke:black;" points="1101.5,-382 1098,-372 1094.5,-382 1101.5,-382"/>
</g>
<!-- 13 -->
<g id="node27" class="node"><title>13</title>
<ellipse style="fill:none;stroke:black;" cx="1408" cy="-318" rx="99.201" ry="41.7193"/>
<text text-anchor="middle" x="1408" y="-330.9" style="font-family:Times New Roman;font-size:14.00;">error = 0.0 </text>
<text text-anchor="middle" x="1408" y="-313.9" style="font-family:Times New Roman;font-size:14.00;"> samples = 43 </text>
<text text-anchor="middle" x="1408" y="-296.9" style="font-family:Times New Roman;font-size:14.00;"> v = [ &#160;0. &#160;&#160;0. &#160;43.]</text>
</g>
<!-- 14&#45;&gt;13 -->
<g id="edge28" class="edge"><title>14&#45;&gt;13</title>
<path style="fill:none;stroke:black;" d="M1201,-417C1233,-403 1268,-387 1300,-372 1312,-366 1324,-360 1336,-354"/>
<polygon style="fill:black;stroke:black;" points="1337.28,-357.26 1345,-350 1334.44,-350.863 1337.28,-357.26"/>
</g>
<!-- 1 -->
<g id="node14" class="node"><title>1</title>
<ellipse style="fill:none;stroke:black;" cx="99" cy="-174" rx="99.201" ry="41.7193"/>
<text text-anchor="middle" x="99" y="-186.9" style="font-family:Times New Roman;font-size:14.00;">error = 0.0 </text>
<text text-anchor="middle" x="99" y="-169.9" style="font-family:Times New Roman;font-size:14.00;"> samples = 47 </text>
<text text-anchor="middle" x="99" y="-152.9" style="font-family:Times New Roman;font-size:14.00;"> v = [ &#160;0. &#160;47. &#160;&#160;0.]</text>
</g>
<!-- 3&#45;&gt;1 -->
<g id="edge14" class="edge"><title>3&#45;&gt;1</title>
<path style="fill:none;stroke:black;" d="M231,-268C207,-251 181,-232 157,-216"/>
<polygon style="fill:black;stroke:black;" points="159.1,-213.2 149,-210 154.9,-218.8 159.1,-213.2"/>
</g>
<!-- 2 -->
<g id="node15" class="node"><title>2</title>
<ellipse style="fill:none;stroke:black;" cx="303" cy="-174" rx="86.9741" ry="41.7193"/>
<text text-anchor="middle" x="303" y="-186.9" style="font-family:Times New Roman;font-size:14.00;">error = 0.0 </text>
<text text-anchor="middle" x="303" y="-169.9" style="font-family:Times New Roman;font-size:14.00;"> samples = 1 </text>
<text text-anchor="middle" x="303" y="-152.9" style="font-family:Times New Roman;font-size:14.00;"> v = [ 0. &#160;0. &#160;1.]</text>
</g>
<!-- 3&#45;&gt;2 -->
<g id="edge16" class="edge"><title>3&#45;&gt;2</title>
<path style="fill:none;stroke:black;" d="M302,-264C302,-252 302,-238 302,-226"/>
<polygon style="fill:black;stroke:black;" points="305.5,-226 302,-216 298.5,-226 305.5,-226"/>
</g>
<!-- 4 -->
<g id="node18" class="node"><title>4</title>
<ellipse style="fill:none;stroke:black;" cx="499" cy="-174" rx="86.9741" ry="41.7193"/>
<text text-anchor="middle" x="499" y="-186.9" style="font-family:Times New Roman;font-size:14.00;">error = 0.0 </text>
<text text-anchor="middle" x="499" y="-169.9" style="font-family:Times New Roman;font-size:14.00;"> samples = 3 </text>
<text text-anchor="middle" x="499" y="-152.9" style="font-family:Times New Roman;font-size:14.00;"> v = [ 0. &#160;0. &#160;3.]</text>
</g>
<!-- 8&#45;&gt;4 -->
<g id="edge18" class="edge"><title>8&#45;&gt;4</title>
<path style="fill:none;stroke:black;" d="M628,-268C604,-250 578,-231 555,-215"/>
<polygon style="fill:black;stroke:black;" points="557.1,-212.2 547,-209 552.9,-217.8 557.1,-212.2"/>
</g>
<!-- 7 -->
<g id="node19" class="node"><title>7</title>
<ellipse style="fill:none;stroke:black;" cx="797" cy="-174" rx="193.04" ry="53.7401"/>
<text text-anchor="middle" x="797" y="-195.4" style="font-family:Times New Roman;font-size:14.00;">sepal length (cm) &lt; 6.94999980927 </text>
<text text-anchor="middle" x="797" y="-178.4" style="font-family:Times New Roman;font-size:14.00;"> error = 0.444444447756 </text>
<text text-anchor="middle" x="797" y="-161.4" style="font-family:Times New Roman;font-size:14.00;"> samples = 3 </text>
<text text-anchor="middle" x="797" y="-144.4" style="font-family:Times New Roman;font-size:14.00;"> v = [ 0. &#160;2. &#160;1.]</text>
</g>
<!-- 8&#45;&gt;7 -->
<g id="edge20" class="edge"><title>8&#45;&gt;7</title>
<path style="fill:none;stroke:black;" d="M734,-265C741,-256 748,-245 754,-235"/>
<polygon style="fill:black;stroke:black;" points="756.8,-237.1 760,-227 751.2,-232.9 756.8,-237.1"/>
</g>
<!-- 5 -->
<g id="node22" class="node"><title>5</title>
<ellipse style="fill:none;stroke:black;" cx="701" cy="-42" rx="86.9741" ry="41.7193"/>
<text text-anchor="middle" x="701" y="-54.9" style="font-family:Times New Roman;font-size:14.00;">error = 0.0 </text>
<text text-anchor="middle" x="701" y="-37.9" style="font-family:Times New Roman;font-size:14.00;"> samples = 2 </text>
<text text-anchor="middle" x="701" y="-20.9" style="font-family:Times New Roman;font-size:14.00;"> v = [ 0. &#160;2. &#160;0.]</text>
</g>
<!-- 7&#45;&gt;5 -->
<g id="edge22" class="edge"><title>7&#45;&gt;5</title>
<path style="fill:none;stroke:black;" d="M759,-121C751,-111 743,-100 736,-89"/>
<polygon style="fill:black;stroke:black;" points="738.8,-86.9 730,-81 733.2,-91.1 738.8,-86.9"/>
</g>
<!-- 6 -->
<g id="node23" class="node"><title>6</title>
<ellipse style="fill:none;stroke:black;" cx="893" cy="-42" rx="86.9741" ry="41.7193"/>
<text text-anchor="middle" x="893" y="-54.9" style="font-family:Times New Roman;font-size:14.00;">error = 0.0 </text>
<text text-anchor="middle" x="893" y="-37.9" style="font-family:Times New Roman;font-size:14.00;"> samples = 1 </text>
<text text-anchor="middle" x="893" y="-20.9" style="font-family:Times New Roman;font-size:14.00;"> v = [ 0. &#160;0. &#160;1.]</text>
</g>
<!-- 7&#45;&gt;6 -->
<g id="edge24" class="edge"><title>7&#45;&gt;6</title>
<path style="fill:none;stroke:black;" d="M835,-121C843,-111 851,-100 858,-89"/>
<polygon style="fill:black;stroke:black;" points="860.8,-91.1 864,-81 855.2,-86.9 860.8,-91.1"/>
</g>
<!-- 10 -->
<g id="node30" class="node"><title>10</title>
<ellipse style="fill:none;stroke:black;" cx="1097" cy="-174" rx="86.9741" ry="41.7193"/>
<text text-anchor="middle" x="1097" y="-186.9" style="font-family:Times New Roman;font-size:14.00;">error = 0.0 </text>
<text text-anchor="middle" x="1097" y="-169.9" style="font-family:Times New Roman;font-size:14.00;"> samples = 1 </text>
<text text-anchor="middle" x="1097" y="-152.9" style="font-family:Times New Roman;font-size:14.00;"> v = [ 0. &#160;1. &#160;0.]</text>
</g>
<!-- 12&#45;&gt;10 -->
<g id="edge30" class="edge"><title>12&#45;&gt;10</title>
<path style="fill:none;stroke:black;" d="M1098,-264C1098,-252 1097,-238 1097,-226"/>
<polygon style="fill:black;stroke:black;" points="1100.5,-226 1097,-216 1093.5,-226 1100.5,-226"/>
</g>
<!-- 11 -->
<g id="node31" class="node"><title>11</title>
<ellipse style="fill:none;stroke:black;" cx="1289" cy="-174" rx="86.9741" ry="41.7193"/>
<text text-anchor="middle" x="1289" y="-186.9" style="font-family:Times New Roman;font-size:14.00;">error = 0.0 </text>
<text text-anchor="middle" x="1289" y="-169.9" style="font-family:Times New Roman;font-size:14.00;"> samples = 2 </text>
<text text-anchor="middle" x="1289" y="-152.9" style="font-family:Times New Roman;font-size:14.00;"> v = [ 0. &#160;0. &#160;2.]</text>
</g>
<!-- 12&#45;&gt;11 -->
<g id="edge32" class="edge"><title>12&#45;&gt;11</title>
<path style="fill:none;stroke:black;" d="M1165,-268C1188,-250 1213,-232 1234,-215"/>
<polygon style="fill:black;stroke:black;" points="1236.1,-217.8 1242,-209 1231.9,-212.2 1236.1,-217.8"/>
</g>
</g>
</svg>
