<?xml version="1.0" encoding="UTF-8" standalone="no"?>
<!DOCTYPE svg PUBLIC "-//W3C//DTD SVG 1.1//EN"
 "http://www.w3.org/Graphics/SVG/1.1/DTD/svg11.dtd">
<!-- Generated by graphviz version 2.36.0 (20140111.2315)
 -->
<!-- Title: Tree Pages: 1 -->
<svg width="866pt" height="676pt"
 viewBox="0.00 0.00 866.00 676.00" xmlns="http://www.w3.org/2000/svg" xmlns:xlink="http://www.w3.org/1999/xlink">
<g id="graph0" class="graph" transform="scale(1 1) rotate(0) translate(4 672)">
<title>Tree</title>
<polygon fill="white" stroke="none" points="-4,4 -4,-672 862,-672 862,4 -4,4"/>
<!-- 0 -->
<g id="node1" class="node"><title>0</title>
<path fill="none" stroke="black" d="M520,-667.5C520,-667.5 384,-667.5 384,-667.5 378,-667.5 372,-661.5 372,-655.5 372,-655.5 372,-596.5 372,-596.5 372,-590.5 378,-584.5 384,-584.5 384,-584.5 520,-584.5 520,-584.5 526,-584.5 532,-590.5 532,-596.5 532,-596.5 532,-655.5 532,-655.5 532,-661.5 526,-667.5 520,-667.5"/>
<text text-anchor="start" x="380" y="-652.3" font-family="Helvetica,sans-Serif" font-size="14.00">petal length (cm) ≤ 2.45</text>
<text text-anchor="start" x="412.5" y="-637.3" font-family="Helvetica,sans-Serif" font-size="14.00">gini = 0.6667</text>
<text text-anchor="start" x="407" y="-622.3" font-family="Helvetica,sans-Serif" font-size="14.00">samples = 150</text>
<text text-anchor="start" x="394" y="-607.3" font-family="Helvetica,sans-Serif" font-size="14.00">value = [50, 50, 50]</text>
<text text-anchor="start" x="408.5" y="-592.3" font-family="Helvetica,sans-Serif" font-size="14.00">class = setosa</text>
</g>
<!-- 1 -->
<g id="node2" class="node"><title>1</title>
<path fill="#e58139" stroke="black" d="M421.25,-540C421.25,-540 328.75,-540 328.75,-540 322.75,-540 316.75,-534 316.75,-528 316.75,-528 316.75,-484 316.75,-484 316.75,-478 322.75,-472 328.75,-472 328.75,-472 421.25,-472 421.25,-472 427.25,-472 433.25,-478 433.25,-484 433.25,-484 433.25,-528 433.25,-528 433.25,-534 427.25,-540 421.25,-540"/>
<text text-anchor="start" x="347" y="-524.8" font-family="Helvetica,sans-Serif" font-size="14.00">gini = 0.0</text>
<text text-anchor="start" x="334" y="-509.8" font-family="Helvetica,sans-Serif" font-size="14.00">samples = 50</text>
<text text-anchor="start" x="324.5" y="-494.8" font-family="Helvetica,sans-Serif" font-size="14.00">value = [50, 0, 0]</text>
<text text-anchor="start" x="331.5" y="-479.8" font-family="Helvetica,sans-Serif" font-size="14.00">class = setosa</text>
</g>
<!-- 0&#45;&gt;1 -->
<g id="edge1" class="edge"><title>0&#45;&gt;1</title>
<path fill="none" stroke="black" d="M425.501,-584.391C418.013,-572.916 409.852,-560.41 402.317,-548.863"/>
<polygon fill="black" stroke="black" points="405.095,-546.714 396.699,-540.252 399.232,-550.54 405.095,-546.714"/>
<text text-anchor="middle" x="391.555" y="-561.017" font-family="Helvetica,sans-Serif" font-size="14.00">True</text>
</g>
<!-- 2 -->
<g id="node3" class="node"><title>2</title>
<path fill="none" stroke="black" d="M594.25,-547.5C594.25,-547.5 463.75,-547.5 463.75,-547.5 457.75,-547.5 451.75,-541.5 451.75,-535.5 451.75,-535.5 451.75,-476.5 451.75,-476.5 451.75,-470.5 457.75,-464.5 463.75,-464.5 463.75,-464.5 594.25,-464.5 594.25,-464.5 600.25,-464.5 606.25,-470.5 606.25,-476.5 606.25,-476.5 606.25,-535.5 606.25,-535.5 606.25,-541.5 600.25,-547.5 594.25,-547.5"/>
<text text-anchor="start" x="459.5" y="-532.3" font-family="Helvetica,sans-Serif" font-size="14.00">petal width (cm) ≤ 1.75</text>
<text text-anchor="start" x="501" y="-517.3" font-family="Helvetica,sans-Serif" font-size="14.00">gini = 0.5</text>
<text text-anchor="start" x="484" y="-502.3" font-family="Helvetica,sans-Serif" font-size="14.00">samples = 100</text>
<text text-anchor="start" x="474.5" y="-487.3" font-family="Helvetica,sans-Serif" font-size="14.00">value = [0, 50, 50]</text>
<text text-anchor="start" x="476.5" y="-472.3" font-family="Helvetica,sans-Serif" font-size="14.00">class = versicolor</text>
</g>
<!-- 0&#45;&gt;2 -->
<g id="edge2" class="edge"><title>0&#45;&gt;2</title>
<path fill="none" stroke="black" d="M478.499,-584.391C484.428,-575.306 490.778,-565.574 496.906,-556.183"/>
<polygon fill="black" stroke="black" points="499.918,-557.971 502.452,-547.684 494.056,-554.146 499.918,-557.971"/>
<text text-anchor="middle" x="507.596" y="-568.449" font-family="Helvetica,sans-Serif" font-size="14.00">False</text>
</g>
<!-- 3 -->
<g id="node4" class="node"><title>3</title>
<path fill="#39e581" fill-opacity="0.894118" stroke="black" d="M484,-427.5C484,-427.5 348,-427.5 348,-427.5 342,-427.5 336,-421.5 336,-415.5 336,-415.5 336,-356.5 336,-356.5 336,-350.5 342,-344.5 348,-344.5 348,-344.5 484,-344.5 484,-344.5 490,-344.5 496,-350.5 496,-356.5 496,-356.5 496,-415.5 496,-415.5 496,-421.5 490,-427.5 484,-427.5"/>
<text text-anchor="start" x="344" y="-412.3" font-family="Helvetica,sans-Serif" font-size="14.00">petal length (cm) ≤ 4.95</text>
<text text-anchor="start" x="380.5" y="-397.3" font-family="Helvetica,sans-Serif" font-size="14.00">gini = 0.168</text>
<text text-anchor="start" x="375" y="-382.3" font-family="Helvetica,sans-Serif" font-size="14.00">samples = 54</text>
<text text-anchor="start" x="365.5" y="-367.3" font-family="Helvetica,sans-Serif" font-size="14.00">value = [0, 49, 5]</text>
<text text-anchor="start" x="363.5" y="-352.3" font-family="Helvetica,sans-Serif" font-size="14.00">class = versicolor</text>
</g>
<!-- 2&#45;&gt;3 -->
<g id="edge3" class="edge"><title>2&#45;&gt;3</title>
<path fill="none" stroke="black" d="M490.112,-464.391C481.056,-454.935 471.33,-444.778 462,-435.035"/>
<polygon fill="black" stroke="black" points="464.404,-432.485 454.96,-427.684 459.348,-437.327 464.404,-432.485"/>
</g>
<!-- 12 -->
<g id="node13" class="node"><title>12</title>
<path fill="#8139e5" fill-opacity="0.976471" stroke="black" d="M710,-427.5C710,-427.5 574,-427.5 574,-427.5 568,-427.5 562,-421.5 562,-415.5 562,-415.5 562,-356.5 562,-356.5 562,-350.5 568,-344.5 574,-344.5 574,-344.5 710,-344.5 710,-344.5 716,-344.5 722,-350.5 722,-356.5 722,-356.5 722,-415.5 722,-415.5 722,-421.5 716,-427.5 710,-427.5"/>
<text text-anchor="start" x="570" y="-412.3" font-family="Helvetica,sans-Serif" font-size="14.00">petal length (cm) ≤ 4.85</text>
<text text-anchor="start" x="602.5" y="-397.3" font-family="Helvetica,sans-Serif" font-size="14.00">gini = 0.0425</text>
<text text-anchor="start" x="601" y="-382.3" font-family="Helvetica,sans-Serif" font-size="14.00">samples = 46</text>
<text text-anchor="start" x="591.5" y="-367.3" font-family="Helvetica,sans-Serif" font-size="14.00">value = [0, 1, 45]</text>
<text text-anchor="start" x="593.5" y="-352.3" font-family="Helvetica,sans-Serif" font-size="14.00">class = virginica</text>
</g>
<!-- 2&#45;&gt;12 -->
<g id="edge12" class="edge"><title>2&#45;&gt;12</title>
<path fill="none" stroke="black" d="M567.888,-464.391C576.944,-454.935 586.67,-444.778 596,-435.035"/>
<polygon fill="black" stroke="black" points="598.652,-437.327 603.04,-427.684 593.596,-432.485 598.652,-437.327"/>
</g>
<!-- 4 -->
<g id="node5" class="node"><title>4</title>
<path fill="#39e581" fill-opacity="0.976471" stroke="black" d="M260.25,-307.5C260.25,-307.5 129.75,-307.5 129.75,-307.5 123.75,-307.5 117.75,-301.5 117.75,-295.5 117.75,-295.5 117.75,-236.5 117.75,-236.5 117.75,-230.5 123.75,-224.5 129.75,-224.5 129.75,-224.5 260.25,-224.5 260.25,-224.5 266.25,-224.5 272.25,-230.5 272.25,-236.5 272.25,-236.5 272.25,-295.5 272.25,-295.5 272.25,-301.5 266.25,-307.5 260.25,-307.5"/>
<text text-anchor="start" x="125.5" y="-292.3" font-family="Helvetica,sans-Serif" font-size="14.00">petal width (cm) ≤ 1.65</text>
<text text-anchor="start" x="155.5" y="-277.3" font-family="Helvetica,sans-Serif" font-size="14.00">gini = 0.0408</text>
<text text-anchor="start" x="154" y="-262.3" font-family="Helvetica,sans-Serif" font-size="14.00">samples = 48</text>
<text text-anchor="start" x="144.5" y="-247.3" font-family="Helvetica,sans-Serif" font-size="14.00">value = [0, 47, 1]</text>
<text text-anchor="start" x="142.5" y="-232.3" font-family="Helvetica,sans-Serif" font-size="14.00">class = versicolor</text>
</g>
<!-- 3&#45;&gt;4 -->
<g id="edge4" class="edge"><title>3&#45;&gt;4</title>
<path fill="none" stroke="black" d="M339.944,-344.391C320.671,-334.101 299.845,-322.981 280.154,-312.467"/>
<polygon fill="black" stroke="black" points="281.666,-309.306 271.196,-307.684 278.369,-315.481 281.666,-309.306"/>
</g>
<!-- 7 -->
<g id="node8" class="node"><title>7</title>
<path fill="#8139e5" fill-opacity="0.498039" stroke="black" d="M481.25,-307.5C481.25,-307.5 350.75,-307.5 350.75,-307.5 344.75,-307.5 338.75,-301.5 338.75,-295.5 338.75,-295.5 338.75,-236.5 338.75,-236.5 338.75,-230.5 344.75,-224.5 350.75,-224.5 350.75,-224.5 481.25,-224.5 481.25,-224.5 487.25,-224.5 493.25,-230.5 493.25,-236.5 493.25,-236.5 493.25,-295.5 493.25,-295.5 493.25,-301.5 487.25,-307.5 481.25,-307.5"/>
<text text-anchor="start" x="346.5" y="-292.3" font-family="Helvetica,sans-Serif" font-size="14.00">petal width (cm) ≤ 1.55</text>
<text text-anchor="start" x="376.5" y="-277.3" font-family="Helvetica,sans-Serif" font-size="14.00">gini = 0.4444</text>
<text text-anchor="start" x="378.5" y="-262.3" font-family="Helvetica,sans-Serif" font-size="14.00">samples = 6</text>
<text text-anchor="start" x="369" y="-247.3" font-family="Helvetica,sans-Serif" font-size="14.00">value = [0, 2, 4]</text>
<text text-anchor="start" x="367.5" y="-232.3" font-family="Helvetica,sans-Serif" font-size="14.00">class = virginica</text>
</g>
<!-- 3&#45;&gt;7 -->
<g id="edge7" class="edge"><title>3&#45;&gt;7</title>
<path fill="none" stroke="black" d="M416,-344.391C416,-335.862 416,-326.763 416,-317.912"/>
<polygon fill="black" stroke="black" points="419.5,-317.684 416,-307.684 412.5,-317.684 419.5,-317.684"/>
</g>
<!-- 5 -->
<g id="node6" class="node"><title>5</title>
<path fill="#39e581" stroke="black" d="M108.25,-180C108.25,-180 11.75,-180 11.75,-180 5.75,-180 -0.25,-174 -0.25,-168 -0.25,-168 -0.25,-124 -0.25,-124 -0.25,-118 5.75,-112 11.75,-112 11.75,-112 108.25,-112 108.25,-112 114.25,-112 120.25,-118 120.25,-124 120.25,-124 120.25,-168 120.25,-168 120.25,-174 114.25,-180 108.25,-180"/>
<text text-anchor="start" x="32" y="-164.8" font-family="Helvetica,sans-Serif" font-size="14.00">gini = 0.0</text>
<text text-anchor="start" x="19" y="-149.8" font-family="Helvetica,sans-Serif" font-size="14.00">samples = 47</text>
<text text-anchor="start" x="9.5" y="-134.8" font-family="Helvetica,sans-Serif" font-size="14.00">value = [0, 47, 0]</text>
<text text-anchor="start" x="7.5" y="-119.8" font-family="Helvetica,sans-Serif" font-size="14.00">class = versicolor</text>
</g>
<!-- 4&#45;&gt;5 -->
<g id="edge5" class="edge"><title>4&#45;&gt;5</title>
<path fill="none" stroke="black" d="M148.541,-224.391C134.64,-212.241 119.417,-198.935 105.574,-186.835"/>
<polygon fill="black" stroke="black" points="107.876,-184.198 98.043,-180.252 103.269,-189.469 107.876,-184.198"/>
</g>
<!-- 6 -->
<g id="node7" class="node"><title>6</title>
<path fill="#8139e5" stroke="black" d="M239.25,-180C239.25,-180 150.75,-180 150.75,-180 144.75,-180 138.75,-174 138.75,-168 138.75,-168 138.75,-124 138.75,-124 138.75,-118 144.75,-112 150.75,-112 150.75,-112 239.25,-112 239.25,-112 245.25,-112 251.25,-118 251.25,-124 251.25,-124 251.25,-168 251.25,-168 251.25,-174 245.25,-180 239.25,-180"/>
<text text-anchor="start" x="167" y="-164.8" font-family="Helvetica,sans-Serif" font-size="14.00">gini = 0.0</text>
<text text-anchor="start" x="157.5" y="-149.8" font-family="Helvetica,sans-Serif" font-size="14.00">samples = 1</text>
<text text-anchor="start" x="148" y="-134.8" font-family="Helvetica,sans-Serif" font-size="14.00">value = [0, 0, 1]</text>
<text text-anchor="start" x="146.5" y="-119.8" font-family="Helvetica,sans-Serif" font-size="14.00">class = virginica</text>
</g>
<!-- 4&#45;&gt;6 -->
<g id="edge6" class="edge"><title>4&#45;&gt;6</title>
<path fill="none" stroke="black" d="M195,-224.391C195,-213.479 195,-201.634 195,-190.568"/>
<polygon fill="black" stroke="black" points="198.5,-190.252 195,-180.252 191.5,-190.252 198.5,-190.252"/>
</g>
<!-- 8 -->
<g id="node9" class="node"><title>8</title>
<path fill="#8139e5" stroke="black" d="M370.25,-180C370.25,-180 281.75,-180 281.75,-180 275.75,-180 269.75,-174 269.75,-168 269.75,-168 269.75,-124 269.75,-124 269.75,-118 275.75,-112 281.75,-112 281.75,-112 370.25,-112 370.25,-112 376.25,-112 382.25,-118 382.25,-124 382.25,-124 382.25,-168 382.25,-168 382.25,-174 376.25,-180 370.25,-180"/>
<text text-anchor="start" x="298" y="-164.8" font-family="Helvetica,sans-Serif" font-size="14.00">gini = 0.0</text>
<text text-anchor="start" x="288.5" y="-149.8" font-family="Helvetica,sans-Serif" font-size="14.00">samples = 3</text>
<text text-anchor="start" x="279" y="-134.8" font-family="Helvetica,sans-Serif" font-size="14.00">value = [0, 0, 3]</text>
<text text-anchor="start" x="277.5" y="-119.8" font-family="Helvetica,sans-Serif" font-size="14.00">class = virginica</text>
</g>
<!-- 7&#45;&gt;8 -->
<g id="edge8" class="edge"><title>7&#45;&gt;8</title>
<path fill="none" stroke="black" d="M385.027,-224.391C376.189,-212.804 366.549,-200.165 357.67,-188.523"/>
<polygon fill="black" stroke="black" points="360.209,-186.081 351.362,-180.252 354.644,-190.326 360.209,-186.081"/>
</g>
<!-- 9 -->
<g id="node10" class="node"><title>9</title>
<path fill="#39e581" fill-opacity="0.498039" stroke="black" d="M551.25,-187.5C551.25,-187.5 412.75,-187.5 412.75,-187.5 406.75,-187.5 400.75,-181.5 400.75,-175.5 400.75,-175.5 400.75,-116.5 400.75,-116.5 400.75,-110.5 406.75,-104.5 412.75,-104.5 412.75,-104.5 551.25,-104.5 551.25,-104.5 557.25,-104.5 563.25,-110.5 563.25,-116.5 563.25,-116.5 563.25,-175.5 563.25,-175.5 563.25,-181.5 557.25,-187.5 551.25,-187.5"/>
<text text-anchor="start" x="408.5" y="-172.3" font-family="Helvetica,sans-Serif" font-size="14.00">sepal length (cm) ≤ 6.95</text>
<text text-anchor="start" x="442.5" y="-157.3" font-family="Helvetica,sans-Serif" font-size="14.00">gini = 0.4444</text>
<text text-anchor="start" x="444.5" y="-142.3" font-family="Helvetica,sans-Serif" font-size="14.00">samples = 3</text>
<text text-anchor="start" x="435" y="-127.3" font-family="Helvetica,sans-Serif" font-size="14.00">value = [0, 2, 1]</text>
<text text-anchor="start" x="429.5" y="-112.3" font-family="Helvetica,sans-Serif" font-size="14.00">class = versicolor</text>
</g>
<!-- 7&#45;&gt;9 -->
<g id="edge9" class="edge"><title>7&#45;&gt;9</title>
<path fill="none" stroke="black" d="M438.713,-224.391C443.743,-215.398 449.127,-205.772 454.33,-196.471"/>
<polygon fill="black" stroke="black" points="457.418,-198.12 459.245,-187.684 451.308,-194.703 457.418,-198.12"/>
</g>
<!-- 10 -->
<g id="node11" class="node"><title>10</title>
<path fill="#39e581" stroke="black" d="M462.25,-68C462.25,-68 365.75,-68 365.75,-68 359.75,-68 353.75,-62 353.75,-56 353.75,-56 353.75,-12 353.75,-12 353.75,-6 359.75,-0 365.75,-0 365.75,-0 462.25,-0 462.25,-0 468.25,-0 474.25,-6 474.25,-12 474.25,-12 474.25,-56 474.25,-56 474.25,-62 468.25,-68 462.25,-68"/>
<text text-anchor="start" x="386" y="-52.8" font-family="Helvetica,sans-Serif" font-size="14.00">gini = 0.0</text>
<text text-anchor="start" x="376.5" y="-37.8" font-family="Helvetica,sans-Serif" font-size="14.00">samples = 2</text>
<text text-anchor="start" x="367" y="-22.8" font-family="Helvetica,sans-Serif" font-size="14.00">value = [0, 2, 0]</text>
<text text-anchor="start" x="361.5" y="-7.8" font-family="Helvetica,sans-Serif" font-size="14.00">class = versicolor</text>
</g>
<!-- 9&#45;&gt;10 -->
<g id="edge10" class="edge"><title>9&#45;&gt;10</title>
<path fill="none" stroke="black" d="M456.873,-104.353C451.368,-95.4478 445.529,-86.0034 439.992,-77.0452"/>
<polygon fill="black" stroke="black" points="442.813,-74.9525 434.577,-68.287 436.859,-78.6333 442.813,-74.9525"/>
</g>
<!-- 11 -->
<g id="node12" class="node"><title>11</title>
<path fill="#8139e5" stroke="black" d="M593.25,-68C593.25,-68 504.75,-68 504.75,-68 498.75,-68 492.75,-62 492.75,-56 492.75,-56 492.75,-12 492.75,-12 492.75,-6 498.75,-0 504.75,-0 504.75,-0 593.25,-0 593.25,-0 599.25,-0 605.25,-6 605.25,-12 605.25,-12 605.25,-56 605.25,-56 605.25,-62 599.25,-68 593.25,-68"/>
<text text-anchor="start" x="521" y="-52.8" font-family="Helvetica,sans-Serif" font-size="14.00">gini = 0.0</text>
<text text-anchor="start" x="511.5" y="-37.8" font-family="Helvetica,sans-Serif" font-size="14.00">samples = 1</text>
<text text-anchor="start" x="502" y="-22.8" font-family="Helvetica,sans-Serif" font-size="14.00">value = [0, 0, 1]</text>
<text text-anchor="start" x="500.5" y="-7.8" font-family="Helvetica,sans-Serif" font-size="14.00">class = virginica</text>
</g>
<!-- 9&#45;&gt;11 -->
<g id="edge11" class="edge"><title>9&#45;&gt;11</title>
<path fill="none" stroke="black" d="M506.758,-104.353C512.182,-95.4478 517.934,-86.0034 523.391,-77.0452"/>
<polygon fill="black" stroke="black" points="526.512,-78.6482 528.725,-68.287 520.534,-75.0068 526.512,-78.6482"/>
</g>
<!-- 13 -->
<g id="node14" class="node"><title>13</title>
<path fill="#8139e5" fill-opacity="0.498039" stroke="black" d="M711.25,-307.5C711.25,-307.5 572.75,-307.5 572.75,-307.5 566.75,-307.5 560.75,-301.5 560.75,-295.5 560.75,-295.5 560.75,-236.5 560.75,-236.5 560.75,-230.5 566.75,-224.5 572.75,-224.5 572.75,-224.5 711.25,-224.5 711.25,-224.5 717.25,-224.5 723.25,-230.5 723.25,-236.5 723.25,-236.5 723.25,-295.5 723.25,-295.5 723.25,-301.5 717.25,-307.5 711.25,-307.5"/>
<text text-anchor="start" x="568.5" y="-292.3" font-family="Helvetica,sans-Serif" font-size="14.00">sepal length (cm) ≤ 5.95</text>
<text text-anchor="start" x="602.5" y="-277.3" font-family="Helvetica,sans-Serif" font-size="14.00">gini = 0.4444</text>
<text text-anchor="start" x="604.5" y="-262.3" font-family="Helvetica,sans-Serif" font-size="14.00">samples = 3</text>
<text text-anchor="start" x="595" y="-247.3" font-family="Helvetica,sans-Serif" font-size="14.00">value = [0, 1, 2]</text>
<text text-anchor="start" x="593.5" y="-232.3" font-family="Helvetica,sans-Serif" font-size="14.00">class = virginica</text>
</g>
<!-- 12&#45;&gt;13 -->
<g id="edge13" class="edge"><title>12&#45;&gt;13</title>
<path fill="none" stroke="black" d="M642,-344.391C642,-335.862 642,-326.763 642,-317.912"/>
<polygon fill="black" stroke="black" points="645.5,-317.684 642,-307.684 638.5,-317.684 645.5,-317.684"/>
</g>
<!-- 16 -->
<g id="node17" class="node"><title>16</title>
<path fill="#8139e5" stroke="black" d="M846.25,-300C846.25,-300 753.75,-300 753.75,-300 747.75,-300 741.75,-294 741.75,-288 741.75,-288 741.75,-244 741.75,-244 741.75,-238 747.75,-232 753.75,-232 753.75,-232 846.25,-232 846.25,-232 852.25,-232 858.25,-238 858.25,-244 858.25,-244 858.25,-288 858.25,-288 858.25,-294 852.25,-300 846.25,-300"/>
<text text-anchor="start" x="772" y="-284.8" font-family="Helvetica,sans-Serif" font-size="14.00">gini = 0.0</text>
<text text-anchor="start" x="759" y="-269.8" font-family="Helvetica,sans-Serif" font-size="14.00">samples = 43</text>
<text text-anchor="start" x="749.5" y="-254.8" font-family="Helvetica,sans-Serif" font-size="14.00">value = [0, 0, 43]</text>
<text text-anchor="start" x="751.5" y="-239.8" font-family="Helvetica,sans-Serif" font-size="14.00">class = virginica</text>
</g>
<!-- 12&#45;&gt;16 -->
<g id="edge16" class="edge"><title>12&#45;&gt;16</title>
<path fill="none" stroke="black" d="M696.375,-344.391C712.87,-332.072 730.957,-318.564 747.337,-306.33"/>
<polygon fill="black" stroke="black" points="749.813,-308.85 755.73,-300.062 745.624,-303.242 749.813,-308.85"/>
</g>
<!-- 14 -->
<g id="node15" class="node"><title>14</title>
<path fill="#39e581" stroke="black" d="M690.25,-180C690.25,-180 593.75,-180 593.75,-180 587.75,-180 581.75,-174 581.75,-168 581.75,-168 581.75,-124 581.75,-124 581.75,-118 587.75,-112 593.75,-112 593.75,-112 690.25,-112 690.25,-112 696.25,-112 702.25,-118 702.25,-124 702.25,-124 702.25,-168 702.25,-168 702.25,-174 696.25,-180 690.25,-180"/>
<text text-anchor="start" x="614" y="-164.8" font-family="Helvetica,sans-Serif" font-size="14.00">gini = 0.0</text>
<text text-anchor="start" x="604.5" y="-149.8" font-family="Helvetica,sans-Serif" font-size="14.00">samples = 1</text>
<text text-anchor="start" x="595" y="-134.8" font-family="Helvetica,sans-Serif" font-size="14.00">value = [0, 1, 0]</text>
<text text-anchor="start" x="589.5" y="-119.8" font-family="Helvetica,sans-Serif" font-size="14.00">class = versicolor</text>
</g>
<!-- 13&#45;&gt;14 -->
<g id="edge14" class="edge"><title>13&#45;&gt;14</title>
<path fill="none" stroke="black" d="M642,-224.391C642,-213.479 642,-201.634 642,-190.568"/>
<polygon fill="black" stroke="black" points="645.5,-190.252 642,-180.252 638.5,-190.252 645.5,-190.252"/>
</g>
<!-- 15 -->
<g id="node16" class="node"><title>15</title>
<path fill="#8139e5" stroke="black" d="M821.25,-180C821.25,-180 732.75,-180 732.75,-180 726.75,-180 720.75,-174 720.75,-168 720.75,-168 720.75,-124 720.75,-124 720.75,-118 726.75,-112 732.75,-112 732.75,-112 821.25,-112 821.25,-112 827.25,-112 833.25,-118 833.25,-124 833.25,-124 833.25,-168 833.25,-168 833.25,-174 827.25,-180 821.25,-180"/>
<text text-anchor="start" x="749" y="-164.8" font-family="Helvetica,sans-Serif" font-size="14.00">gini = 0.0</text>
<text text-anchor="start" x="739.5" y="-149.8" font-family="Helvetica,sans-Serif" font-size="14.00">samples = 2</text>
<text text-anchor="start" x="730" y="-134.8" font-family="Helvetica,sans-Serif" font-size="14.00">value = [0, 0, 2]</text>
<text text-anchor="start" x="728.5" y="-119.8" font-family="Helvetica,sans-Serif" font-size="14.00">class = virginica</text>
</g>
<!-- 13&#45;&gt;15 -->
<g id="edge15" class="edge"><title>13&#45;&gt;15</title>
<path fill="none" stroke="black" d="M688.459,-224.391C702.36,-212.241 717.583,-198.935 731.426,-186.835"/>
<polygon fill="black" stroke="black" points="733.731,-189.469 738.957,-180.252 729.124,-184.198 733.731,-189.469"/>
</g>
</g>
</svg>
