<?xml version="1.0" encoding="UTF-8" standalone="no"?>
<!DOCTYPE svg PUBLIC "-//W3C//DTD SVG 1.0//EN"
 "http://www.w3.org/TR/2001/REC-SVG-20010904/DTD/svg10.dtd" [
 <!ATTLIST svg xmlns:xlink CDATA #FIXED "http://www.w3.org/1999/xlink">
]>
<!-- Generated by Graphviz version 2.20.2 (Tue Mar &#160;2 19:03:41 UTC 2010)
     For user: (bh00038) Brian Holt -->
<!-- Title: Tree Pages: 1 -->
<svg width="600pt" height="640pt"
 viewBox="0.00 0.00 1680.00 812.00" xmlns="http://www.w3.org/2000/svg" xmlns:xlink="http://www.w3.org/1999/xlink">
<g id="graph0" class="graph" transform="scale(1 1) rotate(0) translate(4 808)">
<title>Tree</title>
<polygon style="fill:white;stroke:white;" points="-4,4 -4,-808 1676,-808 1676,4 -4,4"/>
<!-- 0 -->
<g id="node1" class="node"><title>0</title>
<ellipse style="fill:none;stroke:black;" cx="868" cy="-750" rx="196.783" ry="53.7401"/>
<text text-anchor="middle" x="868" y="-771.4" style="font-family:Times New Roman;font-size:14.00;">petal length (cm) &lt;= 2.45000004768</text>
<text text-anchor="middle" x="868" y="-754.4" style="font-family:Times New Roman;font-size:14.00;">error = 0.666666686535</text>
<text text-anchor="middle" x="868" y="-737.4" style="font-family:Times New Roman;font-size:14.00;">samples = 150</text>
<text text-anchor="middle" x="868" y="-720.4" style="font-family:Times New Roman;font-size:14.00;">value = [ 50. &#160;50. &#160;50.]</text>
</g>
<!-- 1 -->
<g id="node2" class="node"><title>1</title>
<ellipse style="fill:none;stroke:black;" cx="732" cy="-606" rx="116.88" ry="41.7193"/>
<text text-anchor="middle" x="732" y="-618.9" style="font-family:Times New Roman;font-size:14.00;">error = 0.0</text>
<text text-anchor="middle" x="732" y="-601.9" style="font-family:Times New Roman;font-size:14.00;">samples = 50</text>
<text text-anchor="middle" x="732" y="-584.9" style="font-family:Times New Roman;font-size:14.00;">value = [ 50. &#160;&#160;0. &#160;&#160;0.]</text>
</g>
<!-- 0&#45;&gt;1 -->
<g id="edge2" class="edge"><title>0&#45;&gt;1</title>
<path style="fill:none;stroke:black;" d="M819,-698C805,-684 790,-668 777,-653"/>
<polygon style="fill:black;stroke:black;" points="779.546,-650.596 770,-646 774.596,-655.546 779.546,-650.596"/>
</g>
<!-- 2 -->
<g id="node3" class="node"><title>2</title>
<ellipse style="fill:none;stroke:black;" cx="1004" cy="-606" rx="137.179" ry="53.7401"/>
<text text-anchor="middle" x="1004" y="-627.4" style="font-family:Times New Roman;font-size:14.00;">petal width (cm) &lt;= 1.75</text>
<text text-anchor="middle" x="1004" y="-610.4" style="font-family:Times New Roman;font-size:14.00;">error = 0.5</text>
<text text-anchor="middle" x="1004" y="-593.4" style="font-family:Times New Roman;font-size:14.00;">samples = 100</text>
<text text-anchor="middle" x="1004" y="-576.4" style="font-family:Times New Roman;font-size:14.00;">value = [ &#160;0. &#160;50. &#160;50.]</text>
</g>
<!-- 0&#45;&gt;2 -->
<g id="edge4" class="edge"><title>0&#45;&gt;2</title>
<path style="fill:none;stroke:black;" d="M917,-698C928,-687 939,-676 949,-664"/>
<polygon style="fill:black;stroke:black;" points="951.404,-666.546 956,-657 946.454,-661.596 951.404,-666.546"/>
</g>
<!-- 5 -->
<g id="node6" class="node"><title>5</title>
<ellipse style="fill:none;stroke:black;" cx="786" cy="-462" rx="196.783" ry="53.7401"/>
<text text-anchor="middle" x="786" y="-483.4" style="font-family:Times New Roman;font-size:14.00;">petal length (cm) &lt;= 4.94999980927</text>
<text text-anchor="middle" x="786" y="-466.4" style="font-family:Times New Roman;font-size:14.00;">error = 0.168038412929</text>
<text text-anchor="middle" x="786" y="-449.4" style="font-family:Times New Roman;font-size:14.00;">samples = 54</text>
<text text-anchor="middle" x="786" y="-432.4" style="font-family:Times New Roman;font-size:14.00;">value = [ &#160;0. &#160;49. &#160;&#160;5.]</text>
</g>
<!-- 2&#45;&gt;5 -->
<g id="edge6" class="edge"><title>2&#45;&gt;5</title>
<path style="fill:none;stroke:black;" d="M934,-560C913,-547 890,-531 869,-518"/>
<polygon style="fill:black;stroke:black;" points="871.1,-515.2 861,-512 866.9,-520.8 871.1,-515.2"/>
</g>
<!-- 6 -->
<g id="node7" class="node"><title>6</title>
<ellipse style="fill:none;stroke:black;" cx="1222" cy="-462" rx="196.783" ry="53.7401"/>
<text text-anchor="middle" x="1222" y="-483.4" style="font-family:Times New Roman;font-size:14.00;">petal length (cm) &lt;= 4.85000038147</text>
<text text-anchor="middle" x="1222" y="-466.4" style="font-family:Times New Roman;font-size:14.00;">error = 0.0425330810249</text>
<text text-anchor="middle" x="1222" y="-449.4" style="font-family:Times New Roman;font-size:14.00;">samples = 46</text>
<text text-anchor="middle" x="1222" y="-432.4" style="font-family:Times New Roman;font-size:14.00;">value = [ &#160;0. &#160;&#160;1. &#160;45.]</text>
</g>
<!-- 2&#45;&gt;6 -->
<g id="edge8" class="edge"><title>2&#45;&gt;6</title>
<path style="fill:none;stroke:black;" d="M1074,-560C1095,-547 1118,-531 1139,-518"/>
<polygon style="fill:black;stroke:black;" points="1141.1,-520.8 1147,-512 1136.9,-515.2 1141.1,-520.8"/>
</g>
<!-- 11 -->
<g id="node10" class="node"><title>11</title>
<ellipse style="fill:none;stroke:black;" cx="356" cy="-318" rx="193.954" ry="53.7401"/>
<text text-anchor="middle" x="356" y="-339.4" style="font-family:Times New Roman;font-size:14.00;">petal width (cm) &lt;= 1.65000009537</text>
<text text-anchor="middle" x="356" y="-322.4" style="font-family:Times New Roman;font-size:14.00;">error = 0.040798611939</text>
<text text-anchor="middle" x="356" y="-305.4" style="font-family:Times New Roman;font-size:14.00;">samples = 48</text>
<text text-anchor="middle" x="356" y="-288.4" style="font-family:Times New Roman;font-size:14.00;">value = [ &#160;0. &#160;47. &#160;&#160;1.]</text>
</g>
<!-- 5&#45;&gt;11 -->
<g id="edge10" class="edge"><title>5&#45;&gt;11</title>
<path style="fill:none;stroke:black;" d="M662,-420C608,-402 545,-381 490,-362"/>
<polygon style="fill:black;stroke:black;" points="490.584,-358.521 480,-359 488.573,-365.226 490.584,-358.521"/>
</g>
<!-- 12 -->
<g id="node11" class="node"><title>12</title>
<ellipse style="fill:none;stroke:black;" cx="786" cy="-318" rx="193.954" ry="53.7401"/>
<text text-anchor="middle" x="786" y="-339.4" style="font-family:Times New Roman;font-size:14.00;">petal width (cm) &lt;= 1.54999995232</text>
<text text-anchor="middle" x="786" y="-322.4" style="font-family:Times New Roman;font-size:14.00;">error = 0.444444447756</text>
<text text-anchor="middle" x="786" y="-305.4" style="font-family:Times New Roman;font-size:14.00;">samples = 6</text>
<text text-anchor="middle" x="786" y="-288.4" style="font-family:Times New Roman;font-size:14.00;">value = [ 0. &#160;2. &#160;4.]</text>
</g>
<!-- 5&#45;&gt;12 -->
<g id="edge12" class="edge"><title>5&#45;&gt;12</title>
<path style="fill:none;stroke:black;" d="M786,-408C786,-399 786,-391 786,-382"/>
<polygon style="fill:black;stroke:black;" points="789.5,-382 786,-372 782.5,-382 789.5,-382"/>
</g>
<!-- 13 -->
<g id="node26" class="node"><title>13</title>
<ellipse style="fill:none;stroke:black;" cx="1222" cy="-318" rx="197.99" ry="53.7401"/>
<text text-anchor="middle" x="1222" y="-339.4" style="font-family:Times New Roman;font-size:14.00;">sepal length (cm) &lt;= 5.94999980927</text>
<text text-anchor="middle" x="1222" y="-322.4" style="font-family:Times New Roman;font-size:14.00;">error = 0.444444447756</text>
<text text-anchor="middle" x="1222" y="-305.4" style="font-family:Times New Roman;font-size:14.00;">samples = 3</text>
<text text-anchor="middle" x="1222" y="-288.4" style="font-family:Times New Roman;font-size:14.00;">value = [ 0. &#160;1. &#160;2.]</text>
</g>
<!-- 6&#45;&gt;13 -->
<g id="edge26" class="edge"><title>6&#45;&gt;13</title>
<path style="fill:none;stroke:black;" d="M1222,-408C1222,-399 1222,-391 1222,-382"/>
<polygon style="fill:black;stroke:black;" points="1225.5,-382 1222,-372 1218.5,-382 1225.5,-382"/>
</g>
<!-- 14 -->
<g id="node27" class="node"><title>14</title>
<ellipse style="fill:none;stroke:black;" cx="1555" cy="-318" rx="116.88" ry="41.7193"/>
<text text-anchor="middle" x="1555" y="-330.9" style="font-family:Times New Roman;font-size:14.00;">error = 0.0</text>
<text text-anchor="middle" x="1555" y="-313.9" style="font-family:Times New Roman;font-size:14.00;">samples = 43</text>
<text text-anchor="middle" x="1555" y="-296.9" style="font-family:Times New Roman;font-size:14.00;">value = [ &#160;0. &#160;&#160;0. &#160;43.]</text>
</g>
<!-- 6&#45;&gt;14 -->
<g id="edge28" class="edge"><title>6&#45;&gt;14</title>
<path style="fill:none;stroke:black;" d="M1327,-417C1374,-396 1427,-373 1472,-354"/>
<polygon style="fill:black;stroke:black;" points="1473.28,-357.26 1481,-350 1470.44,-350.863 1473.28,-357.26"/>
</g>
<!-- 23 -->
<g id="node14" class="node"><title>23</title>
<ellipse style="fill:none;stroke:black;" cx="117" cy="-174" rx="116.88" ry="41.7193"/>
<text text-anchor="middle" x="117" y="-186.9" style="font-family:Times New Roman;font-size:14.00;">error = 0.0</text>
<text text-anchor="middle" x="117" y="-169.9" style="font-family:Times New Roman;font-size:14.00;">samples = 47</text>
<text text-anchor="middle" x="117" y="-152.9" style="font-family:Times New Roman;font-size:14.00;">value = [ &#160;0. &#160;47. &#160;&#160;0.]</text>
</g>
<!-- 11&#45;&gt;23 -->
<g id="edge14" class="edge"><title>11&#45;&gt;23</title>
<path style="fill:none;stroke:black;" d="M275,-269C246,-251 214,-232 186,-215"/>
<polygon style="fill:black;stroke:black;" points="187.441,-211.797 177,-210 184.042,-217.916 187.441,-211.797"/>
</g>
<!-- 24 -->
<g id="node15" class="node"><title>24</title>
<ellipse style="fill:none;stroke:black;" cx="356" cy="-174" rx="104.151" ry="41.7193"/>
<text text-anchor="middle" x="356" y="-186.9" style="font-family:Times New Roman;font-size:14.00;">error = 0.0</text>
<text text-anchor="middle" x="356" y="-169.9" style="font-family:Times New Roman;font-size:14.00;">samples = 1</text>
<text text-anchor="middle" x="356" y="-152.9" style="font-family:Times New Roman;font-size:14.00;">value = [ 0. &#160;0. &#160;1.]</text>
</g>
<!-- 11&#45;&gt;24 -->
<g id="edge16" class="edge"><title>11&#45;&gt;24</title>
<path style="fill:none;stroke:black;" d="M356,-264C356,-252 356,-238 356,-226"/>
<polygon style="fill:black;stroke:black;" points="359.5,-226 356,-216 352.5,-226 359.5,-226"/>
</g>
<!-- 25 -->
<g id="node18" class="node"><title>25</title>
<ellipse style="fill:none;stroke:black;" cx="582" cy="-174" rx="104.151" ry="41.7193"/>
<text text-anchor="middle" x="582" y="-186.9" style="font-family:Times New Roman;font-size:14.00;">error = 0.0</text>
<text text-anchor="middle" x="582" y="-169.9" style="font-family:Times New Roman;font-size:14.00;">samples = 3</text>
<text text-anchor="middle" x="582" y="-152.9" style="font-family:Times New Roman;font-size:14.00;">value = [ 0. &#160;0. &#160;3.]</text>
</g>
<!-- 12&#45;&gt;25 -->
<g id="edge18" class="edge"><title>12&#45;&gt;25</title>
<path style="fill:none;stroke:black;" d="M715,-268C691,-251 665,-233 642,-216"/>
<polygon style="fill:black;stroke:black;" points="644.1,-213.2 634,-210 639.9,-218.8 644.1,-213.2"/>
</g>
<!-- 26 -->
<g id="node19" class="node"><title>26</title>
<ellipse style="fill:none;stroke:black;" cx="902" cy="-174" rx="197.99" ry="53.7401"/>
<text text-anchor="middle" x="902" y="-195.4" style="font-family:Times New Roman;font-size:14.00;">sepal length (cm) &lt;= 6.94999980927</text>
<text text-anchor="middle" x="902" y="-178.4" style="font-family:Times New Roman;font-size:14.00;">error = 0.444444447756</text>
<text text-anchor="middle" x="902" y="-161.4" style="font-family:Times New Roman;font-size:14.00;">samples = 3</text>
<text text-anchor="middle" x="902" y="-144.4" style="font-family:Times New Roman;font-size:14.00;">value = [ 0. &#160;2. &#160;1.]</text>
</g>
<!-- 12&#45;&gt;26 -->
<g id="edge20" class="edge"><title>12&#45;&gt;26</title>
<path style="fill:none;stroke:black;" d="M828,-266C836,-256 844,-245 853,-235"/>
<polygon style="fill:black;stroke:black;" points="855.8,-237.1 859,-227 850.2,-232.9 855.8,-237.1"/>
</g>
<!-- 53 -->
<g id="node22" class="node"><title>53</title>
<ellipse style="fill:none;stroke:black;" cx="789" cy="-42" rx="104.151" ry="41.7193"/>
<text text-anchor="middle" x="789" y="-54.9" style="font-family:Times New Roman;font-size:14.00;">error = 0.0</text>
<text text-anchor="middle" x="789" y="-37.9" style="font-family:Times New Roman;font-size:14.00;">samples = 2</text>
<text text-anchor="middle" x="789" y="-20.9" style="font-family:Times New Roman;font-size:14.00;">value = [ 0. &#160;2. &#160;0.]</text>
</g>
<!-- 26&#45;&gt;53 -->
<g id="edge22" class="edge"><title>26&#45;&gt;53</title>
<path style="fill:none;stroke:black;" d="M857,-122C848,-112 839,-100 830,-90"/>
<polygon style="fill:black;stroke:black;" points="832.219,-87.221 823,-82 826.951,-91.8306 832.219,-87.221"/>
</g>
<!-- 54 -->
<g id="node23" class="node"><title>54</title>
<ellipse style="fill:none;stroke:black;" cx="1015" cy="-42" rx="104.151" ry="41.7193"/>
<text text-anchor="middle" x="1015" y="-54.9" style="font-family:Times New Roman;font-size:14.00;">error = 0.0</text>
<text text-anchor="middle" x="1015" y="-37.9" style="font-family:Times New Roman;font-size:14.00;">samples = 1</text>
<text text-anchor="middle" x="1015" y="-20.9" style="font-family:Times New Roman;font-size:14.00;">value = [ 0. &#160;0. &#160;1.]</text>
</g>
<!-- 26&#45;&gt;54 -->
<g id="edge24" class="edge"><title>26&#45;&gt;54</title>
<path style="fill:none;stroke:black;" d="M947,-122C956,-112 965,-100 974,-90"/>
<polygon style="fill:black;stroke:black;" points="977.049,-91.8306 981,-82 971.781,-87.221 977.049,-91.8306"/>
</g>
<!-- 27 -->
<g id="node30" class="node"><title>27</title>
<ellipse style="fill:none;stroke:black;" cx="1222" cy="-174" rx="104.151" ry="41.7193"/>
<text text-anchor="middle" x="1222" y="-186.9" style="font-family:Times New Roman;font-size:14.00;">error = 0.0</text>
<text text-anchor="middle" x="1222" y="-169.9" style="font-family:Times New Roman;font-size:14.00;">samples = 1</text>
<text text-anchor="middle" x="1222" y="-152.9" style="font-family:Times New Roman;font-size:14.00;">value = [ 0. &#160;1. &#160;0.]</text>
</g>
<!-- 13&#45;&gt;27 -->
<g id="edge30" class="edge"><title>13&#45;&gt;27</title>
<path style="fill:none;stroke:black;" d="M1222,-264C1222,-252 1222,-238 1222,-226"/>
<polygon style="fill:black;stroke:black;" points="1225.5,-226 1222,-216 1218.5,-226 1225.5,-226"/>
</g>
<!-- 28 -->
<g id="node31" class="node"><title>28</title>
<ellipse style="fill:none;stroke:black;" cx="1448" cy="-174" rx="104.151" ry="41.7193"/>
<text text-anchor="middle" x="1448" y="-186.9" style="font-family:Times New Roman;font-size:14.00;">error = 0.0</text>
<text text-anchor="middle" x="1448" y="-169.9" style="font-family:Times New Roman;font-size:14.00;">samples = 2</text>
<text text-anchor="middle" x="1448" y="-152.9" style="font-family:Times New Roman;font-size:14.00;">value = [ 0. &#160;0. &#160;2.]</text>
</g>
<!-- 13&#45;&gt;28 -->
<g id="edge32" class="edge"><title>13&#45;&gt;28</title>
<path style="fill:none;stroke:black;" d="M1299,-269C1327,-251 1358,-231 1384,-215"/>
<polygon style="fill:black;stroke:black;" points="1386.62,-217.459 1393,-209 1382.74,-211.635 1386.62,-217.459"/>
</g>
</g>
</svg>
