<?xml version="1.0" encoding="UTF-8" standalone="no"?>
<!DOCTYPE svg PUBLIC "-//W3C//DTD SVG 1.1//EN"
 "http://www.w3.org/Graphics/SVG/1.1/DTD/svg11.dtd">
<!-- Generated by graphviz version 2.26.3 (20100126.1600)
 -->
<!-- Title: Tree Pages: 1 -->
<svg width="1022pt" height="650pt"
 viewBox="0.00 0.00 1022.00 650.00" xmlns="http://www.w3.org/2000/svg" xmlns:xlink="http://www.w3.org/1999/xlink">
<g id="graph1" class="graph" transform="scale(1 1) rotate(0) translate(4 646)">
<title>Tree</title>
<polygon fill="white" stroke="white" points="-4,5 -4,-646 1019,-646 1019,5 -4,5"/>
<!-- 0 -->
<g id="node1" class="node"><title>0</title>
<polygon fill="none" stroke="black" points="625,-642 449,-642 449,-562 625,-562 625,-642"/>
<text text-anchor="middle" x="537" y="-625.4" font-family="Times Roman,serif" font-size="14.00">X[2] &lt;= 2.4500</text>
<text text-anchor="middle" x="537" y="-607.4" font-family="Times Roman,serif" font-size="14.00">error = 0.666667</text>
<text text-anchor="middle" x="537" y="-589.4" font-family="Times Roman,serif" font-size="14.00">samples = 150</text>
<text text-anchor="middle" x="537" y="-571.4" font-family="Times Roman,serif" font-size="14.00">value = [ 50. &#160;50. &#160;50.]</text>
</g>
<!-- 1 -->
<g id="node2" class="node"><title>1</title>
<polygon fill="none" stroke="black" points="527,-517 361,-517 361,-455 527,-455 527,-517"/>
<text text-anchor="middle" x="444" y="-500.4" font-family="Times Roman,serif" font-size="14.00">error = 0.0</text>
<text text-anchor="middle" x="444" y="-482.4" font-family="Times Roman,serif" font-size="14.00">samples = 50</text>
<text text-anchor="middle" x="444" y="-464.4" font-family="Times Roman,serif" font-size="14.00">value = [ 50. &#160;&#160;0. &#160;&#160;0.]</text>
</g>
<!-- 0&#45;&gt;1 -->
<g id="edge2" class="edge"><title>0&#45;&gt;1</title>
<path fill="none" stroke="black" d="M504.734,-561.754C495.186,-549.845 484.752,-536.83 475.268,-525.001"/>
<polygon fill="black" stroke="black" points="477.862,-522.642 468.876,-517.029 472.401,-527.02 477.862,-522.642"/>
</g>
<!-- 2 -->
<g id="node4" class="node"><title>2</title>
<polygon fill="none" stroke="black" points="715,-526 545,-526 545,-446 715,-446 715,-526"/>
<text text-anchor="middle" x="630" y="-509.4" font-family="Times Roman,serif" font-size="14.00">X[3] &lt;= 1.7500</text>
<text text-anchor="middle" x="630" y="-491.4" font-family="Times Roman,serif" font-size="14.00">error = 0.5</text>
<text text-anchor="middle" x="630" y="-473.4" font-family="Times Roman,serif" font-size="14.00">samples = 100</text>
<text text-anchor="middle" x="630" y="-455.4" font-family="Times Roman,serif" font-size="14.00">value = [ &#160;0. &#160;50. &#160;50.]</text>
</g>
<!-- 0&#45;&gt;2 -->
<g id="edge4" class="edge"><title>0&#45;&gt;2</title>
<path fill="none" stroke="black" d="M569.266,-561.754C576.407,-552.847 584.044,-543.321 591.409,-534.135"/>
<polygon fill="black" stroke="black" points="594.267,-536.166 597.791,-526.174 588.805,-531.787 594.267,-536.166"/>
</g>
<!-- 3 -->
<g id="node6" class="node"><title>3</title>
<polygon fill="none" stroke="black" points="586,-410 420,-410 420,-330 586,-330 586,-410"/>
<text text-anchor="middle" x="503" y="-393.4" font-family="Times Roman,serif" font-size="14.00">X[2] &lt;= 4.9500</text>
<text text-anchor="middle" x="503" y="-375.4" font-family="Times Roman,serif" font-size="14.00">error = 0.168038</text>
<text text-anchor="middle" x="503" y="-357.4" font-family="Times Roman,serif" font-size="14.00">samples = 54</text>
<text text-anchor="middle" x="503" y="-339.4" font-family="Times Roman,serif" font-size="14.00">value = [ &#160;0. &#160;49. &#160;&#160;5.]</text>
</g>
<!-- 2&#45;&gt;3 -->
<g id="edge6" class="edge"><title>2&#45;&gt;3</title>
<path fill="none" stroke="black" d="M585.938,-445.754C575.792,-436.487 564.913,-426.55 554.483,-417.023"/>
<polygon fill="black" stroke="black" points="556.728,-414.334 546.984,-410.174 552.007,-419.503 556.728,-414.334"/>
</g>
<!-- 12 -->
<g id="node24" class="node"><title>12</title>
<polygon fill="none" stroke="black" points="839,-410 673,-410 673,-330 839,-330 839,-410"/>
<text text-anchor="middle" x="756" y="-393.4" font-family="Times Roman,serif" font-size="14.00">X[2] &lt;= 4.8500</text>
<text text-anchor="middle" x="756" y="-375.4" font-family="Times Roman,serif" font-size="14.00">error = 0.0425331</text>
<text text-anchor="middle" x="756" y="-357.4" font-family="Times Roman,serif" font-size="14.00">samples = 46</text>
<text text-anchor="middle" x="756" y="-339.4" font-family="Times Roman,serif" font-size="14.00">value = [ &#160;0. &#160;&#160;1. &#160;45.]</text>
</g>
<!-- 2&#45;&gt;12 -->
<g id="edge24" class="edge"><title>2&#45;&gt;12</title>
<path fill="none" stroke="black" d="M673.715,-445.754C683.781,-436.487 694.575,-426.55 704.923,-417.023"/>
<polygon fill="black" stroke="black" points="707.376,-419.523 712.362,-410.174 702.635,-414.373 707.376,-419.523"/>
</g>
<!-- 4 -->
<g id="node8" class="node"><title>4</title>
<polygon fill="none" stroke="black" points="341,-294 175,-294 175,-214 341,-214 341,-294"/>
<text text-anchor="middle" x="258" y="-277.4" font-family="Times Roman,serif" font-size="14.00">X[3] &lt;= 1.6500</text>
<text text-anchor="middle" x="258" y="-259.4" font-family="Times Roman,serif" font-size="14.00">error = 0.0407986</text>
<text text-anchor="middle" x="258" y="-241.4" font-family="Times Roman,serif" font-size="14.00">samples = 48</text>
<text text-anchor="middle" x="258" y="-223.4" font-family="Times Roman,serif" font-size="14.00">value = [ &#160;0. &#160;47. &#160;&#160;1.]</text>
</g>
<!-- 3&#45;&gt;4 -->
<g id="edge8" class="edge"><title>3&#45;&gt;4</title>
<path fill="none" stroke="black" d="M419.712,-330.566C397.4,-320.002 373.148,-308.519 350.376,-297.737"/>
<polygon fill="black" stroke="black" points="351.593,-294.441 341.057,-293.325 348.598,-300.768 351.593,-294.441"/>
</g>
<!-- 7 -->
<g id="node14" class="node"><title>7</title>
<polygon fill="none" stroke="black" points="577,-294 429,-294 429,-214 577,-214 577,-294"/>
<text text-anchor="middle" x="503" y="-277.4" font-family="Times Roman,serif" font-size="14.00">X[3] &lt;= 1.5500</text>
<text text-anchor="middle" x="503" y="-259.4" font-family="Times Roman,serif" font-size="14.00">error = 0.444444</text>
<text text-anchor="middle" x="503" y="-241.4" font-family="Times Roman,serif" font-size="14.00">samples = 6</text>
<text text-anchor="middle" x="503" y="-223.4" font-family="Times Roman,serif" font-size="14.00">value = [ 0. &#160;2. &#160;4.]</text>
</g>
<!-- 3&#45;&gt;7 -->
<g id="edge14" class="edge"><title>3&#45;&gt;7</title>
<path fill="none" stroke="black" d="M503,-329.754C503,-321.567 503,-312.856 503,-304.368"/>
<polygon fill="black" stroke="black" points="506.5,-304.174 503,-294.174 499.5,-304.175 506.5,-304.174"/>
</g>
<!-- 5 -->
<g id="node10" class="node"><title>5</title>
<polygon fill="none" stroke="black" points="166,-169 8.52651e-14,-169 0,-107 166,-107 166,-169"/>
<text text-anchor="middle" x="83" y="-152.4" font-family="Times Roman,serif" font-size="14.00">error = 0.0</text>
<text text-anchor="middle" x="83" y="-134.4" font-family="Times Roman,serif" font-size="14.00">samples = 47</text>
<text text-anchor="middle" x="83" y="-116.4" font-family="Times Roman,serif" font-size="14.00">value = [ &#160;0. &#160;47. &#160;&#160;0.]</text>
</g>
<!-- 4&#45;&gt;5 -->
<g id="edge10" class="edge"><title>4&#45;&gt;5</title>
<path fill="none" stroke="black" d="M197.285,-213.754C178.108,-201.043 157.033,-187.073 138.259,-174.629"/>
<polygon fill="black" stroke="black" points="140.079,-171.636 129.811,-169.029 136.212,-177.471 140.079,-171.636"/>
</g>
<!-- 6 -->
<g id="node12" class="node"><title>6</title>
<polygon fill="none" stroke="black" points="332,-169 184,-169 184,-107 332,-107 332,-169"/>
<text text-anchor="middle" x="258" y="-152.4" font-family="Times Roman,serif" font-size="14.00">error = 0.0</text>
<text text-anchor="middle" x="258" y="-134.4" font-family="Times Roman,serif" font-size="14.00">samples = 1</text>
<text text-anchor="middle" x="258" y="-116.4" font-family="Times Roman,serif" font-size="14.00">value = [ 0. &#160;0. &#160;1.]</text>
</g>
<!-- 4&#45;&gt;6 -->
<g id="edge12" class="edge"><title>4&#45;&gt;6</title>
<path fill="none" stroke="black" d="M258,-213.754C258,-202.532 258,-190.328 258,-179.06"/>
<polygon fill="black" stroke="black" points="261.5,-179.029 258,-169.029 254.5,-179.029 261.5,-179.029"/>
</g>
<!-- 8 -->
<g id="node16" class="node"><title>8</title>
<polygon fill="none" stroke="black" points="498,-169 350,-169 350,-107 498,-107 498,-169"/>
<text text-anchor="middle" x="424" y="-152.4" font-family="Times Roman,serif" font-size="14.00">error = 0.0</text>
<text text-anchor="middle" x="424" y="-134.4" font-family="Times Roman,serif" font-size="14.00">samples = 3</text>
<text text-anchor="middle" x="424" y="-116.4" font-family="Times Roman,serif" font-size="14.00">value = [ 0. &#160;0. &#160;3.]</text>
</g>
<!-- 7&#45;&gt;8 -->
<g id="edge16" class="edge"><title>7&#45;&gt;8</title>
<path fill="none" stroke="black" d="M475.591,-213.754C467.559,-201.959 458.787,-189.08 450.793,-177.342"/>
<polygon fill="black" stroke="black" points="453.653,-175.324 445.132,-169.029 447.868,-179.264 453.653,-175.324"/>
</g>
<!-- 9 -->
<g id="node18" class="node"><title>9</title>
<polygon fill="none" stroke="black" points="664,-178 516,-178 516,-98 664,-98 664,-178"/>
<text text-anchor="middle" x="590" y="-161.4" font-family="Times Roman,serif" font-size="14.00">X[0] &lt;= 6.9500</text>
<text text-anchor="middle" x="590" y="-143.4" font-family="Times Roman,serif" font-size="14.00">error = 0.444444</text>
<text text-anchor="middle" x="590" y="-125.4" font-family="Times Roman,serif" font-size="14.00">samples = 3</text>
<text text-anchor="middle" x="590" y="-107.4" font-family="Times Roman,serif" font-size="14.00">value = [ 0. &#160;2. &#160;1.]</text>
</g>
<!-- 7&#45;&gt;9 -->
<g id="edge18" class="edge"><title>7&#45;&gt;9</title>
<path fill="none" stroke="black" d="M533.184,-213.754C539.797,-204.937 546.865,-195.513 553.69,-186.414"/>
<polygon fill="black" stroke="black" points="556.669,-188.275 559.869,-178.174 551.069,-184.074 556.669,-188.275"/>
</g>
<!-- 10 -->
<g id="node20" class="node"><title>10</title>
<polygon fill="none" stroke="black" points="581,-62 433,-62 433,-3.19744e-14 581,-7.10543e-15 581,-62"/>
<text text-anchor="middle" x="507" y="-45.4" font-family="Times Roman,serif" font-size="14.00">error = 0.0</text>
<text text-anchor="middle" x="507" y="-27.4" font-family="Times Roman,serif" font-size="14.00">samples = 2</text>
<text text-anchor="middle" x="507" y="-9.4" font-family="Times Roman,serif" font-size="14.00">value = [ 0. &#160;2. &#160;0.]</text>
</g>
<!-- 9&#45;&gt;10 -->
<g id="edge20" class="edge"><title>9&#45;&gt;10</title>
<path fill="none" stroke="black" d="M558.858,-97.8527C551.814,-88.7724 544.345,-79.1438 537.335,-70.1071"/>
<polygon fill="black" stroke="black" points="539.947,-67.7635 531.052,-62.0072 534.416,-72.0539 539.947,-67.7635"/>
</g>
<!-- 11 -->
<g id="node22" class="node"><title>11</title>
<polygon fill="none" stroke="black" points="747,-62 599,-62 599,-3.19744e-14 747,-7.10543e-15 747,-62"/>
<text text-anchor="middle" x="673" y="-45.4" font-family="Times Roman,serif" font-size="14.00">error = 0.0</text>
<text text-anchor="middle" x="673" y="-27.4" font-family="Times Roman,serif" font-size="14.00">samples = 1</text>
<text text-anchor="middle" x="673" y="-9.4" font-family="Times Roman,serif" font-size="14.00">value = [ 0. &#160;0. &#160;1.]</text>
</g>
<!-- 9&#45;&gt;11 -->
<g id="edge22" class="edge"><title>9&#45;&gt;11</title>
<path fill="none" stroke="black" d="M621.142,-97.8527C628.186,-88.7724 635.655,-79.1438 642.665,-70.1071"/>
<polygon fill="black" stroke="black" points="645.584,-72.0539 648.948,-62.0072 640.053,-67.7635 645.584,-72.0539"/>
</g>
<!-- 13 -->
<g id="node26" class="node"><title>13</title>
<polygon fill="none" stroke="black" points="830,-294 682,-294 682,-214 830,-214 830,-294"/>
<text text-anchor="middle" x="756" y="-277.4" font-family="Times Roman,serif" font-size="14.00">X[0] &lt;= 5.9500</text>
<text text-anchor="middle" x="756" y="-259.4" font-family="Times Roman,serif" font-size="14.00">error = 0.444444</text>
<text text-anchor="middle" x="756" y="-241.4" font-family="Times Roman,serif" font-size="14.00">samples = 3</text>
<text text-anchor="middle" x="756" y="-223.4" font-family="Times Roman,serif" font-size="14.00">value = [ 0. &#160;1. &#160;2.]</text>
</g>
<!-- 12&#45;&gt;13 -->
<g id="edge26" class="edge"><title>12&#45;&gt;13</title>
<path fill="none" stroke="black" d="M756,-329.754C756,-321.567 756,-312.856 756,-304.368"/>
<polygon fill="black" stroke="black" points="759.5,-304.174 756,-294.174 752.5,-304.175 759.5,-304.174"/>
</g>
<!-- 16 -->
<g id="node32" class="node"><title>16</title>
<polygon fill="none" stroke="black" points="1014,-285 848,-285 848,-223 1014,-223 1014,-285"/>
<text text-anchor="middle" x="931" y="-268.4" font-family="Times Roman,serif" font-size="14.00">error = 0.0</text>
<text text-anchor="middle" x="931" y="-250.4" font-family="Times Roman,serif" font-size="14.00">samples = 43</text>
<text text-anchor="middle" x="931" y="-232.4" font-family="Times Roman,serif" font-size="14.00">value = [ &#160;0. &#160;&#160;0. &#160;43.]</text>
</g>
<!-- 12&#45;&gt;16 -->
<g id="edge32" class="edge"><title>12&#45;&gt;16</title>
<path fill="none" stroke="black" d="M816.715,-329.754C835.892,-317.043 856.967,-303.073 875.741,-290.629"/>
<polygon fill="black" stroke="black" points="877.788,-293.471 884.189,-285.029 873.921,-287.636 877.788,-293.471"/>
</g>
<!-- 14 -->
<g id="node28" class="node"><title>14</title>
<polygon fill="none" stroke="black" points="830,-169 682,-169 682,-107 830,-107 830,-169"/>
<text text-anchor="middle" x="756" y="-152.4" font-family="Times Roman,serif" font-size="14.00">error = 0.0</text>
<text text-anchor="middle" x="756" y="-134.4" font-family="Times Roman,serif" font-size="14.00">samples = 1</text>
<text text-anchor="middle" x="756" y="-116.4" font-family="Times Roman,serif" font-size="14.00">value = [ 0. &#160;1. &#160;0.]</text>
</g>
<!-- 13&#45;&gt;14 -->
<g id="edge28" class="edge"><title>13&#45;&gt;14</title>
<path fill="none" stroke="black" d="M756,-213.754C756,-202.532 756,-190.328 756,-179.06"/>
<polygon fill="black" stroke="black" points="759.5,-179.029 756,-169.029 752.5,-179.029 759.5,-179.029"/>
</g>
<!-- 15 -->
<g id="node30" class="node"><title>15</title>
<polygon fill="none" stroke="black" points="996,-169 848,-169 848,-107 996,-107 996,-169"/>
<text text-anchor="middle" x="922" y="-152.4" font-family="Times Roman,serif" font-size="14.00">error = 0.0</text>
<text text-anchor="middle" x="922" y="-134.4" font-family="Times Roman,serif" font-size="14.00">samples = 2</text>
<text text-anchor="middle" x="922" y="-116.4" font-family="Times Roman,serif" font-size="14.00">value = [ 0. &#160;0. &#160;2.]</text>
</g>
<!-- 13&#45;&gt;15 -->
<g id="edge30" class="edge"><title>13&#45;&gt;15</title>
<path fill="none" stroke="black" d="M813.593,-213.754C831.619,-201.158 851.415,-187.325 869.101,-174.966"/>
<polygon fill="black" stroke="black" points="871.405,-177.626 877.597,-169.029 867.395,-171.888 871.405,-177.626"/>
</g>
</g>
</svg>
