<svg width="1310" height="370" viewBox="0 0 131 37" xmlns="http://www.w3.org/2000/svg"><defs><path d="M29.323 6.14c2.678 3.888 2.68 9.02 1.274 13.58q.278 1.221.278 2.657.002 2.458-.822 4.297c-.53 1.221-1.296 2.17-2.293 2.83-.977.666-2.123.996-3.45.996a6.6 6.6 0 0 1-1.306-.126c-.929.657-2.103 1.222-3.423 1.683v3.988q0 .309-.309.31h-1.769q-.308-.001-.308-.31v-3.303c-5.721 1.333-12.831.978-15.346-1.634-2.41-4.46-2.997-16.902 2.524-23.6C9.098.39 22.706-2.693 29.323 6.138m101.642 21.504v2.552q0 .309-.308.31h-2.504q-.301-.001-.303-.31v-2.552q0-.315.303-.315h2.504q.308 0 .308.315M90.248 14.939c.941.456 1.66 1.09 2.17 1.898.53.807.797 1.734.797 2.772v7.595c0 .702.025 1.231.087 1.588q.123.494.432 1.09l.057.152c0 .105-.088.157-.273.157h-2.38q-.309-.001-.309-.31v-1.619q-1.59 2.24-4.668 2.238-2.322 0-3.974-1.273-1.612-1.276-1.614-3.674c0-1.662.586-2.935 1.769-3.826q1.773-1.375 4.488-1.374c1.341 0 2.678.22 4 .656v-.781q.001-1.8-.947-2.736-.916-.934-2.745-.933-2.505-.002-3.424 2.364c-.056.188-.2.277-.426.277h-1.954c-.144 0-.21-.057-.21-.183q0-.188.03-.315c.324-1.242 1.008-2.29 2.041-3.144 1.038-.87 2.355-1.305 3.943-1.305q1.736.001 3.11.686m-32.609.341c1.136.666 2.026 1.62 2.653 2.862q.98 1.838.982 4.235-.002 2.395-.982 4.266c-.627 1.226-1.517 2.18-2.653 2.861-1.12.666-2.39.996-3.82.996q-2.135.002-3.845-.996-1.68-1.021-2.658-2.861c-.627-1.248-.946-2.668-.946-4.266 0-1.599.319-3.009.946-4.235q.978-1.863 2.658-2.862 1.71-1.029 3.845-1.027c1.43 0 2.7.34 3.82 1.027m9.264-6.567v7.626c.545-.624 1.24-1.122 2.072-1.494a6.2 6.2 0 0 1 2.658-.592q1.983-.001 3.45.996 1.497.997 2.292 2.835.824 1.832.823 4.293.001 2.458-.823 4.297c-.53 1.221-1.295 2.17-2.292 2.83q-1.467.998-3.45.996c-1.018 0-1.943-.183-2.776-.56-.818-.373-1.465-.881-1.954-1.526v1.468q0 .308-.308.31h-1.769c-.205 0-.308-.106-.308-.31V8.712q0-.314.308-.314h1.769q.308 0 .308.315m32.527 0v7.626q.826-.936 2.077-1.494a6.2 6.2 0 0 1 2.658-.592q1.983-.001 3.45.996 1.497.997 2.293 2.835.823 1.832.822 4.293.001 2.458-.822 4.297c-.53 1.221-1.296 2.17-2.293 2.83q-1.467.998-3.45.996c-1.018 0-1.943-.183-2.776-.56-.817-.373-1.465-.881-1.959-1.526v1.468c0 .204-.097.31-.303.31h-1.769c-.205 0-.308-.106-.308-.31V8.712q0-.314.308-.314h1.769c.206 0 .303.105.303.315m-55.83 6.29q1.102.712 1.711 1.99a.5.5 0 0 1 .062.216q0 .158-.185.314l-1.466.996a.55.55 0 0 1-.272.094q-.154 0-.278-.22-.67-1.093-1.31-1.462c-.427-.252-.998-.372-1.712-.372-1.121 0-2.016.555-2.69 1.677-.647 1.1-.976 2.437-.976 4.015v7.63c0 .205-.098.31-.303.31h-1.769q-.308-.001-.308-.31V14.877q0-.315.308-.314h1.769c.205 0 .303.105.303.314v1.714a5.7 5.7 0 0 1 1.897-1.682 5.3 5.3 0 0 1 2.591-.655c1.039 0 1.918.251 2.627.75m75.17-6.29V27.89h4.458c.2 0 .303.1.303.31v1.682q-.001.308-.303.31H112.05c-.205 0-.303-.106-.303-.31v-1.683c0-.21.098-.309.303-.309h4.334V10.705h-3.814q-.309-.001-.309-.31V8.713q0-.315.309-.315h5.891q.309 0 .309.315m-67.516 8.59c-.75.498-1.342 1.195-1.768 2.086q-.611 1.305-.612 2.988 0 1.681.612 3.018c.426.876 1.017 1.557 1.768 2.055q1.133.749 2.565.75 1.438-.002 2.566-.75c.755-.498 1.336-1.18 1.743-2.055q.64-1.336.642-3.018-.002-1.683-.642-2.988c-.407-.89-.988-1.588-1.743-2.086-.75-.498-1.61-.744-2.566-.744q-1.433-.002-2.565.744m16.595.902q-1.194 1.618-1.193 4.172-.001 2.553 1.193 4.203 1.189 1.62 3.296 1.62t3.326-1.652q1.224-1.65 1.223-4.171.001-2.523-1.223-4.172c-.813-1.101-1.923-1.646-3.326-1.646s-2.504.545-3.296 1.646m16.297 5.199q-1.071.748-1.07 2.149-.001 1.211.854 1.928.885.717 2.473.718c.776 0 1.496-.188 2.17-.56a4.3 4.3 0 0 0 1.645-1.683c.41-.744.611-1.63.611-2.647-1.239-.435-2.565-.65-3.969-.65q-1.65-.001-2.714.745m16.235-5.2q-1.194 1.62-1.192 4.173-.002 2.553 1.192 4.203 1.189 1.62 3.296 1.62t3.326-1.652q1.224-1.65 1.223-4.171.001-2.523-1.223-4.172c-.812-1.101-1.923-1.646-3.326-1.646s-2.504.545-3.296 1.646" id="a"/></defs><g fill="none" fill-rule="evenodd"><path d="M4.373 7.507C-1.148 14.206-.562 26.648 1.85 31.108c3.8 3.947 18.091 2.741 22.23-1.656 5.64-3.732 10.4-15.828 5.244-23.313C22.706-2.69 9.098.39 4.373 7.507" fill="#ff7900"/><path d="M17.504 36.355q-.309-.001-.309-.31V14.876q0-.315.309-.314h1.768q.308 0 .308.314v1.463c.489-.645 1.137-1.153 1.954-1.525q1.25-.56 2.776-.561c1.327 0 2.473.33 3.45.996q1.497.997 2.293 2.835.823 1.832.822 4.293.002 2.458-.822 4.297c-.53 1.221-1.296 2.17-2.293 2.83-.977.666-2.123.996-3.45.996-.935 0-1.82-.183-2.653-.56-.838-.394-1.526-.902-2.077-1.526v7.631q0 .309-.308.31zm6.318-8.156q2.105 0 3.331-1.65 1.218-1.65 1.219-4.172 0-2.523-1.219-4.172c-.817-1.101-1.928-1.646-3.331-1.646s-2.504.545-3.296 1.646q-1.193 1.618-1.192 4.172-.001 2.553 1.192 4.203 1.189 1.62 3.296 1.62" fill="#040524" fill-rule="nonzero"/><path d="M34.412 30.191q-.308-.001-.308-.31V14.877q0-.314.308-.314h1.769c.205 0 .303.105.303.314v1.714a5.7 5.7 0 0 1 1.897-1.682 5.3 5.3 0 0 1 2.591-.655c1.039 0 1.918.251 2.627.75q1.103.712 1.712 1.99a.5.5 0 0 1 .062.216q0 .158-.185.314l-1.465.996a.55.55 0 0 1-.273.094q-.154 0-.278-.22-.67-1.093-1.31-1.462c-.427-.252-.998-.372-1.712-.372-1.121 0-2.016.555-2.69 1.677-.647 1.1-.976 2.437-.976 4.015v7.63c0 .205-.098.31-.303.31z" fill="#040524"/><path d="M53.82 30.5q-2.136.002-3.846-.996-1.68-1.021-2.658-2.861c-.627-1.248-.946-2.668-.946-4.266 0-1.599.319-3.009.946-4.235q.978-1.863 2.658-2.862 1.71-1.029 3.845-1.027c1.43 0 2.7.34 3.82 1.027 1.136.666 2.026 1.62 2.653 2.862q.98 1.838.982 4.235-.002 2.395-.982 4.266c-.627 1.226-1.517 2.18-2.653 2.861-1.12.666-2.39.996-3.82.996m0-2.3c.956 0 1.814-.252 2.565-.75.755-.498 1.336-1.18 1.743-2.055q.64-1.336.642-3.018-.002-1.683-.642-2.988c-.407-.89-.988-1.588-1.743-2.086-.75-.498-1.61-.744-2.566-.744q-1.433-.002-2.565.744c-.75.498-1.342 1.195-1.768 2.086q-.611 1.305-.612 2.988 0 1.681.612 3.018c.426.876 1.017 1.557 1.768 2.055q1.133.749 2.565.75M71.633 30.5c-1.018 0-1.943-.183-2.776-.56-.818-.373-1.465-.881-1.954-1.526v1.468q0 .308-.308.309h-1.769q-.308-.001-.308-.31V8.714q0-.315.308-.315h1.769q.308 0 .308.315v7.626c.545-.624 1.24-1.122 2.072-1.494a6.2 6.2 0 0 1 2.658-.592q1.983-.002 3.45.996 1.497.997 2.292 2.835.824 1.832.823 4.293.001 2.458-.823 4.297c-.53 1.221-1.295 2.17-2.292 2.83q-1.467.997-3.45.996m-.488-2.3q2.106 0 3.326-1.652 1.224-1.65 1.223-4.171.001-2.523-1.223-4.172c-.813-1.101-1.923-1.646-3.326-1.646s-2.504.545-3.296 1.646q-1.194 1.618-1.193 4.172-.001 2.553 1.193 4.203 1.189 1.62 3.296 1.62M86.161 30.5q-2.322 0-3.974-1.273-1.613-1.276-1.614-3.674c0-1.662.586-2.935 1.769-3.826q1.773-1.375 4.488-1.374c1.341 0 2.678.22 4 .656v-.781q.001-1.8-.947-2.736-.916-.934-2.745-.933-2.505-.002-3.424 2.364c-.056.188-.2.277-.426.277h-1.954c-.144 0-.21-.057-.21-.183q0-.188.03-.315c.324-1.242 1.008-2.29 2.041-3.144 1.038-.87 2.355-1.305 3.943-1.305q1.736.001 3.11.686c.941.456 1.661 1.09 2.17 1.898.53.807.797 1.734.797 2.772v7.595c0 .702.025 1.231.087 1.588q.123.493.432 1.09l.057.152c0 .105-.088.157-.273.157h-2.38q-.309-.001-.309-.31v-1.619q-1.59 2.24-4.668 2.238m.242-2.3c.776 0 1.496-.19 2.17-.561a4.3 4.3 0 0 0 1.645-1.683c.41-.744.611-1.63.611-2.647-1.239-.435-2.565-.65-3.968-.65q-1.65-.001-2.715.745-1.071.748-1.07 2.149 0 1.212.854 1.928.885.717 2.473.718M104.165 30.5c-1.018 0-1.943-.183-2.776-.56-.817-.373-1.465-.881-1.959-1.526v1.468c0 .204-.097.309-.303.309h-1.769q-.308-.001-.308-.31V8.714q0-.315.308-.315h1.769c.206 0 .303.105.303.315v7.626q.826-.936 2.077-1.494a6.2 6.2 0 0 1 2.658-.592q1.983-.002 3.45.996 1.497.997 2.293 2.835.824 1.832.822 4.293.001 2.458-.822 4.297c-.53 1.221-1.296 2.17-2.293 2.83q-1.467.997-3.45.996m-.488-2.3q2.106 0 3.326-1.652 1.224-1.65 1.223-4.171.001-2.523-1.223-4.172c-.812-1.101-1.923-1.646-3.326-1.646s-2.504.545-3.296 1.646q-1.194 1.618-1.192 4.172-.002 2.553 1.192 4.203 1.189 1.62 3.296 1.62" fill="#040524" fill-rule="nonzero"/><path d="M112.051 30.191c-.205 0-.303-.105-.303-.31V28.2c0-.21.098-.309.303-.309h4.334V10.704h-3.814q-.309 0-.309-.309V8.713q0-.315.309-.315h5.891q.309 0 .309.315V27.89h4.457c.2 0 .303.1.303.31v1.682q-.001.308-.303.309z" fill="#040524"/><path d="M10.27 17.927q-.302-.001-.303-.31v-2.552q.002-.315.303-.314h2.504q.308 0 .308.314v2.553q0 .308-.308.309zm0 12.212c-.2 0-.303-.1-.303-.31v-2.552c0-.21.103-.31.303-.31h2.504c.205 0 .308.1.308.31v2.552c0 .21-.103.31-.308.31z" fill="#040524" fill-rule="nonzero"/><path d="M128.153 30.506q-.302-.001-.303-.31v-2.552q0-.315.303-.315h2.504q.308 0 .308.315v2.552q0 .309-.308.31z" fill="#040524"/></g></svg>
