<?xml version="1.0" encoding="utf-8"?>
<!-- Generator: Adobe Illustrator 21.1.0, SVG Export Plug-In . SVG Version: 6.00 Build 0)  -->
<svg version="1.1" id="Artwork" xmlns="http://www.w3.org/2000/svg" xmlns:xlink="http://www.w3.org/1999/xlink" x="0px" y="0px"
	 viewBox="0 0 190.1 33" style="enable-background:new 0 0 190.1 33;" xml:space="preserve">
<style type="text/css">
	.st0{fill:#4B5168;}
	.st1{fill:#F6914D;}
</style>
<g>
	<path class="st0" d="M33.4,27.7V5.3c0-2.3,0-2.3,2.4-2.3c2.4,0,2.4,0,2.4,2.3v22.4c0,2.3,0,2.3-2.4,2.3
		C33.4,29.9,33.4,29.9,33.4,27.7z"/>
	<path class="st0" d="M45,26.4V6.6c0-3.6,0-3.6,3.6-3.6h5.8c7.8,0,12.5,3.9,13,10.2c0.2,2.2,0.2,3.4,0,5.5
		c-0.5,6.3-5.3,11.2-13,11.2h-5.8C45,29.9,45,29.9,45,26.4z M54.3,25.4c5.3,0,8-3,8.3-7.1c0.1-1.8,0.1-2.8,0-4.6
		c-0.3-4.2-3-6.1-8.3-6.1h-4.5v17.8H54.3z"/>
	<path class="st0" d="M73.8,26.4V6.6c0-3.6,0-3.6,3.6-3.6h13.5c2.3,0,2.3,0,2.3,2.2c0,2.2,0,2.2-2.3,2.2H78.6v6.9h11
		c2.2,0,2.2,0,2.2,2.1c0,2.1,0,2.1-2.2,2.1h-11v6.9h12.3c2.3,0,2.3,0,2.3,2.2c0,2.3,0,2.3-2.3,2.3H77.4
		C73.8,29.9,73.8,29.9,73.8,26.4z"/>
	<path class="st0" d="M100,26.4v-21c0-2.3,0-2.3,2.4-2.3c2.4,0,2.4,0,2.4,2.3v20.2h11.9c2.4,0,2.4,0,2.4,2.2c0,2.2,0,2.2-2.4,2.2
		h-13.1C100,29.9,100,29.9,100,26.4z"/>
	<path class="st0" d="M125.8,27.7V5.3c0-2.3,0-2.3,2.4-2.3c2.4,0,2.4,0,2.4,2.3v22.4c0,2.3,0,2.3-2.4,2.3
		C125.8,29.9,125.8,29.9,125.8,27.7z"/>
	<path class="st0" d="M137.4,27.7V6.6c0-3.6,0-3.6,3.6-3.6h13.5c2.3,0,2.3,0,2.3,2.2c0,2.2,0,2.2-2.3,2.2h-12.2v7.2h11.3
		c2.3,0,2.3,0,2.3,2.2c0,2.2,0,2.2-2.3,2.2h-11.3v8.6c0,2.3,0,2.3-2.4,2.3S137.4,29.9,137.4,27.7z"/>
	<path class="st0" d="M24.2,3.1H5.5c-2.4,0-2.4,0-2.4,2.2c0,2.2,0,2.2,2.4,2.2h7v4.7v3.2l4.8-3.7v-1.1V7.5h7c2.4,0,2.4,0,2.4-2.2
		C26.6,3.1,26.6,3.1,24.2,3.1z"/>
	<path class="st1" d="M12.5,20v7.6c0,2.3,0,2.3,2.4,2.3c2.4,0,2.4,0,2.4-2.3V16.3L12.5,20z"/>
	<g>
		<path class="st0" d="M165.9,3.1h18.7c2.4,0,2.4,0,2.4,2.2c0,2.2,0,2.2-2.4,2.2h-7v4.7v3.2l-4.8-3.7v-1.1V7.5h-7
			c-2.4,0-2.4,0-2.4-2.2C163.5,3.1,163.5,3.1,165.9,3.1z"/>
		<path class="st1" d="M177.6,20v7.6c0,2.3,0,2.3-2.4,2.3c-2.4,0-2.4,0-2.4-2.3V16.3L177.6,20z"/>
	</g>
</g>
</svg>
