<?xml version="1.0" encoding="UTF-8" standalone="no"?>
<!-- Created with Inkscape (http://www.inkscape.org/) -->

<svg
   xmlns:dc="http://purl.org/dc/elements/1.1/"
   xmlns:cc="http://creativecommons.org/ns#"
   xmlns:rdf="http://www.w3.org/1999/02/22-rdf-syntax-ns#"
   xmlns:svg="http://www.w3.org/2000/svg"
   xmlns="http://www.w3.org/2000/svg"
   xmlns:xlink="http://www.w3.org/1999/xlink"
   xmlns:sodipodi="http://sodipodi.sourceforge.net/DTD/sodipodi-0.dtd"
   xmlns:inkscape="http://www.inkscape.org/namespaces/inkscape"
   width="400"
   height="280"
   viewBox="0 0 400 280"
   id="svg2"
   version="1.1"
   inkscape:version="0.91 r13725"
   sodipodi:docname="broken_stamp.svg"
   inkscape:export-filename="/home/oscar/dev/sphinx-gallery/sphinx_gallery/_static/broken_example.png"
   inkscape:export-xdpi="72"
   inkscape:export-ydpi="72">
  <defs
     id="defs4">
    <linearGradient
       inkscape:collect="always"
       id="linearGradient4205">
      <stop
         style="stop-color:#ff0000;stop-opacity:1;"
         offset="0"
         id="stop4207" />
      <stop
         style="stop-color:#ff0000;stop-opacity:0;"
         offset="1"
         id="stop4209" />
    </linearGradient>
    <linearGradient
       inkscape:collect="always"
       xlink:href="#linearGradient4205"
       id="linearGradient4211"
       x1="6.2696795"
       y1="116.88912"
       x2="578.68317"
       y2="216.17484"
       gradientUnits="userSpaceOnUse"
       gradientTransform="matrix(0.7714414,-0.4453919,0.4453919,0.7714414,-16.317178,892.32964)" />
  </defs>
  <sodipodi:namedview
     id="base"
     pagecolor="#ffffff"
     bordercolor="#666666"
     borderopacity="1.0"
     inkscape:pageopacity="0.0"
     inkscape:pageshadow="2"
     inkscape:zoom="2.0446043"
     inkscape:cx="165.48402"
     inkscape:cy="111.71285"
     inkscape:document-units="px"
     inkscape:current-layer="layer1"
     showgrid="false"
     units="px"
     inkscape:window-width="1920"
     inkscape:window-height="995"
     inkscape:window-x="0"
     inkscape:window-y="56"
     inkscape:window-maximized="1" />
  <metadata
     id="metadata7">
    <rdf:RDF>
      <cc:Work
         rdf:about="">
        <dc:format>image/svg+xml</dc:format>
        <dc:type
           rdf:resource="http://purl.org/dc/dcmitype/StillImage" />
        <dc:title></dc:title>
      </cc:Work>
    </rdf:RDF>
  </metadata>
  <g
     inkscape:label="Layer 1"
     inkscape:groupmode="layer"
     id="layer1"
     transform="translate(0,-772.36216)">
    <path
       style="color:#000000;font-style:normal;font-variant:normal;font-weight:normal;font-stretch:normal;font-size:medium;line-height:normal;font-family:sans-serif;text-indent:0;text-align:start;text-decoration:none;text-decoration-line:none;text-decoration-style:solid;text-decoration-color:#000000;letter-spacing:normal;word-spacing:normal;text-transform:none;direction:ltr;block-progression:tb;writing-mode:lr-tb;baseline-shift:baseline;text-anchor:start;white-space:normal;clip-rule:nonzero;display:inline;overflow:visible;visibility:visible;opacity:1;isolation:auto;mix-blend-mode:normal;color-interpolation:sRGB;color-interpolation-filters:linearRGB;solid-color:#000000;solid-opacity:1;fill:url(#linearGradient4211);fill-opacity:1;fill-rule:nonzero;stroke:none;stroke-width:3;stroke-linecap:butt;stroke-linejoin:miter;stroke-miterlimit:4;stroke-dasharray:none;stroke-dashoffset:0;stroke-opacity:1;color-rendering:auto;image-rendering:auto;shape-rendering:auto;text-rendering:auto;enable-background:accumulate"
       d="m 22.292172,952.38989 0.222696,0.38572 6.119789,10.59978 c 0.04122,-0.52683 0.07809,-1.05427 0.115533,-1.58145 l -5.241184,-9.07801 5.342834,-3.08468 c -0.03197,-0.32506 -0.06216,-0.65069 -0.09131,-0.97586 l -6.468355,3.7345 z m 10.15229,-5.86143 c 0.007,0.33992 0.01351,0.67933 0.01597,1.01937 l 16.314781,-9.41934 c 0.217182,-0.46922 0.435355,-0.93818 0.654515,-1.40648 l -16.985272,9.80645 z m 18.538701,-10.70332 c -0.214245,0.46595 -0.428695,0.93178 -0.640954,1.39864 l 0.935674,-0.54021 c 0.08217,-0.39019 0.163535,-0.78064 0.246193,-1.17073 l -0.540913,0.3123 z m 4.131431,-2.38529 c -0.105704,0.41702 -0.207514,0.80966 -0.309476,1.20727 l 11.21302,-6.47384 c 0.235065,-0.53732 0.355477,-0.81367 0.60178,-1.37603 l -11.505324,6.6426 z m 13.057248,-7.5386 c -0.220542,0.5007 -0.400545,0.91059 -0.6063,1.37864 l 1.579045,-0.91167 c 0.0983,-0.39867 0.19475,-0.79775 0.291394,-1.19683 l -1.264139,0.72986 z m 3.620651,-2.09039 c -0.104515,0.40296 -0.206544,0.80641 -0.312489,1.20901 l 8.008225,-4.62355 c 0.06535,-0.37697 0.132064,-0.76885 0.196471,-1.14202 l -7.892207,4.55656 z m 10.328576,-5.96321 c -0.07182,0.37872 -0.150881,0.80261 -0.217565,1.15421 l 13.317911,-7.6891 c 0.167064,-0.44149 0.339471,-0.8813 0.508363,-1.3221 l -13.608709,7.85699 z m 15.275145,-8.8191 c -0.170588,0.44123 -0.342886,0.88179 -0.511378,1.32384 l 6.400554,-3.69537 c 0.082,-0.39062 0.16825,-0.78069 0.2477,-1.1716 l -6.136876,3.54313 z m 8.534066,-4.92715 c -0.10164,0.41544 -0.19869,0.79257 -0.30043,1.20205 l 0.31641,-0.18268 c 0.0884,-0.40568 0.17285,-0.77667 0.26126,-1.17943 l -0.27724,0.16006 z m 2.34296,-1.3527 c -0.10528,0.46127 -0.16044,0.72259 -0.26428,1.18116 l 2.29021,-1.32225 c 0.2642,-0.49555 0.52638,-0.99227 0.79314,-1.48651 l -2.81907,1.6276 z m 4.08622,-2.35919 c -0.26426,0.48995 -0.51959,0.9848 -0.77807,1.47781 l 1.9934,-1.15089 c 0.0229,-0.2842 0.0429,-0.56835 0.0642,-0.85269 -0.23066,0.3736 -0.37917,0.43298 -0.41916,0.029 l -0.86035,0.49672 z m 1.27951,-0.52577 c 0.0494,-0.0802 0.10987,-0.20048 0.16694,-0.30934 l -0.15066,0.087 c -0.005,0.0741 -0.0107,0.14821 -0.0163,0.22235 z m 2.74043,-1.79514 c -0.042,0.36771 -0.083,0.7356 -0.12867,1.10288 l 3.80447,-2.19651 c 0.0277,-0.35838 0.0583,-0.71633 0.0804,-1.07504 l -3.75625,2.16867 z m 6.83298,-3.94502 c -0.0573,0.37616 -0.11056,0.75267 -0.17236,1.1281 l 13.02259,-7.51859 c 0.24672,-0.49374 0.4945,-0.98913 0.72533,-1.44737 l -13.57556,7.83786 z m 14.796,-8.54248 c -0.25257,0.49314 -0.50569,0.97056 -0.75698,1.46563 l 7.8425,-4.52786 c 0.14193,-0.4256 0.28575,-0.85066 0.4285,-1.27599 l -7.51402,4.33822 z m 8.88514,-5.12983 c -0.14422,0.42486 -0.28522,0.8508 -0.42851,1.27598 l 3.88583,-2.24348 c 0.13551,-0.42 0.26805,-0.84101 0.4029,-1.2612 l -3.86022,2.2287 z m 5.53419,-3.19516 c -0.14196,0.4256 -0.28623,0.85048 -0.42851,1.27598 l 3.0044,-1.7346 c 0.0489,-0.37002 0.0988,-0.7351 0.14525,-1.11244 l -2.72114,1.57106 z m 5.38502,-3.10905 c -0.063,0.3847 -0.13354,0.76194 -0.19948,1.14375 l 12.66851,-7.31416 c 0.0755,-0.29269 0.24363,-0.94607 0.31098,-1.20813 l -12.78001,7.37854 z m 14.82614,-8.55987 -0.32756,1.2177 1.0291,-0.59416 c 0.21674,-0.4498 0.43551,-0.89857 0.65175,-1.34862 0.0125,-0.0247 0.0264,-0.054 0.0389,-0.0787 l -1.39221,0.8038 z m 5.33228,-3.07861 c -0.12112,0.3091 -0.24567,0.64997 -0.43,1.27686 l 12.41839,-7.16977 c 0.0972,-0.40063 0.20142,-0.79936 0.29742,-1.2003 l -12.28581,7.09321 z m 14.35756,-8.28933 c -0.1054,0.40435 -0.21214,0.8084 -0.31852,1.21248 l 0.14313,-0.0827 c 0.12471,-0.41451 0.24793,-0.82935 0.37277,-1.2438 l -0.19738,0.11396 z m 1.8593,-1.07346 c -0.13098,0.41875 -0.26327,0.8371 -0.39386,1.25597 l 2.74826,-1.5867 c 0.0797,-0.38198 0.16147,-0.7814 0.24167,-1.16812 l -2.59607,1.49885 z m 4.78533,-2.76282 c -0.0902,0.39505 -0.17965,0.78853 -0.27029,1.18464 l 16.37655,-9.45501 c 0.16674,-0.43883 0.33279,-0.87797 0.49932,-1.31687 l -16.60558,9.58724 z m 19.11729,-11.03738 c -0.20283,0.46073 -0.40969,0.91981 -0.61082,1.38125 l 11.16933,-6.44861 c 0.08,-0.38782 0.16005,-0.77613 0.23564,-1.16464 l -10.79415,6.232 z m 15.09132,-8.71297 c -0.0968,0.39983 -0.19675,0.79891 -0.2944,1.19856 l 17.74014,-10.24227 c 0.2218,-0.47184 0.44568,-0.94274 0.66807,-1.4143 l -18.11381,10.45801 z m 19.26193,-11.12088 c -0.22341,0.4732 -0.45133,0.94428 -0.6741,1.41778 l 0.22601,-0.13049 c 0.16016,-0.3956 0.36253,-0.87273 0.52947,-1.28204 0.008,-0.0224 0.0172,-0.0446 0.0256,-0.067 l -0.10698,0.0617 z m 2.30679,-1.33183 c -0.15467,0.4319 -0.30864,0.86405 -0.46316,1.29599 l 13.19737,-7.6195 c 0.10674,-0.40443 0.21354,-0.80887 0.32002,-1.21336 l -13.05423,7.53687 z m 14.83669,-8.56596 c -0.11293,0.40831 -0.22662,0.81637 -0.33961,1.22466 l 5.39859,-3.11687 c 0.0443,-0.37045 0.0932,-0.73377 0.13619,-1.10723 l -5.19517,2.99944 z m 7.49594,-4.32779 c -0.0527,0.37513 -0.10814,0.74835 -0.16181,1.12202 l 10.69621,-6.17547 c 0.32733,-0.5517 0.58192,-0.97812 0.93023,-1.56566 l -11.46463,6.61911 z m 12.44402,-7.18455 c -0.43237,0.72246 -0.54486,0.90706 -0.94382,1.5735 l 11.53848,-6.66175 c 0.17909,-0.45565 0.34918,-0.88275 0.52644,-1.33253 l -11.1211,6.42078 z m 12.65494,-7.30634 c -0.18726,0.46296 -0.36081,0.8816 -0.54754,1.34471 l 4.03501,-2.32961 c 0.10864,-0.40514 0.21698,-0.8105 0.32454,-1.21596 l -3.81201,2.20086 z m 6.10072,-3.52225 c -0.11961,0.41249 -0.24017,0.82463 -0.3607,1.23684 l 3.17164,-1.83115 c 0.14188,-0.42617 0.27135,-0.84133 0.41194,-1.26642 l -3.22288,1.86073 z m 4.82,-2.78283 c -0.14382,0.4224 -0.29522,0.8578 -0.44057,1.28294 l 9.39743,-5.4256 4.60354,7.97358 c 0.15484,-0.3256 0.31036,-0.65132 0.46524,-0.97576 l -4.74273,-8.21465 -9.28291,5.35949 z m -138.08179,79.76375 c -0.22284,0.45792 -0.44655,0.91537 -0.66978,1.37309 l 0.47613,-0.27489 c 0.0642,-0.36618 0.13003,-0.7319 0.19365,-1.0982 z m -146.666211,90.39728 0.668088,1.15717 0.02436,0.0422 c 0.01086,-0.53649 0.01719,-1.0725 0.01722,-1.60907 l -0.709665,0.40972 z m 4.01692,-2.31916 c -0.04669,1.06328 -0.106208,2.1259 -0.17808,3.18858 l 11.894059,-6.86705 c 0.589874,-1.37517 1.183142,-2.74872 1.787258,-4.11763 l -13.503237,7.7961 z m 15.151591,-8.74777 c -0.590881,1.36476 -1.180812,2.72916 -1.757124,4.10023 l 3.677908,-2.12344 c 0.236437,-1.16541 0.470601,-2.33082 0.709952,-3.49565 l -2.630736,1.51886 z m 5.849093,-3.37698 c -0.287358,1.10291 -0.582804,2.24955 -0.93596,3.62614 l 9.056902,-5.22901 c 0.389095,-0.90798 0.768605,-1.81978 1.159865,-2.72682 0.09364,-0.21709 0.471683,-1.07864 0.600272,-1.37516 l -9.881079,5.70485 z m 11.416429,-6.59128 c -0.590155,1.36326 -1.168253,2.73184 -1.752604,4.09763 l 3.673388,-2.12083 c 0.338959,-1.22147 0.681122,-2.44216 1.006775,-3.66703 l -2.927559,1.69023 z m 5.157507,-2.97769 c -0.345419,1.23516 -0.704295,2.46621 -1.061018,3.69835 l 9.068957,-5.23597 c 0.208364,-1.14719 0.419477,-2.29395 0.629055,-3.44092 5.22e-4,-0.003 5.2e-4,-0.005 0.0011,-0.009 l -8.638034,4.98717 z m 10.943318,-6.31813 c -0.223958,1.15837 -0.449957,2.31639 -0.67379,3.47478 l 11.425469,-6.59649 c 0.448623,-1.29248 0.899163,-2.58368 1.360856,-3.87146 l -12.112535,6.99317 z m 13.768422,-7.9492 c -0.463593,1.29026 -0.92146,2.58301 -1.371403,3.87755 l 7.907274,-4.56527 c 0.29995,-1.19474 0.58878,-2.3914 0.87268,-3.58961 l -7.408551,4.27733 z m 9.558641,-5.51868 c -0.25671,0.97785 -0.5378,2.05965 -0.73551,2.79723 -0.0757,0.28249 -0.15453,0.5639 -0.23059,0.84631 l 0.782,-0.45149 c 0.23386,-1.1047 0.4707,-2.20454 0.75062,-3.51914 l -0.56652,0.32709 z m 2.57951,-1.48928 c -0.032,0.14427 -0.0632,0.28271 -0.0946,0.42425 0.0822,-0.17071 0.16427,-0.34154 0.24675,-0.51211 l -0.15217,0.0878 z m 1.4585,-0.84207 c -0.68416,1.41355 -1.3541,2.83369 -2.02381,4.25421 l 6.41562,-3.70405 c 0.1396,-1.07572 0.2767,-2.18626 0.41011,-3.32255 l -4.80192,2.77239 z m 7.30007,-4.2147 c -0.16603,1.14919 -0.33482,2.27829 -0.50655,3.37823 l 3.90844,-2.25655 c 0.18314,-1.10188 0.35884,-2.22972 0.52613,-3.38952 l -3.92802,2.26784 z m 6.58739,-3.80323 c -0.21401,1.16072 -0.44411,2.31983 -0.67982,3.47826 l 9.29044,-5.36383 c 0.6767,-1.4309 1.37054,-2.85341 2.063,-4.27684 l -10.67362,6.16241 z m 11.82022,-6.82441 c -0.70421,1.44834 -1.40294,2.88322 -2.05695,4.27335 l 10.0649,-5.81097 c 0.3992,-1.26087 0.79564,-2.52172 1.20264,-3.78012 l -9.21059,5.31774 z m 10.56062,-6.09717 c -0.41141,1.26305 -0.82073,2.52658 -1.22375,3.79229 l 3.90543,-2.25479 c 0.42064,-1.27038 0.84046,-2.54084 1.25839,-3.81231 l -3.94007,2.27481 z m 5.50857,-3.18038 c -0.43164,1.27674 -0.85743,2.55554 -1.29154,3.83144 l 4.83055,-2.78892 c 0.22593,-1.13906 0.44332,-2.28919 0.64666,-3.45912 l -4.18567,2.4166 z m 6.56931,-3.79279 c -0.2464,1.17994 -0.50022,2.35508 -0.7657,3.52785 l 12.07939,-6.97404 c 0.0393,-0.15165 0.08,-0.3029 0.11924,-0.45458 0.50833,-1.97791 0.45276,-1.76072 0.81671,-3.17156 l -12.24964,7.07233 z m 14.53985,-8.39459 c -0.22047,0.45211 -0.4357,0.90671 -0.6558,1.359 -0.22402,0.83401 -0.45631,1.666 -0.68245,2.4994 l 1.53083,-0.88382 c 0.28446,-1.20693 0.55382,-2.41882 0.8998,-3.60527 l -1.09238,0.63069 z m 5.13944,-2.96725 c -0.27292,1.19218 -0.55593,2.38204 -0.84104,3.57133 l 12.19238,-7.03927 c 0.32034,-1.21242 0.6459,-2.42357 0.95706,-3.63832 l -12.3084,7.10626 z m 15.74674,-9.09139 c -0.38395,1.25004 -0.77085,2.49947 -1.15142,3.75054 l 3.7668,-2.17476 c 0.25369,-1.16369 0.50716,-2.34876 0.75968,-3.52437 l -3.37506,1.94859 z m 5.43022,-3.13514 c -0.27671,1.19892 -0.53913,2.35848 -0.81692,3.55742 l 14.6845,-8.4781 c 0.48918,-1.31168 0.97437,-2.62456 1.46934,-3.93409 l -15.33692,8.85477 z m 17.34689,-10.01523 c -0.56064,1.34497 -1.11183,2.69336 -1.65919,4.0437 l 13.34956,-7.70737 c 0.28153,-1.07306 0.55833,-2.14864 0.82359,-3.22576 0.0318,-0.12919 0.0597,-0.25897 0.0913,-0.38821 l -12.60524,7.27764 z m 14.79149,-8.53987 c -0.33746,1.24355 -0.69478,2.46289 -1.04746,3.69052 l 0.2245,-0.12962 c 0.29287,-1.20087 0.58268,-2.39851 0.86816,-3.58699 l -0.0452,0.0261 z m 1.91956,-1.10826 c -0.30493,1.20559 -0.60794,2.41141 -0.91787,3.6157 l 15.05816,-8.69383 c 0.6458,-1.40327 1.29252,-2.80588 1.94245,-4.20725 l -16.08274,9.28538 z m 17.23539,-9.95085 c -0.65094,1.40384 -1.3051,2.80652 -1.95149,4.21246 l 1.20839,-0.69767 c 0.55674,-1.44213 1.03718,-2.63518 1.56878,-3.9915 l -0.82568,0.47671 z m 3.39916,-1.96251 c -0.4597,1.29163 -0.91307,2.58542 -1.37141,3.87755 l 14.27167,-8.23975 c 0.32483,-1.21379 0.64263,-2.4294 0.9661,-3.64355 l -13.86636,8.00575 z m 15.53882,-8.97134 c -0.3394,1.22433 -0.67786,2.4488 -1.01733,3.67312 l 6.836,-3.94677 c 0.16207,-1.1157 0.32834,-2.25088 0.48093,-3.36343 l -6.2996,3.63708 z m 8.47079,-4.89062 c -0.17516,1.12456 -0.35916,2.26568 -0.54121,3.39824 l 4.92397,-2.84286 c 0.74022,-1.2366 2.00645,-3.38013 2.79224,-4.69787 l -7.175,4.14249 z m 8.08054,-4.6653 c -0.85645,1.42718 -2.09191,3.48967 -2.83292,4.72135 l 14.7719,-8.52855 c 0.49783,-1.28104 0.95715,-2.4574 1.5507,-3.98106 l -13.48968,7.78826 z m 14.93313,-8.62164 c -0.56367,1.41251 -1.14677,2.86321 -1.60495,4.01238 l 5.50555,-3.17863 c 0.35544,-1.22969 0.70555,-2.46072 1.05198,-3.69313 l -4.95258,2.85938 z m 7.04692,-4.06855 c -0.37878,1.25025 -0.7608,2.50001 -1.1469,3.74793 l 2.71662,-1.56844 c 0.44403,-1.28845 0.87445,-2.55495 1.31415,-3.84449 l -2.88387,1.665 z m 4.4132,-2.54796 c -0.46292,1.33516 -0.88444,2.53663 -1.3473,3.86363 l 11.05029,-6.37989 3.26215,5.65021 c 0.46064,-0.98374 0.91803,-1.9691 1.38179,-2.95138 l -3.66579,-6.34933 -10.68114,6.16676 z m -60.33763,36.36477 c -0.25733,0.66764 -0.51503,1.33514 -0.77227,2.00281 l 0.0919,-0.0531 c 0.30303,-0.86894 0.43096,-1.23399 0.68036,-1.94974 z M 32.166412,955.90812 c -0.109428,1.56439 -0.242659,3.12487 -0.380522,4.68562 l 4.384327,7.59388 c 0.409777,-1.06613 0.826562,-2.12984 1.241727,-3.19398 l -5.245532,-9.08552 z M 327.57053,788.11076 c -0.0611,0.12932 -0.26101,0.55053 -0.28926,0.60897 -0.0591,0.1224 -0.11601,0.24588 -0.17511,0.3683 l 6.27028,10.86044 c 0.11198,-0.40005 0.22433,-0.80001 0.33562,-1.20025 l -6.14153,-10.63746 z m -2.15107,4.5105 c -0.46548,0.97566 -0.93378,1.94994 -1.3957,2.92727 l 7.10278,12.30238 c 0.34345,-1.18848 0.6719,-2.30492 1.02947,-3.5616 l -6.73655,-11.66805 z M 31.24421,966.11371 c -0.05583,0.4947 -0.115285,0.98893 -0.172075,1.48352 l 3.210825,5.56131 c 0.135175,-0.35908 0.27126,-0.7178 0.40695,-1.07671 l -3.4457,-5.96812 z m 7.062001,0.42885 c -0.405486,1.08158 -0.811478,2.16321 -1.211285,3.2467 l 5.039365,8.72843 c 0.297763,-1.2674 0.592438,-2.5353 0.89029,-3.80267 l -4.71837,-8.17246 z M 334.7342,800.51861 c -0.11995,0.40564 -0.23213,0.77188 -0.35127,1.17314 l 8.238,14.26865 c 0.1544,-0.32592 0.30912,-0.65174 0.46437,-0.97726 l -8.3511,-14.46453 z m -173.47857,100.5356 c -1.98074,1.14358 -3.74724,2.38008 -5.31441,3.70109 -2.96978,6.58622 -5.88733,13.19606 -8.76793,19.822 0.29414,3.8753 1.55166,7.8788 3.76782,12.00994 3.56386,-11.85474 7.10042,-23.71829 10.482,-35.62572 -0.0559,0.032 -0.11148,0.0603 -0.16748,0.0927 z m 1.77025,-0.95979 c -3.68865,12.65127 -7.50576,25.26623 -11.30278,37.88555 0.52479,0.89734 1.06696,1.75189 1.62712,2.56423 1.2267,-4.46366 2.45242,-8.92752 3.67974,-13.39077 2.58487,-9.30599 5.1891,-18.60633 7.77095,-27.91306 -0.5892,0.26479 -1.18072,0.54842 -1.77503,0.85405 z m -127.3408,73.7111 c -0.133008,0.38058 -0.262256,0.75824 -0.386075,1.11286 l 5.463881,9.46373 c 0.09904,-0.42306 0.196464,-0.84654 0.295602,-1.26958 L 35.68508,973.80552 Z M 166.74404,898.4339 c -1.29572,4.52857 -2.58075,9.06022 -3.86724,13.59144 0.23545,-0.25938 0.48635,-0.51197 0.75128,-0.7552 1.22643,-4.33472 2.44664,-8.67188 3.62724,-13.01891 -0.17059,0.0608 -0.34025,0.1183 -0.51128,0.18267 z m -11.96183,7.34815 c -3.48771,3.26001 -5.80533,7.02223 -6.93839,11.29238 -0.50824,1.93449 -0.74795,3.90528 -0.73264,5.90947 2.52706,-5.74757 5.08625,-11.48016 7.67103,-17.20185 z M 47.128663,968.03027 c -0.04618,0.25115 -0.101307,0.55134 -0.146847,0.79998 l 1.425775,2.46951 c 0.615649,-1.70173 1.242543,-3.39917 1.87916,-5.09282 l -3.158088,1.82333 z m 4.874245,-2.81414 c -0.927559,2.53274 -1.831692,5.0741 -2.703665,7.62802 l 3.451788,5.97867 c 0.822211,-2.30292 1.638314,-4.60669 2.451993,-6.91218 1.202189,-3.52681 2.392173,-7.06252 3.569583,-10.60301 l -6.769699,3.9085 z m 8.74953,-5.05155 c -0.90903,2.71733 -1.825396,5.43196 -2.746042,8.14268 -1.419718,4.05896 -2.854676,8.1137 -4.304556,12.16242 l 11.392288,19.73202 c 0.501241,-2.77361 1.001554,-5.59579 2.435048,-13.67461 0.229985,-1.29615 0.898986,-5.08887 1.386938,-7.85221 l -0.586115,0.3384 -5.497807,-9.52248 6.418634,-3.7058 c 0.740965,-0.4278 1.446226,-0.74016 2.120104,-0.94881 0.706965,-3.98234 1.527633,-8.62633 1.837149,-10.31196 0.02748,-0.14966 0.05694,-0.29895 0.08454,-0.44859 -2.716042,0.81011 -5.774734,2.18291 -9.202786,4.16209 l -3.337389,1.92685 z m 32.939946,-19.01789 c -0.0019,0.004 -0.0044,0.009 -0.0062,0.0136 l 0.371448,0.64336 c 0.08187,-0.28731 0.205793,-0.73805 0.290173,-1.0354 l -0.655425,0.37841 z m 2.347472,-1.35532 c -0.355463,1.19415 -0.719344,2.38598 -1.077518,3.57931 l 2.719327,4.71001 c 0.607995,-3.73205 1.188416,-7.08161 1.760368,-10.25356 l -3.402177,1.96424 z m 5.357904,-3.09338 c -0.54436,3.05033 -1.09101,6.22303 -1.670487,9.84206 -0.213922,1.33603 -0.413959,2.6742 -0.61896,4.01166 l 4.099867,7.10119 c 1.9165,-8.3508 3.7501,-16.71974 5.41732,-25.12785 l -7.22774,4.17294 z m 9.14429,-5.27946 c -1.96498,9.37802 -4.09128,18.7182 -6.28998,28.04243 l 1.38489,2.3987 c 1.58725,-6.1961 3.17039,-12.39307 4.73298,-18.59535 l -0.23227,-0.4023 0.39024,-0.2253 c 1.08999,-4.33026 2.16848,-8.66309 3.23479,-12.99926 -0.76969,0.39517 -1.55454,0.81915 -2.36181,1.28524 l -0.85884,0.49584 z m 83.06556,-47.95792 4.12944,7.15242 c 1.33734,-3.96584 2.68993,-7.9257 4.05959,-11.88036 l -8.18903,4.72794 z m 9.52248,-5.49781 c -1.26388,3.69258 -2.50164,7.39506 -3.69897,11.10963 -0.30648,0.95777 -0.61771,1.91382 -0.92594,2.87103 l 7.14975,12.38374 c 1.97835,-5.07422 3.94366,-10.1536 5.89643,-15.23708 0.11162,-0.31339 0.18801,-0.52266 0.29712,-0.82849 l -6.63912,-11.49929 -2.07927,1.20046 z m 18.80388,-10.85643 -7.24263,26.07924 -2.22348,-3.85119 c -2.06694,5.33478 -4.14628,10.66553 -6.23618,15.99174 l 3.78323,6.55273 c 0.2183,-0.5034 0.53375,-1.22997 0.76557,-1.7639 0.74803,-2.74384 1.49011,-5.48938 2.25926,-8.22727 3.16287,-11.68902 6.34287,-23.37645 9.4261,-35.08842 l -0.53187,0.30707 z m 2.06723,-1.19351 c -2.96681,11.10596 -6.06904,22.54051 -9.02897,33.45889 -0.27931,0.99541 -0.55166,1.99265 -0.82765,2.98905 0.0237,-0.0548 0.0289,-0.0657 0.0527,-0.12086 6.26861,-13.74708 12.37995,-27.5677 18.53531,-41.36818 l -8.73145,5.0411 z m 9.94586,-5.74225 c -5.75482,12.97925 -11.45868,25.98113 -17.26992,38.932 -1.99243,4.69546 -3.27765,7.70595 -4.57788,10.77733 -0.34211,1.28378 -0.67796,2.56952 -1.01263,3.85522 l 2.86112,4.95561 c 1.41393,-2.10437 2.82423,-4.21116 4.22958,-6.32125 0.45363,-1.31352 0.90956,-2.6258 1.35903,-3.94071 0.74033,-2.05572 0.89996,-2.49413 1.52008,-4.21853 l -0.10178,-0.17628 0.15124,0.0393 c 3.42696,-9.52972 5.83086,-16.21963 8.1526,-22.55453 l 6.14557,-22.1893 -1.45701,0.8412 z m 7.53662,-4.35127 c -0.004,0.0109 -0.007,0.0217 -0.0113,0.0327 l 6.07716,10.52596 c 3.18358,-5.15077 6.35376,-10.31064 9.51604,-15.47462 0.42585,-1.6082 0.85699,-3.21513 1.28584,-4.82258 l -16.86775,9.73859 z m 18.2705,-10.54847 c -0.20324,0.74621 -0.40738,1.49223 -0.61001,2.23862 0.59469,-0.97206 1.18926,-1.9441 1.78375,-2.91628 l -1.17374,0.67766 z m 1.9467,-1.12392 c -0.98236,1.6024 -1.96598,3.20403 -2.94866,4.80625 -2.27776,8.40854 -4.51708,16.82747 -6.67393,25.26874 l 5.70049,9.87353 c 1.83805,-3.9858 4.27089,-9.39091 6.02082,-13.37226 0.38191,-1.85666 0.74915,-3.71606 1.12302,-5.57434 l -1.96025,1.13175 -4.83668,-8.37738 9.28141,-5.35862 c 0.82667,-4.35275 1.62307,-8.71127 2.39391,-13.07429 l -8.10013,4.67662 z m 9.87052,-5.69876 c -0.81567,4.38472 -1.65562,8.76507 -2.51143,13.14215 l 5.18764,-2.9951 c 0.52309,-0.8595 1.07015,-1.70329 1.65626,-2.52122 0.30012,-0.41883 1.46283,-0.55076 1.54472,-0.042 0.0376,0.23358 0.0395,0.46656 0.0279,0.69907 l 0.3571,-0.20617 -5.06286,-8.76913 -1.19935,0.69245 z m 12.07788,-6.97317 1.17786,2.04011 c 0.45419,-1.27116 0.82234,-2.28529 1.23592,-3.4337 l -2.41378,1.39359 z m 3.6975,-2.13475 c -0.61985,1.72061 -1.2108,3.36568 -1.88809,5.26873 l 3.94589,6.8345 c 1.9044,-5.49742 3.77414,-11.00659 5.60538,-16.52757 l -7.66318,4.42434 z m 9.18046,-5.30034 c -2.12104,6.19488 -4.28157,12.37595 -6.45979,18.55169 l 1.1709,2.02805 c 2.25286,-6.89638 4.46171,-13.3684 6.68966,-19.79937 l -1.32092,-0.82647 -0.0798,0.0461 z m 16.44284,-9.49328 0.90993,1.57603 c 0.41949,-0.94302 0.83817,-1.88662 1.25975,-2.82869 l -2.16968,1.25266 z m 3.12646,-1.80505 c -0.6101,1.35499 -1.21387,2.71242 -1.81898,4.06966 l 9.28538,16.08274 c 1.75151,-5.64505 3.47545,-11.22613 5.0837,-16.59601 l -4.67749,-8.10165 -7.87261,4.54526 z M 115.6447,928.72163 c -1.08815,4.28578 -2.17629,8.57133 -3.27859,12.85379 l 1.13607,-0.6559 c 1.63316,-4.4619 3.30025,-8.91153 5.01079,-13.34361 -0.92583,0.32417 -1.87434,0.6931 -2.86827,1.14572 z m 54.30273,-31.29142 c -0.80776,3.77096 -1.61128,7.54261 -2.42247,11.31284 2.61159,-1.1667 5.19612,-1.37423 7.75372,-0.6174 1.13765,-3.7618 2.28207,-7.52433 3.42087,-11.28859 -2.84833,-0.3549 -5.76538,-0.15756 -8.75212,0.59315 z m -50.32218,29.76871 c -1.6521,4.31244 -3.26483,8.64024 -4.84235,12.98117 l 0.23655,-0.13657 c 2.43085,-1.40345 4.42377,-1.96477 5.97878,-1.68397 1.57509,0.26922 2.95417,1.42839 4.13724,3.47754 0.91319,1.58168 1.31499,3.00174 1.213,4.26181 1.40542,-5.2265 2.88405,-10.59717 4.70345,-17.03542 0.0724,-0.25617 0.14943,-0.511 0.22209,-0.76707 -1.54679,-1.08145 -3.25642,-1.72061 -5.13264,-1.90641 -1.92468,-0.19729 -4.09818,0.0757 -6.51612,0.80892 z m -44.440922,26.39527 c -0.684563,3.6458 -1.358271,7.29421 -2.018192,10.94483 0.327804,-0.003 0.648042,0.02 0.956563,0.0805 1.408162,0.25844 2.558798,1.16112 3.451898,2.70802 0.02394,0.0414 0.04211,0.0819 0.06507,0.12314 0.773367,-2.85333 1.558076,-5.70352 2.356007,-8.55031 0.493392,-1.76029 1.010761,-3.51483 1.521656,-5.27012 -0.714691,-0.2055 -1.457868,-0.33662 -2.231586,-0.38908 -1.241574,-0.0883 -2.618003,0.0442 -4.101418,0.35298 z M 298.87239,825.41213 c -2.04117,5.92542 -4.03808,11.85719 -6.33397,19.03753 -0.18058,0.56477 -0.32022,1.01818 -0.49454,1.56523 l 5.12722,8.88062 c 0.87116,-2.07557 -0.15699,0.37293 0.92054,-2.19489 1.75168,-4.15461 3.51812,-8.30312 5.2897,-12.44993 l -0.57327,-0.99293 0.78641,0.4922 c 1.27824,-2.99015 2.57251,-5.97314 3.86479,-8.95735 l -8.58688,-5.38048 z m 34.2353,-19.47446 c -0.34997,1.16232 -0.70961,2.37949 -1.05557,3.5164 l 7.53252,13.0467 c 0.45114,-0.99403 0.90963,-1.98469 1.36786,-2.97549 l -7.84481,-13.58761 z m -165.90809,97.8784 c -0.57098,2.01717 -1.14269,4.0344 -1.71801,6.05046 0.1622,-0.10424 0.31683,-0.21266 0.48631,-0.31291 0.41206,-1.91207 0.82238,-3.82486 1.2317,-5.73755 z m 89.49138,-51.50514 c -1.22712,1.99932 -2.45163,4.00024 -3.68072,5.99835 -2.04873,3.33055 -3.48133,5.64126 -5.22583,8.47548 l 3.53269,6.11879 c 1.15285,-4.51204 2.46034,-9.54399 4.85213,-18.63602 0.17172,-0.65275 0.34937,-1.30401 0.52173,-1.9566 z m -76.8493,44.69844 c -0.93489,3.03568 -1.87148,6.07131 -2.79959,9.10776 -0.41717,1.36485 -0.36549,1.20601 -0.72462,2.38111 0.10359,0.0413 0.20734,0.0693 0.31083,0.11386 0.0665,0.0286 0.13064,0.0675 0.19681,0.0973 1.06563,-3.88991 2.13943,-7.77764 3.22542,-11.66192 -0.0695,-0.013 -0.13926,-0.0258 -0.20885,-0.0381 z m 1.30637,0.27234 c -1.11082,3.97563 -2.20787,7.95526 -3.28828,11.93928 1.75371,0.97728 3.40786,2.40158 4.96682,4.2602 1.14249,-4.77018 2.27205,-9.54307 3.39573,-14.31765 -1.40011,-0.72237 -2.86074,-1.29728 -4.38686,-1.71419 -0.22835,-0.0624 -0.45814,-0.11263 -0.68741,-0.16764 z m -98.35588,56.8099 c -0.176772,0.62184 -0.363799,1.2405 -0.537458,1.86323 -1.309295,4.69504 -2.569295,9.40426 -3.801231,14.11984 0.02305,0.55845 -0.05516,1.10114 -0.242223,1.62648 -0.102821,0.28876 -0.243809,0.5692 -0.408414,0.84451 -1.158731,4.48364 -2.277783,8.97695 -3.377684,13.47552 l 2.145571,-1.23875 c 3.179739,-9.35809 6.472846,-18.68466 9.959044,-27.93682 -1.128244,-1.224 -2.369542,-2.15179 -3.737605,-2.75401 z m -37.519754,24.51677 c -0.172149,1.04249 -0.34059,2.05097 -0.523295,3.20307 0.301344,-0.88071 0.542501,-1.59333 0.880829,-2.5838 l -0.357534,-0.61927 z m 86.889854,-49.62947 c -1.91914,6.84653 -3.54628,12.81136 -5.05675,18.62958 1.55776,-4.47543 3.10673,-8.95332 4.66427,-13.4288 0.67077,-1.91724 0.88688,-2.53772 1.4571,-4.16409 -0.34719,-0.36641 -0.69721,-0.72529 -1.06462,-1.03669 z m -85.559767,51.93325 c -0.358287,1.07481 -0.789356,2.36408 -1.127773,3.39134 l 3.230833,5.59597 c 0.403961,-1.08229 0.81304,-2.16227 1.211284,-3.24669 l -3.314344,-5.74062 z M 329.49305,817.76402 c -1.65312,5.32068 -3.37783,10.79799 -5.16025,16.46343 l 5.87274,10.17188 c 2.01271,-4.91983 4.05863,-9.82467 6.18065,-14.69604 l -6.89314,-11.93927 z m -142.04846,82.07601 c -1.19283,4.98811 -2.38428,9.97649 -3.57433,14.9652 0.70354,0.95572 1.38725,2.00263 2.04879,3.14845 0.69189,1.19839 1.27958,2.36477 1.76745,3.49973 1.78297,-5.66046 3.5913,-11.31301 5.43558,-16.95387 -1.75292,-1.89174 -3.6441,-3.44763 -5.67749,-4.65951 z M 87.283446,957.74042 c -3.199134,8.6558 -6.221639,17.37649 -9.130657,26.12862 l 1.545896,-0.89252 c 0.744935,-0.43009 1.454906,-0.76691 2.137872,-1.02939 1.576027,-4.99501 3.140859,-9.99448 4.685328,-14.99992 1.015398,-3.34657 1.435734,-4.74065 2.170399,-7.14938 -0.441755,-0.75725 -0.916659,-1.43089 -1.408838,-2.05741 z m 46.656964,-26.92737 c -0.12353,0.35196 -0.24728,0.70386 -0.37078,1.05584 -3.07767,8.86269 -6.16918,17.72096 -9.2054,26.59767 -0.20077,0.81832 -0.42579,1.78072 -0.6299,2.62174 l 0.97937,-0.56544 c 1.88843,-1.09028 3.63293,-1.54835 5.23349,-1.3742 0.46884,0.047 0.97422,0.16202 1.50861,0.33036 1.3833,-3.29984 2.77743,-6.59534 4.17441,-9.88946 -0.63423,0.0588 -1.25784,0.17733 -1.86978,0.36633 2.37097,-2.57425 3.71869,-5.22738 4.04316,-7.95942 0.34458,-2.74362 -0.34144,-5.60206 -2.05806,-8.57532 -0.56281,-0.97481 -1.16836,-1.83436 -1.80512,-2.6081 z m 174.05012,-99.68832 c -1.29275,2.986 -2.56716,5.97931 -3.84444,8.97171 l 14.39469,9.01653 c 0.88852,-2.8552 1.78341,-5.70792 2.6574,-8.56762 0.11174,-0.36167 0.18703,-0.60555 0.29698,-0.96099 l -13.50463,-8.45963 z M 111.45036,945.13566 c -0.44279,1.71715 -0.88602,3.43394 -1.32926,5.15101 0.54825,-1.53209 1.09819,-3.06301 1.65113,-4.59353 l -0.32187,-0.55748 z m 0.95255,1.64985 c -1.61124,4.51346 -3.20337,9.03247 -4.79018,13.55174 -0.1348,0.42111 -0.27287,0.84137 -0.40829,1.26229 -0.17688,0.68795 -0.34873,1.37715 -0.52534,2.06517 l 9.36368,16.21835 c 1.88356,-5.63629 3.78774,-11.26557 5.72032,-16.88523 l -0.33405,-0.57858 0.66597,-0.3845 c 0.12435,-0.36115 0.25094,-0.72149 0.37542,-1.0826 1.16507,-4.62455 2.29859,-8.95491 3.46363,-13.31621 -0.63461,1.35895 -2.0453,2.67552 -4.25113,3.94906 l -4.88179,2.8185 -4.39824,-7.61799 z m -22.908167,14.59013 c -0.291852,0.95215 -0.581864,1.90488 -0.873782,2.85697 -1.775241,5.77216 -3.585919,11.53172 -5.409288,17.28824 0.936316,-0.21418 1.809346,-0.25691 2.613049,-0.11241 1.721937,0.29158 3.145445,1.41171 4.270522,3.3604 1.148279,1.98888 1.413942,3.81767 0.796992,5.48639 -0.596857,1.65712 -2.060488,3.15836 -4.390885,4.50389 l -6.81038,3.93192 -1.269194,-2.19827 c -1.78534,5.52733 -3.58096,11.05143 -5.391545,16.57083 l 17.687404,-10.2118 c 1.026283,-10.18655 2.136068,-20.36764 3.443335,-30.52334 -1.953261,-0.5245 -4.024364,-0.51842 -6.214284,0.0199 1.519541,-1.8684 2.350841,-3.86177 2.49391,-5.98012 0.101374,-1.64898 -0.217304,-3.31312 -0.945854,-4.99262 z M 44.134476,988.4403 c -0.12183,0.38061 -0.244049,0.75821 -0.366931,1.14602 l 3.054239,5.29012 c 0.136537,-0.35507 0.279059,-0.70782 0.41478,-1.06315 L 44.134476,988.4403 Z M 160.18237,921.53444 c -0.22634,0.80379 -0.45808,1.60591 -0.68393,2.40986 -1.60088,5.77268 -3.1988,11.54796 -4.76126,17.33197 1.35285,-4.40293 3.10758,-10.22769 5.6075,-18.62212 -0.0716,-0.37899 -0.11757,-0.74922 -0.16231,-1.11971 z M 343.61856,815.90677 c -0.15422,0.32709 -0.30843,0.65426 -0.46176,0.98177 l 7.64996,13.25011 c 0.0947,-0.46227 0.17518,-0.85172 0.2695,-1.31476 l -7.4577,-12.91712 z m -39.83533,25.04003 c -1.39899,3.28143 -2.80333,6.56088 -4.18861,9.84744 -0.66868,1.60618 -1.33988,3.2115 -2.01031,4.81696 l 12.04037,20.85453 0.38722,-0.22356 c 1.66674,-5.28251 3.33275,-10.56553 4.99921,-15.84812 L 303.78323,840.9468 Z m 37.71645,-20.47379 c -0.45482,0.99595 -0.91161,1.99125 -1.35917,2.99056 l 8.86608,15.3565 c 0.26443,-1.26824 0.53271,-2.57155 0.81548,-3.93226 l -8.32239,-14.4148 z M 50.865042,988.2951 c -0.399755,1.08307 -0.807669,2.16269 -1.213021,3.24366 l 12.925932,22.38844 c 0.398915,-2.1686 0.476604,-2.5974 0.745017,-4.0543 L 50.865042,988.2951 Z M 194.12327,905.63514 c -0.37733,1.19201 -0.76487,2.38115 -1.13624,3.57503 -1.51233,4.86188 -2.98279,9.73498 -4.42937,14.6151 0.76285,2.42716 1.03789,4.70253 0.78867,6.81509 -0.40234,3.4103 -2.11788,6.11018 -5.11477,8.11805 -1.15664,4.07447 -2.29946,8.15271 -3.42398,12.23661 2.40595,-0.7262 4.85268,-1.80004 7.34263,-3.23278 0.3118,-0.74226 0.63241,-1.48037 0.9422,-2.22348 3.95155,-9.47848 7.80311,-19.00016 11.58734,-28.54746 -0.70937,-1.95263 -1.63606,-3.9333 -2.79733,-5.94468 -1.16485,-2.01757 -2.42,-3.81643 -3.75915,-5.41148 z m -33.12793,19.49608 c -1.03124,3.45438 -1.32978,4.4152 -5.5138,18.19636 0.86924,1.02075 1.77572,1.9537 2.71836,2.79803 0.9036,-4.33295 1.81356,-8.6632 2.71755,-12.99393 0.37023,-1.76397 0.75793,-3.52566 1.13313,-5.2889 -0.41922,-0.92528 -0.76896,-1.8283 -1.05524,-2.71156 z m 105.54399,-60.91576 c -0.0365,0.17914 -0.073,0.35825 -0.10961,0.53739 0.0909,-0.2077 0.17536,-0.41861 0.2648,-0.627 l -0.15519,0.0896 z m 1.9527,-1.1274 c -1.46603,3.21127 -2.51274,5.51097 -3.11329,6.84196 -1.02826,4.96562 -2.07537,9.92632 -3.14115,14.88386 -0.39778,1.85026 -0.74459,3.40827 -1.11141,5.07946 l 0.69506,1.20388 c 0.4166,-1.25043 0.83961,-2.49868 1.25436,-3.74971 1.6909,-5.10028 6.44285,-19.43736 8.19312,-25.22975 0.0758,-0.25088 0.14039,-0.50501 0.21416,-0.75646 l -2.99085,1.72676 z m 5.00685,-2.8907 c -1.08631,3.3177 -2.89347,8.70984 -4.84084,14.48701 l 2.49212,-1.43882 c 0.85103,-2.62682 1.71008,-5.25209 2.58303,-7.87178 0.60603,-1.81868 1.4353,-4.23646 2.24876,-6.61002 l -2.48307,1.43361 z m 3.82406,-2.20782 c -0.56045,1.65619 -1.19555,3.50891 -1.64664,4.87619 -1.04739,3.17477 -2.06926,6.35809 -3.07969,9.54471 l 7.50951,-4.33562 c 1.07729,-3.09353 2.16084,-6.18647 3.24531,-9.2787 l -1.85638,-3.21535 -4.17211,2.40877 z M 75.706191,974.69034 c -0.297799,0.21034 -0.611445,0.41731 -0.957559,0.61714 l -3.893368,2.24784 c -1.464317,8.36727 -2.902034,16.73855 -4.33884,25.10988 l 1.471882,2.5493 c 2.494032,-10.19447 5.037415,-20.37753 7.717885,-30.52416 z m -27.529258,20.75175 c -0.120182,0.31364 -0.234991,0.62916 -0.355758,0.94262 -0.01032,0.0267 -0.03969,0.10405 -0.05119,0.13407 l 13.721901,23.76702 c 0.08239,-0.4867 0.153641,-0.9182 0.232099,-1.3796 L 48.176936,995.44209 Z M 283.9795,859.88396 c -0.87691,2.49053 -1.75947,4.97969 -2.62883,7.47232 l 3.39012,-1.95729 c 0.26547,-0.91598 0.54927,-1.85758 0.82194,-2.7728 l -1.58323,-2.74223 z m -120.9412,69.94798 c -0.0485,0.23192 -0.0985,0.46359 -0.14688,0.69552 -1.13562,5.56037 -2.27174,11.12264 -3.39294,16.68863 1.08719,0.85201 2.21773,1.599 3.39605,2.232 0.0696,-0.24003 0.11149,-0.38369 0.18214,-0.6275 2.81444,-9.48354 3.09422,-10.42531 3.90564,-13.15956 -1.18667,-1.35753 -2.31953,-2.95625 -3.39288,-4.81535 -0.19777,-0.34255 -0.36994,-0.67643 -0.55113,-1.01374 z m 63.72898,-36.49661 c -1.00853,3.09773 -2.01343,6.19744 -2.99595,9.3035 -0.2,0.63223 -0.41251,1.32715 -0.6151,1.97234 l 0.13309,0.0356 c 0.3606,-0.54914 0.7158,-1.10184 1.07553,-1.65156 1.06305,-3.15148 2.13768,-6.2991 3.21024,-9.44731 l -0.80781,-0.21263 z m 110.20087,-62.62405 c -3.38652,7.88599 -6.59551,15.85259 -9.74983,23.83831 l 9.76842,6.11865 1.98435,-1.14566 c 2.68997,-3.45995 5.31897,-6.96583 7.90068,-10.50599 0.0597,-0.2812 0.11803,-0.56271 0.17773,-0.84391 l -10.08135,-17.4614 z M 228.5888,893.8145 c -0.61188,1.83745 -1.22751,3.67336 -1.83607,5.51191 0.68138,-1.05002 1.37052,-2.09474 2.04816,-3.14727 0.42321,-0.65734 0.84209,-1.31742 1.26421,-1.97544 l -1.4763,-0.3892 z m 93.87583,-53.62267 c -0.98277,3.17513 -1.97395,6.3482 -2.96974,9.5194 l 6.83249,4.27995 c 1.21006,-3.03234 2.43437,-6.05897 3.66873,-9.0812 l -7.53148,-4.71815 z m -98.10025,57.17259 c -0.819,2.30661 -1.63896,4.6131 -2.46017,6.91891 l 0.17975,0.0469 c 0.75241,-2.3242 1.51584,-4.64556 2.28042,-6.96581 z m 38.41141,-21.71276 c -0.187,0.40629 -1.84116,3.93403 -4.422,9.43976 l 1.75982,3.0481 c 0.0615,-0.28168 0.1022,-0.45524 0.16501,-0.74417 0.85013,-3.9105 1.67681,-7.82663 2.49717,-11.74369 z m -32.17056,18.69421 c -0.95087,1.49892 -1.78157,2.82029 -2.82182,4.45178 -0.58687,0.92039 -1.18182,1.83518 -1.77089,2.75415 -0.3858,1.16841 -0.7644,2.3391 -1.14883,3.50797 l 17.42047,4.57355 c 0.84265,-3.62536 1.70058,-7.24818 2.58352,-10.8634 0.08,-0.32227 0.0779,-0.3154 0.1556,-0.62824 l -14.41805,-3.79581 z m -134.533041,78.6832 c -0.95013,8.08298 -1.762833,16.18233 -2.440861,24.29132 0.897207,-3.53677 1.793688,-7.07426 2.667697,-10.6167 0.939389,-3.87891 1.875553,-7.75728 2.807523,-11.63761 -0.930017,-0.83815 -1.938285,-1.52343 -3.034359,-2.03701 z m 40.347421,-23.19615 c -1.3826,3.31384 -2.76152,6.6297 -4.12709,9.95053 0.29892,0.12099 0.61946,0.281 0.93657,0.43564 1.06949,-3.46046 2.13745,-6.92066 3.19052,-10.38617 z m 1.25632,-0.21104 c -1.13784,3.70484 -2.28606,7.40645 -3.43485,11.1078 0.55669,0.31448 1.13652,0.6742 1.74308,1.08095 l 6.15638,4.13191 c 1.09594,-3.68021 2.36939,-7.93455 3.82635,-12.79236 -2.50469,-1.60722 -4.6924,-2.6838 -6.53086,-3.1764 -0.59576,-0.16982 -1.18159,-0.2828 -1.7601,-0.3519 z m 148.84283,-85.3398 c -0.01,0.0362 -0.0201,0.0716 -0.0302,0.10782 l 0.0693,-0.04 -0.0391,-0.0678 z m -18.17167,11.32514 c -1.19462,3.54274 -2.54742,7.55161 -2.95306,8.75841 -0.91552,2.7237 -1.82407,5.44993 -2.74029,8.17352 l 1.59192,2.7573 c 1.7711,-5.81593 3.56511,-11.62543 5.41325,-17.4171 l -1.31182,-2.27213 z M 73.813886,988.51165 c -1.461344,6.03422 -2.87625,12.08025 -4.254013,18.13405 0.192993,-0.636 0.362947,-1.2207 0.563306,-1.8742 1.497121,-4.88307 3.088103,-9.73641 4.649342,-14.59944 l -0.958635,-1.66041 z M 221.59752,905.14746 c -0.13968,0.39175 -0.27823,0.78394 -0.41816,1.1756 -0.36682,1.05232 -0.72673,2.10703 -1.09017,3.1607 0.22036,-0.33246 0.44187,-0.66427 0.66195,-0.99692 0.32561,-1.0193 0.67623,-2.13067 0.9873,-3.09529 l -0.14092,-0.24409 z m -53.7413,31.4635 c -0.88476,3.00334 -1.22922,4.16584 -2.87531,9.74212 -0.4341,1.5344 -0.64434,2.28101 -1.02638,3.62613 0.52689,0.24833 1.06405,0.47409 1.60835,0.68058 1.15718,-4.31636 2.31507,-8.63193 3.46613,-12.95001 -0.39625,-0.34124 -0.78793,-0.70718 -1.17279,-1.09882 z m -67.611,39.59574 c -0.627984,2.59749 -1.254516,5.19575 -1.883107,7.79313 -0.644967,2.67417 -1.314647,5.3433 -1.9814,8.01256 0.969088,-3.25943 1.959419,-6.53449 3.000986,-9.86888 0.523509,-1.67593 1.073961,-3.34289 1.613431,-5.01372 -0.24298,-0.32174 -0.49199,-0.63056 -0.74991,-0.92309 z m 100.87012,-57.93203 c -3.27939,8.24036 -6.59323,16.46616 -9.97621,24.6641 -0.55767,1.35142 -1.12879,2.69723 -1.69176,4.04642 4.37588,-2.73133 7.64282,-5.92937 9.80269,-9.59513 0.73359,-2.17695 1.72016,-4.52873 2.52462,-6.35142 0.9459,-4.10288 0.72623,-8.35807 -0.65934,-12.76397 z m 151.31275,-87.10935 c -0.0997,0.46124 -0.18275,0.84759 -0.27994,1.2967 l 2.87939,4.98725 c 0.18594,-0.27199 0.37205,-0.54369 0.55744,-0.81605 l -3.15689,-5.4679 z m -129.83627,75.70433 c -0.0907,0.14027 -0.18012,0.28134 -0.27089,0.42158 -1.71023,5.49515 -3.43888,11.17151 -5.17628,16.93675 l 0.0705,0.12204 c 0.56268,-1.67352 0.9997,-2.97123 1.63059,-4.84483 1.33572,-4.04566 2.68477,-8.08733 4.04014,-12.12628 l -0.29403,-0.50926 z M 75.661568,991.71193 c -2.014551,6.40732 -3.537254,11.31237 -5.301029,17.61137 l 1.660653,2.8764 c 1.897233,-5.6832 3.7695,-11.3751 5.609841,-17.07651 l -1.969465,-3.41126 z M 270.454,879.25649 c -1.81216,5.86462 -3.56212,11.74828 -5.2845,17.64009 l 2.26698,3.92652 1.87737,-1.0839 c 0.84519,-2.53803 1.6874,-5.07702 2.52741,-7.61667 0.78822,-2.30002 1.57902,-4.599 2.36465,-6.89992 l -0.23053,0.1331 -3.52138,-6.09922 z m -147.62266,85.5916 c -0.37513,1.56776 -0.72299,2.98135 -1.11931,4.66216 -1.1415,4.84116 -2.23585,9.66362 -3.2918,14.49068 l 1.23701,2.14256 1.00799,-0.58197 c 1.94726,-4.76555 3.90945,-9.52574 5.87887,-14.28274 l -3.71276,-6.43069 z m 47.29974,-26.26987 c -1.08154,4.17846 -2.165,8.35655 -3.25023,12.53406 0.24755,0.0768 0.49366,0.15643 0.74463,0.225 2.03492,0.55056 4.10416,0.81205 6.20795,0.78333 0.81927,-3.6974 1.6536,-7.39153 2.49858,-11.08357 -1.16071,-0.1036 -2.31731,-0.38449 -3.46922,-0.8799 -0.93839,-0.40359 -1.84718,-0.93695 -2.73171,-1.57892 z m 53.53247,-29.85229 c -0.86391,2.63766 -1.73466,5.27285 -2.59147,7.91281 -1.71789,5.24639 -2.17378,6.64098 -3.00619,9.18486 l 1.51712,2.62772 11.60175,-6.69827 -7.52121,-13.02712 z m -3.6801,2.16488 c -0.26791,0.41197 -0.5377,0.82293 -0.8059,1.23473 -1.12431,3.29105 -2.22367,6.59094 -3.30644,9.89659 l 0.3932,0.68104 c 1.2742,-4.07743 2.51595,-8.02334 3.71914,-11.81236 z m -72.99009,42.92033 c -1.32203,4.45173 -2.76905,9.33054 -3.79288,12.84335 l 2.78826,1.87173 c 0.0683,-0.28104 0.13292,-0.56293 0.20189,-0.84382 1.00953,-4.1114 2.07005,-8.20946 3.14876,-12.3027 l -2.34603,-1.56856 z m -44.39221,25.89504 c -1.51375,6.03406 -2.999505,12.07541 -4.445468,18.12597 2.502648,-2.1312 4.276438,-4.32476 5.283228,-6.58405 1.61119,-3.61546 1.31567,-7.46449 -0.83776,-11.54192 z M 351.13388,837.15994 c -0.1803,0.83258 -0.45193,2.09397 -0.60619,2.80896 -0.0793,0.35962 -0.15533,0.71996 -0.23451,1.07961 l 1.01779,1.76286 c 0.56472,-0.80224 1.13784,-1.59866 1.69756,-2.40443 l -1.87465,-3.247 z m -105.0217,61.26714 c -0.91418,3.83065 -1.80864,7.66752 -2.67408,11.51034 l 1.73036,0.45346 c 1.83444,-3.57625 3.62411,-7.17651 5.37322,-10.79857 l -4.4295,-1.16523 z m -28.88379,16.69013 c -0.94538,1.4468 -1.89089,2.89378 -2.83872,4.33898 l 0.84294,1.46002 c 0.66328,-1.93363 1.32717,-3.86716 1.99578,-5.799 z m -97.66206,57.59059 c -0.93415,2.81943 -1.86571,5.641 -2.77717,8.46803 l 0.53238,0.92212 c 0.73261,-3.12017 1.47983,-6.24718 2.24479,-9.39015 z M 356.06256,837.46041 c -0.18422,0.27368 -0.37096,0.54573 -0.55571,0.81906 l 7.65431,13.25764 c 0.12142,-0.28017 0.30428,-0.69404 0.44349,-1.01343 l -7.54209,-13.06327 z m -80.60607,47.04018 c -0.60125,1.76546 -1.20225,3.53124 -1.80618,5.29577 -1.00117,3.06098 -2.0099,6.12025 -3.01507,9.17993 l 6.81943,-3.93719 c 0.83402,-4.50107 1.87962,-8.96141 2.97098,-13.40746 l -4.96916,2.86895 z m 7.00474,-4.04419 c -0.83021,3.62698 -1.60468,7.26769 -2.22453,10.93538 -0.12526,0.74119 -0.22818,1.48533 -0.32758,2.23024 l 1.48562,-0.85772 c 3.00758,-7.23722 5.54822,-13.35802 6.3777,-15.37433 l -5.31121,3.06643 z m 6.32824,-3.65361 c -2.36069,5.75596 -4.3631,10.68763 -6.22249,15.28471 l 16.84213,-9.7238 -5.06286,-8.76913 -5.55678,3.20822 z m -111.04231,64.267 c -0.75485,3.3553 -1.49831,6.71256 -2.22319,10.07478 -0.0789,0.36624 -0.11688,0.55255 -0.19215,0.90247 1.04717,-0.0819 2.10256,-0.23896 3.16652,-0.4621 1.13723,-3.85258 2.2872,-7.7017 3.45058,-11.54682 -1.40682,0.6282 -2.80755,0.96533 -4.20176,1.03167 z m 137.99119,-79.41612 c -1.44708,4.58764 -2.88204,9.17865 -4.31162,13.77165 l 8.30956,-4.79753 c 0.16011,-0.40584 0.32029,-0.81163 0.48034,-1.21752 l -4.47828,-7.7566 z m -164.32175,95.1143 c -1.09244,3.62974 -2.19466,7.25664 -3.29469,10.88426 -0.14835,0.66833 -0.30307,1.3353 -0.44793,2.00439 l 0.24934,0.16743 6.19867,-3.57879 c 0.43861,-2.2596 0.88682,-4.51768 1.34015,-6.77452 l -4.04554,-2.70277 z m -52.27229,30.51089 c -1.231673,4.17055 -2.430244,8.35368 -3.577307,12.55212 0.160891,-0.11304 0.332924,-0.22537 0.489438,-0.33877 1.020354,-4.07328 2.052479,-8.14381 3.087869,-12.21335 z m 152.13714,-87.49088 c -1.79194,3.60737 -3.61939,7.19673 -5.48342,10.76777 l 3.28659,0.86281 6.67175,-3.85194 c 0.45575,-2.0094 0.94276,-4.17163 1.41186,-6.2293 l -5.88678,-1.54934 z M 353.4922,841.24467 c -0.55735,0.81188 -1.12209,1.6187 -1.68451,2.42704 l 8.46158,14.65588 c 0.43145,-1.02977 0.86762,-2.05786 1.30435,-3.08548 L 353.4922,841.24467 Z M 127.16608,972.35609 c -1.37153,3.39211 -2.74082,6.78488 -4.09758,10.1826 -0.29414,0.76265 -0.52718,1.36745 -0.81066,2.10335 l 4.10129,-2.36789 c 0.73242,-2.3391 1.07806,-3.4231 2.29884,-7.33404 l -1.49189,-2.58402 z m -62.320779,40.15351 c -0.181702,1.1981 -0.411643,2.7413 -0.638884,4.2382 l 0.688095,1.1917 c 0.302708,-1.2566 0.605708,-2.513 0.909429,-3.7695 l -0.95864,-1.6604 z M 129.42001,976.26 c -0.71109,2.28983 -1.18641,3.81568 -1.6084,5.17556 l 3.44738,-1.99035 -1.83898,-3.18521 z m 27.47954,-15.82714 c -0.29849,1.57216 -0.59444,3.1451 -0.88362,4.71892 l 2.79196,-1.61193 c 0.13589,-0.47036 0.30827,-1.06035 0.44569,-1.53502 l -2.35403,-1.57197 z M 346.3931,851.28785 c -1.3952,1.91508 -2.80367,3.82188 -4.23423,5.71121 -0.31086,0.41054 -0.6272,0.81636 -0.93974,1.22561 l 4.22484,-2.43922 c 0.31665,-1.49902 0.63141,-2.99877 0.94913,-4.4976 z m 1.88906,-0.98015 c -0.31576,1.46319 -0.63973,2.92467 -0.95178,4.38864 l 2.61417,-1.50929 -1.66239,-2.87935 z M 259.499,901.95039 c -0.47773,1.42845 -0.96029,2.85522 -1.43583,4.2844 l 3.48202,-2.01036 c 0.16045,-0.53611 0.32575,-1.07085 0.4866,-1.60685 l -2.53279,-0.66719 z m 3.89501,1.02583 c -0.0208,0.0722 -0.0411,0.14438 -0.0618,0.21651 l 0.27724,-0.16007 -0.2154,-0.0565 z M 68.021329,1018.0106 c -0.317662,1.2365 -0.640043,2.4707 -0.94335,3.7109 l 1.09521,1.8969 c 0.384259,-1.1303 0.806041,-2.3551 1.146043,-3.3597 l -1.297903,-2.2481 z m -4.564496,3.897 c -0.06731,0.4879 -0.130637,0.9655 -0.193826,1.4459 l 0.230526,0.3992 c 0.100519,-0.4187 0.202853,-0.8371 0.303432,-1.256 l -0.340132,-0.5891 z M 364.25273,851.6462 c -0.14587,0.34203 -0.2905,0.68463 -0.43566,1.02698 l 6.25984,10.84236 c 0.11526,-0.39492 0.22932,-0.79019 0.34432,-1.18518 l -6.1685,-10.68416 z M 70.184789,1021.7579 c -0.37069,1.1378 -0.743074,2.2752 -1.115597,3.4124 l 6.269412,10.8589 10.295429,-5.944 c 0.262518,-1.1821 0.523747,-2.3643 0.794327,-3.5444 l -10.111607,5.838 -6.131964,-10.6209 z m -4.193921,4.5388 c -0.09181,0.393 -0.189013,0.785 -0.28004,1.1782 -0.0066,0.029 -0.01249,0.057 -0.01904,0.086 l 0.71419,1.237 c 0.140872,-0.4074 0.242583,-0.716 0.381723,-1.1204 l -0.796833,-1.3801 z M 362.24259,856.40078 c -0.43222,1.0398 -0.85421,2.08403 -1.28088,3.12616 l 3.68579,6.38397 -8.12425,4.69054 c -0.52036,1.32669 -1.03833,2.65418 -1.55371,3.98281 l 13.32846,-7.69519 -6.05541,-10.48829 z M 67.713283,1029.28 c -0.125016,0.3755 -0.253397,0.7497 -0.379113,1.1249 l 6.93228,12.0071 9.969977,-5.7562 c 0.07726,-0.3896 0.161166,-0.7779 0.240166,-1.1673 l -9.884094,5.7066 -6.879216,-11.9151 z m 25.144258,-6.451 c -0.0045,0.024 -0.0083,0.048 -0.01284,0.071 -0.04674,0.2424 0.0057,0.5724 -0.196432,0.7142 -0.727665,0.5101 -1.672431,1.6174 -2.492072,2.1279 -0.212578,0.3836 -0.421761,0.7687 -0.629092,1.1547 -0.05373,0.1977 -0.101831,0.3975 -0.16158,0.5935 -0.04726,0.1551 -0.182434,0.3962 -0.321778,0.6257 l 14.857778,-8.5781 c 0.27063,-1.1997 0.55205,-2.3974 0.86665,-3.5862 l -11.91063,6.8767 z m -3.33044,4.0684 c 0.08797,-0.3237 0.172443,-0.6484 0.248576,-0.9753 -0.202114,0.075 -0.395327,0.116 -0.566209,0.06 0,0 -0.0024,-6e-4 -0.0024,-6e-4 -0.162642,0.7734 -0.326585,1.5464 -0.484281,2.3207 l 0.129578,-0.075 c 0.213739,-0.4477 0.438875,-0.8907 0.674711,-1.3296 z M 107.1277,1014.59 c -0.23394,1.1578 -0.45609,2.3183 -0.67982,3.4783 l 1.36057,-0.7855 c 0.59284,-1.3636 1.17847,-2.7292 1.75562,-4.0994 l -2.43637,1.4066 z m 6.04648,-3.4909 c -0.17811,1.1315 -0.35802,2.2632 -0.53518,3.3948 l 4.17061,-2.408 c 0.20795,-0.6382 0.82912,-2.5391 0.88693,-2.7159 0.1986,-0.6145 0.16662,-0.5158 0.35037,-1.0841 l -4.87273,2.8132 z m 6.45781,-3.7284 c -0.42812,1.2643 -0.84315,2.5332 -1.24635,3.8053 l 13.1145,-7.5717 c 0.30898,-1.2761 0.61359,-2.4718 0.90583,-3.60871 l -12.77398,7.37511 z m 14.8412,-8.56858 c -0.25379,1.12791 -0.50926,2.27628 -0.7657,3.52788 l 1.94216,-1.1213 c 0.46123,-1.29069 0.91898,-2.5826 1.3699,-3.87673 l -2.54636,1.47015 z m 4.65878,-2.68972 c -0.42989,1.28175 -0.86822,2.56109 -1.30662,3.84008 l 11.60176,-6.69825 c 0.17234,-1.1647 0.34765,-2.26776 0.52312,-3.38779 l -10.81826,6.24596 z m 14.64684,-8.45639 c -0.22925,0.94709 -0.4705,1.89074 -0.68611,2.84107 -0.055,0.24256 -0.10103,0.48735 -0.15493,0.73026 l 1.65438,-0.95519 c 0.35687,-1.23123 0.70752,-2.46474 1.05952,-3.69743 l -1.87286,1.08129 z m 4.0561,-2.34179 c -0.36812,1.36677 -0.48606,1.82146 -0.9902,3.65746 l 10.38431,-5.99538 c 0.24284,-1.17067 0.49146,-2.34011 0.73558,-3.51046 l -10.12969,5.84838 z m 12.25717,-7.07668 c -0.1196,0.62932 -0.15425,0.80495 -0.28532,1.49266 -0.0518,0.62236 -0.13596,1.25393 -0.22273,1.88643 l 0.68556,-0.39581 c 0.36526,-1.39406 0.65859,-2.49688 0.96158,-3.64094 l -1.13909,0.65766 z m 4.01692,-2.31917 c -0.30727,1.19902 -0.60128,2.40156 -0.89679,3.60353 l 1.59262,-0.91949 c 0.60333,-1.37641 1.20455,-2.7536 1.80835,-4.12983 l -2.50418,1.44579 z m 4.06965,-2.34961 c -0.57798,1.35948 -1.15007,2.72139 -1.72548,4.08197 l 22.01321,-12.70933 c 0.15502,-1.12444 0.31596,-2.24989 0.4975,-3.373 l -20.78523,12.00036 z m 23.29091,-13.44702 c -0.13189,1.1082 -0.24182,2.20175 -0.33176,3.27732 l 1.17675,-0.6794 c 0.33109,-1.21201 0.67631,-2.44261 1.02485,-3.67747 l -1.86984,1.07955 z m 6.51958,-3.76408 c -0.23491,0.70065 -0.46369,1.4037 -0.70234,2.10307 -0.21064,0.61733 -0.39181,1.14395 -0.5892,1.72837 l 14.43741,-8.33544 c 1.06807,-1.63264 2.12798,-3.27113 3.17344,-4.91795 l -16.31931,9.42195 z m 17.37552,-10.03175 c -1.02289,1.63202 -2.05657,3.25598 -3.09962,4.87533 l 12.78454,-7.38116 c 0.21891,-1.1562 0.4375,-2.31263 0.66174,-3.46782 l -10.34666,5.97365 z m 12.06432,-6.96535 c -0.20714,1.14409 -0.40405,2.28951 -0.60449,3.43477 l 9.80726,-5.66222 c 0.12625,-0.39737 0.42246,-1.3273 0.52396,-1.6465 0.22666,-0.71467 0.46261,-1.42639 0.69074,-2.14057 l -10.41747,6.01452 z m 12.18033,-7.03232 c -0.38618,1.25034 -0.76944,2.50158 -1.15443,3.75229 l 1.4811,-0.85512 c 0.231,-1.1603 0.45933,-2.32169 0.68736,-3.48262 l -1.01403,0.58545 z m 3.15358,-1.82071 c -0.11033,0.62002 -0.21789,1.24055 -0.33032,1.86016 -0.0444,0.30662 -0.15344,0.94294 -0.25911,1.56591 l 0.72625,-0.41929 c 0.19503,-0.5854 0.3933,-1.17017 0.56856,-1.76065 0.19607,-0.66061 0.38153,-1.32425 0.57532,-1.98555 l -1.2807,0.73942 z m 3.53777,-2.04253 c -0.32259,1.20569 -0.62733,2.41717 -0.93746,3.62701 l 4.15403,-2.39833 c 0.3961,-1.26202 0.80251,-2.52074 1.20415,-3.78099 l -4.42072,2.55231 z m 6.05401,-3.49529 c -0.3748,1.23834 -0.74932,2.47992 -1.11677,3.73053 l 6.62656,-3.82584 c 0.58582,-1.34628 1.17428,-2.71913 1.77069,-4.10807 l -7.28048,4.20338 z m 8.80528,-5.08373 c -0.52968,1.26369 -1.12654,2.67024 -1.72398,4.08111 l 9.57974,-5.53087 c -0.0556,-0.0265 -0.11503,-0.0412 -0.16951,-0.0709 -0.80677,-0.44092 -1.39424,-1.09128 -1.83264,-1.85895 l -5.85361,3.37959 z m 11.05481,-6.3825 c 3.14255,1.05117 7.72086,-2.36374 9.30844,-3.50588 2.4859,-1.78843 4.90949,-3.87575 7.27002,-6.0657 l -16.57846,9.57158 z m 22.11115,-12.76588 c -0.25838,0.26522 -0.50606,0.51683 -0.7667,0.78419 -0.32053,1.11414 -0.616,2.19131 -0.9166,3.27343 l 4.91191,-2.83589 c 0.50976,-1.30817 1.01007,-2.59328 1.54769,-3.97933 l -4.7763,2.7576 z m 6.49999,-3.75277 c -0.49877,1.31691 -0.99852,2.63398 -1.49797,3.95063 l 30.43728,-17.57298 c 0.23004,-1.16069 0.45461,-2.32248 0.68736,-3.48261 l -29.62667,17.10496 z m 31.61855,-18.25498 c -0.2219,1.15547 -0.44272,2.31064 -0.66023,3.46695 l 11.4993,-6.63912 c 0.52726,-1.33415 1.0534,-2.6688 1.58536,-4.00108 l -12.42443,7.17325 z m -40.8907,24.81967 c -1.48292,1.50643 -2.97989,3.01385 -4.51916,4.4835 l 3.84666,-2.22087 c 0.21719,-0.72806 0.43962,-1.49155 0.6725,-2.26263 z m 70.02794,-39.2092 c -0.11629,0.3913 -0.23472,0.78191 -0.35128,1.17314 l 1.91292,3.31328 -3.50915,2.02601 c -0.12465,0.41405 -0.24634,0.82896 -0.37125,1.24293 l 5.09724,-2.94289 -2.77848,-4.81247 z M 110.32524,1015.2291 c -0.11607,0.2719 -0.24141,0.5399 -0.36218,0.8097 l 0.24259,-0.14 c 0.0396,-0.2234 0.0799,-0.4465 0.11959,-0.6697 z m -22.646865,18.411 c -0.05461,0.2907 -0.115983,0.5805 -0.169838,0.8714 -0.01733,0.094 -0.0294,0.1881 -0.04622,0.2819 l 14.919556,-8.6138 c 0.0495,-0.3906 0.14958,-0.7849 0.26126,-1.1795 l -14.964758,8.64 z m 19.041945,-10.9939 c -0.27179,0.5086 -0.55218,1.0125 -0.83833,1.5125 l 3.19575,-1.8451 c 0.0459,-0.2911 0.0965,-0.5815 0.14092,-0.8728 0.016,-0.088 0.0305,-0.176 0.0465,-0.264 l -2.54486,1.4694 z m 5.17409,-2.9874 c -0.0468,0.3697 -0.0923,0.7394 -0.13922,1.1091 l 2.73319,-1.5781 c 0.19453,-0.5937 0.22721,-0.6979 0.41344,-1.2673 l -3.00741,1.7363 z m 4.72507,-2.728 c -0.12477,0.4158 -0.25296,0.8305 -0.37727,1.2465 l 13.70513,-7.9127 c 0.0633,-0.2735 0.12518,-0.5475 0.1869,-0.8211 0.032,-0.1419 0.0534,-0.2253 0.0849,-0.3644 l -13.59967,7.8517 z m 16.0737,-9.2801 c -0.0658,0.3784 -0.13075,0.7562 -0.18592,1.136 l 0.16423,-0.095 c 0.22999,-0.4704 0.44837,-0.9434 0.67109,-1.416 l -0.6494,0.3749 z m 3.10988,-1.7955 c -0.15523,0.4395 -0.31024,0.8786 -0.48576,1.3091 l 13.25463,-7.65258 c 0.046,-0.3711 0.0945,-0.74069 0.14222,-1.11072 l -12.91109,7.4542 z m 16.07069,-9.27843 c -0.0681,0.38205 -0.14004,0.76367 -0.204,1.14643 l 0.76692,-0.4428 c 0.14138,-0.38072 0.27591,-0.76332 0.39714,-1.14938 0.0136,-0.0437 0.0253,-0.0873 0.0389,-0.13095 l -0.99897,0.5767 z m 3.37958,-1.95118 c -0.11225,0.39026 -0.24259,0.86754 -0.34865,1.22991 l 11.06536,-6.38861 c 0.0738,-0.38244 0.14878,-0.77405 0.22359,-1.15768 l -10.9403,6.31638 z m 13.39927,-7.73607 c -0.073,0.36432 -0.14228,0.72709 -0.21503,1.09247 0.0926,-0.38042 0.19239,-0.75904 0.29339,-1.13771 l -0.0784,0.0453 z m 3.20781,-1.85203 c -0.0526,0.21644 -0.10466,0.43298 -0.15744,0.64939 0.10867,-0.24947 0.21893,-0.49826 0.3277,-0.74769 l -0.17026,0.0983 z m 1.93915,-1.11957 c -0.19586,0.46361 -0.3402,0.79901 -0.5852,1.36646 l 24.57011,-14.18556 c 0.007,-0.11502 0.008,-0.23067 0.0175,-0.34557 0.0201,-0.24403 0.0484,-0.48937 0.0705,-0.73382 l -24.0729,13.89849 z m 30.74164,-17.74869 c -0.18361,0.45358 -0.36945,0.90922 -0.56712,1.35601 l 10.79566,-6.23287 c 0.3952,-0.56962 0.7896,-1.13943 1.18186,-1.71094 l -11.4104,6.5878 z m 12.68961,-7.32635 c -0.37918,0.5633 -0.75938,1.12585 -1.14118,1.68745 l 17.76726,-10.25793 c 0.0689,-0.38199 0.13455,-0.7645 0.204,-1.14637 l -16.83008,9.71685 z m 18.69992,-10.79641 c -0.0626,0.37855 -0.12409,0.75726 -0.18592,1.13594 l 8.64406,-4.99065 c 0.15076,-0.47432 0.25558,-0.80535 0.39987,-1.25946 l -8.85801,5.11417 z m 10.75347,-6.20851 c -0.1281,0.41697 -0.25669,0.83378 -0.38481,1.25076 l 3.45641,-1.99557 c 0.17565,-0.43488 0.34725,-0.86936 0.46768,-1.2986 l -3.53928,2.04341 z m 6.93242,-4.00244 c -0.16095,0.4389 -0.32745,0.87595 -0.49329,1.31339 l 4.23238,-2.44357 c 0.12581,-0.41508 0.24917,-0.83072 0.37578,-1.24554 l -4.11487,2.37572 z m 6.00881,-3.46919 c -0.11453,0.41125 -0.23156,0.81324 -0.34564,1.22814 l 5.16353,-2.98117 c 0.0401,-0.0885 0.036,-0.077 0.0765,-0.16671 0.17035,-0.37679 0.36396,-0.8299 0.53732,-1.21627 l -5.43173,3.13601 z m 7.1042,-4.1016 c -0.20089,0.46264 -0.39992,0.92249 -0.59726,1.37341 l 32.76516,-18.91697 c 0.11087,-0.40179 0.2217,-0.82273 0.33358,-1.22119 l -32.50148,18.76475 z m 34.41351,-19.86866 c -0.10005,0.39661 -0.19886,0.79951 -0.29742,1.2003 l 3.80749,-2.19825 c 0.17414,-0.44365 0.34909,-0.88723 0.52343,-1.33079 l -4.0335,2.32874 z m 5.88978,-3.40046 c -0.16609,0.43909 -0.33311,0.87782 -0.49932,1.31687 l 31.94702,-18.44462 c 0.0102,-0.0531 0.0362,-0.1925 0.0461,-0.24363 0.0591,-0.30549 0.12117,-0.61034 0.18043,-0.91579 l -31.6743,18.28717 z m 33.77466,-19.49982 c -0.0696,0.38293 -0.13951,0.76595 -0.20852,1.14899 l 9.74999,-5.62917 c 0.17298,-0.44369 0.34867,-0.88634 0.52193,-1.32992 l -10.0634,5.8101 z m 11.82476,-6.82702 c -0.16845,0.43967 -0.33569,0.87972 -0.50384,1.31948 l 15.10487,-8.72081 c 0.12015,-0.41232 0.24129,-0.82429 0.36071,-1.23684 l -14.96174,8.63817 z"
       id="rect4138"
       inkscape:connector-curvature="0" />
  </g>
</svg>
