<?xml version="1.0" encoding="UTF-8" standalone="no"?>
<svg
   xmlns:dc="http://purl.org/dc/elements/1.1/"
   xmlns:cc="http://creativecommons.org/ns#"
   xmlns:rdf="http://www.w3.org/1999/02/22-rdf-syntax-ns#"
   xmlns:svg="http://www.w3.org/2000/svg"
   xmlns="http://www.w3.org/2000/svg"
   xml:space="preserve"
   enable-background="new 0 0 792 612"
   viewBox="0 0 312.63257 182.48695"
   height="182.48695"
   width="312.63257"
   y="0px"
   x="0px"
   id="Layer_1"
   version="1.1"><metadata
     id="metadata35"><rdf:RDF><cc:Work
         rdf:about=""><dc:format>image/svg+xml</dc:format><dc:type
           rdf:resource="http://purl.org/dc/dcmitype/StillImage" /><dc:title></dc:title></cc:Work></rdf:RDF></metadata><defs
     id="defs33" /><g
     transform="translate(-120.60861,-220.26017)"
     id="g3"><path
       id="path5"
       d="m 333.32,347.348 c 33.869,-33.867 39.498,-83.146 12.572,-110.07 -26.922,-26.921 -76.199,-21.293 -110.066,12.572 -33.867,33.866 -24.07,98.568 -12.57,110.07 9.293,9.293 76.199,21.293 110.064,-12.572 z"
       style="fill:#f89939" /><path
       id="path7"
       d="m 194.35,298.411 c -19.648,-19.648 -48.242,-22.919 -63.867,-7.295 -15.621,15.622 -12.355,44.22 7.297,63.865 19.652,19.654 57.195,13.969 63.863,7.295 5.396,-5.387 12.361,-44.215 -7.293,-63.865 z"
       style="fill:#3499cd" /></g><g
     transform="translate(-120.60861,-220.26017)"
     id="g9"><g
       id="g11"><path
         id="path13"
         d="m 262.143,339.047 c -3.471,3.195 -6.516,5.553 -9.133,7.068 -2.617,1.52 -5.113,2.279 -7.488,2.279 -2.732,0 -4.936,-1.059 -6.607,-3.178 -1.674,-2.121 -2.508,-4.965 -2.508,-8.543 0,-5.361 1.162,-11.797 3.486,-19.301 2.32,-7.51 5.145,-14.43 8.463,-20.761 l 9.729,-3.602 c 0.305,-0.102 0.537,-0.154 0.691,-0.154 0.738,0 1.348,0.544 1.816,1.627 0.473,1.088 0.711,2.55 0.711,4.388 0,5.209 -1.199,10.252 -3.602,15.129 -2.402,4.879 -6.154,10.086 -11.26,15.627 -0.205,2.656 -0.307,4.48 -0.307,5.477 0,2.223 0.408,3.982 1.225,5.285 0.818,1.305 1.902,1.953 3.256,1.953 1.381,0 2.848,-0.494 4.406,-1.49 1.555,-0.998 3.93,-3.064 7.121,-6.207 l 0,4.403 z m -14.668,-14.973 c 3.242,-3.605 5.875,-7.648 7.891,-12.121 2.016,-4.475 3.023,-8.324 3.023,-11.549 0,-0.94 -0.139,-1.704 -0.418,-2.278 -0.281,-0.575 -0.641,-0.864 -1.074,-0.864 -0.941,0 -2.316,2.352 -4.117,7.057 -1.801,4.704 -3.569,11.29 -5.305,19.755 z"
         style="fill:#010101" /><path
         id="path15"
         d="m 290.795,339.047 c -3.242,3.195 -6.152,5.553 -8.732,7.068 -2.58,1.52 -5.424,2.279 -8.541,2.279 -3.473,0 -6.275,-1.111 -8.41,-3.33 -2.131,-2.225 -3.195,-5.146 -3.195,-8.773 0,-5.412 1.875,-10.309 5.633,-14.688 3.75,-4.381 7.914,-6.57 12.484,-6.57 2.375,0 4.275,0.615 5.707,1.84 1.43,1.227 2.145,2.834 2.145,4.826 0,5.287 -5.617,9.574 -16.852,12.869 1.02,4.977 3.688,7.469 8.004,7.469 1.686,0 3.293,-0.453 4.824,-1.357 1.535,-0.908 3.844,-2.922 6.934,-6.035 l 0,4.402 z m -20.07,-7.084 c 6.535,-1.84 9.805,-5.234 9.805,-10.188 0,-2.451 -0.895,-3.676 -2.68,-3.676 -1.686,0 -3.293,1.281 -4.824,3.85 -1.536,2.565 -2.301,5.901 -2.301,10.014 z"
         style="fill:#010101" /><path
         id="path17"
         d="m 331.701,339.047 c -4.086,3.881 -7.01,6.412 -8.77,7.588 -1.762,1.174 -3.447,1.76 -5.057,1.76 -4.035,0 -5.936,-3.561 -5.707,-10.686 -2.553,3.65 -4.91,6.344 -7.068,8.084 -2.156,1.736 -4.383,2.602 -6.684,2.602 -2.244,0 -4.152,-1.051 -5.725,-3.158 -1.573,-2.107 -2.354,-4.691 -2.354,-7.758 0,-3.828 1.051,-7.48 3.156,-10.955 2.109,-3.473 4.809,-6.279 8.102,-8.424 3.293,-2.145 6.207,-3.219 8.732,-3.219 3.193,0 5.428,1.469 6.705,4.404 l 7.828,-4.326 2.148,0 -3.381,11.221 c -1.736,5.645 -2.607,9.514 -2.607,11.607 0,2.195 0.777,3.293 2.336,3.293 0.992,0 2.09,-0.529 3.291,-1.59 1.201,-1.061 2.883,-2.676 5.053,-4.846 l 0,4.403 z m -28.037,2.109 c 2.553,0 4.959,-2.176 7.223,-6.529 2.26,-4.355 3.389,-8.373 3.389,-12.049 0,-1.428 -0.322,-2.547 -0.957,-3.35 -0.641,-0.807 -1.496,-1.207 -2.566,-1.207 -2.555,0 -4.977,2.17 -7.258,6.512 -2.285,4.342 -3.43,8.338 -3.43,11.986 0,1.381 0.34,2.498 1.016,3.354 0.676,0.856 1.534,1.283 2.583,1.283 z"
         style="fill:#010101" /><path
         id="path19"
         d="m 360.314,339.047 c -6.41,6.281 -11.352,9.424 -14.824,9.424 -1.559,0 -2.875,-0.658 -3.945,-1.969 -1.07,-1.316 -1.609,-2.945 -1.609,-4.887 0,-3.6 1.93,-8.424 5.785,-14.477 -1.891,0.971 -3.957,1.645 -6.205,2.029 -1.66,3.064 -4.266,6.359 -7.814,9.879 l -0.879,0 0,-3.443 c 1.99,-2.068 3.791,-4.291 5.4,-6.666 -2.199,-0.971 -3.295,-2.414 -3.295,-4.326 0,-1.969 0.668,-4.068 2.012,-6.305 1.34,-2.232 3.184,-3.348 5.535,-3.348 1.992,0 2.986,1.018 2.986,3.062 0,1.609 -0.574,3.906 -1.725,6.895 4.238,-0.461 7.941,-3.701 11.109,-9.729 l 3.484,-0.154 -3.562,9.805 c -1.48,4.137 -2.438,6.955 -2.871,8.447 -0.433,1.492 -0.652,2.816 -0.652,3.963 0,1.074 0.25,1.932 0.746,2.566 0.498,0.643 1.17,0.959 2.012,0.959 0.918,0 1.801,-0.314 2.643,-0.936 0.842,-0.631 2.732,-2.359 5.67,-5.193 l 0,4.404 z"
         style="fill:#010101" /><path
         id="path21"
         d="m 397.928,339.047 c -5.898,6.234 -10.957,9.348 -15.168,9.348 -1.711,0 -3.09,-0.6 -4.137,-1.801 -1.049,-1.199 -1.572,-2.807 -1.572,-4.824 0,-2.732 1.125,-6.908 3.373,-12.523 1.199,-3.014 1.801,-4.932 1.801,-5.746 0,-0.818 -0.322,-1.227 -0.957,-1.227 -0.357,0 -0.832,0.18 -1.418,0.535 -0.539,0.357 -1.164,0.859 -1.879,1.496 -0.637,0.586 -1.354,1.301 -2.145,2.141 -0.691,0.721 -1.432,1.537 -2.219,2.453 l -2.148,2.492 c -0.943,1.148 -1.531,2.359 -1.76,3.637 -0.385,2.17 -0.639,4.164 -0.768,5.979 -0.078,1.35 -0.115,3.174 -0.115,5.477 l -8.465,1.988 c -0.279,-3.447 -0.422,-6.014 -0.422,-7.697 0,-4.111 0.479,-8.006 1.438,-11.682 0.957,-3.68 2.494,-7.814 4.615,-12.412 l 9.344,-1.799 c -1.965,5.287 -3.254,9.447 -3.867,12.484 4.188,-4.672 7.508,-7.906 9.969,-9.709 2.457,-1.801 4.645,-2.697 6.557,-2.697 1.299,0 2.385,0.49 3.25,1.471 0.869,0.982 1.301,2.215 1.301,3.689 0,2.449 -1.098,6.484 -3.291,12.104 -1.508,3.854 -2.262,6.355 -2.262,7.51 0,1.537 0.627,2.305 1.881,2.305 1.867,0 4.891,-2.465 9.064,-7.393 l 0,4.401 z"
         style="fill:#010101" /></g></g><text
     y="81.945923"
     x="153.33279"
     style="font-size:23.0795002px;font-family:Helvetica;fill:#ffffff"
     id="text25"
     font-size="23.0795">scikit</text>
<text
     style="font-size:23.0795002px;font-family:Verdana;fill:#010101"
     y="177.72005"
     x="-2.0848181"
     id="text29"
     font-size="23.0795">machine learning in Python</text>
</svg>