<svg height="675" viewBox="0 0 1251 675" width="1251" xmlns="http://www.w3.org/2000/svg"><path d="m959.940063 573.065979c152.410401-152.40155 177.740967-374.157013 56.573914-495.315063-121.148987-121.144471-342.895386-95.818482-495.296936 56.573974-152.40155 152.397125-108.314972 443.556091-56.564972 495.315003 41.818482 41.818542 342.895538 95.818542 495.287994-56.573914z" fill="#f89939"/><path d="m334.575043 352.849548c-88.415985-88.416046-217.089035-103.135528-287.401535-32.827575-70.294476 70.299041-55.597481 198.98999 32.836487 287.392578 88.434036 88.442993 257.377548 62.860473 287.383529 32.827453 24.281983-24.241455 55.624481-198.967468-32.818481-287.392456z" fill="#3499cd"/><g fill="#010101"><path d="m639.643494 535.711487c-15.619507 14.377502-29.322022 24.988525-41.09845 31.805969-11.77655 6.840088-23.008545 10.255493-33.696045 10.255493-12.293945 0-22.212036-4.765503-29.731445-14.300903-7.53302-9.544556-11.286011-22.342529-11.286011-38.443543 0-24.12445 5.228943-53.086486 15.686951-86.854461 10.440063-33.795044 23.152527-64.935089 38.083496-93.424561l43.780456-16.208954c1.37262-.459106 2.416565-.692962 3.109558-.692962 3.321045 0 6.065979 2.447876 8.172059 7.321411 2.128417 4.896057 3.199462 11.474945 3.199462 19.746002 0 23.440582-5.395507 46.134064-16.208923 68.080505-10.809082 21.955475-27.693054 45.386963-50.670044 70.321534-.922546 11.951904-1.381531 20.159912-1.381531 24.646484 0 10.003418 1.835999 17.918945 5.512513 23.782471 3.680969 5.872497 8.55896 8.788574 14.651977 8.788574 6.214478 0 12.81604-2.223145 19.827026-6.705139 6.997559-4.490906 17.685059-13.787964 32.044434-27.931458v19.813538zm-66.005982-67.378479c14.589051-16.222534 26.4375-34.416016 35.509461-54.544495 9.072082-20.137512 13.603576-37.458008 13.603576-51.97055 0-4.230011-.625549-7.667908-1.881042-10.250916-1.264527-2.587555-2.884461-3.888061-4.833008-3.888061-4.234436 0-10.421936 10.583953-18.526489 31.75653-8.104492 21.16803-16.060547 50.805024-23.872498 88.897492z"/><path d="m768.577576 535.711487c-14.589051 14.377502-27.684021 24.988525-39.294007 31.805969-11.610046 6.840088-24.40802 10.255493-38.43457 10.255493-15.628418 0-28.237427-4.999511-37.844971-14.984985-9.589416-10.012512-14.377441-23.156983-14.377441-39.478516 0-24.353943 8.4375-46.390472 25.348511-66.095947 16.875-19.714569 35.612976-29.565063 56.178039-29.565063 10.6875 0 19.237488 2.767608 25.681519 8.279998 6.434936 5.521576 9.652405 12.753083 9.652405 21.717072 0 23.791443-25.27649 43.083038-75.833924 57.910461 4.589966 22.396607 16.595947 33.610474 36.018006 33.610474 7.586853 0 14.818481-2.038513 21.707885-6.106506 6.907471-4.085938 17.298096-13.148926 31.203064-27.157471v19.809021zm-90.315064-31.878052c29.407532-8.279999 44.12262-23.552917 44.12262-45.845947 0-11.02948-4.027588-16.541992-12.06012-16.541992-7.586975 0-14.818481 5.764526-21.708008 17.325012-6.911926 11.542541-10.354492 26.554504-10.354492 45.062927z"/><path d="m952.654419 535.711487c-18.386963 17.464538-31.545044 28.853943-39.464905 34.146057-7.929138 5.282898-15.511597 7.919922-22.756531 7.919922-18.157531 0-26.712036-16.024536-25.681518-48.087036-11.488526 16.42511-22.095032 28.548095-31.805969 36.378051-9.702027 7.812012-19.723511 11.708985-30.078125 11.708985-10.097901 0-18.683899-4.729492-25.762391-14.210938-7.078613-9.481506-10.593017-21.109558-10.593017-34.91101 0-17.226014 4.729492-33.660035 14.201904-49.297577 9.49054-15.628449 21.640625-28.255463 36.459107-37.907929 14.818481-9.652588 27.931518-14.485473 39.293945-14.485473 14.368469 0 24.426086 6.610473 30.172485 19.817993l35.226013-19.467102h9.666016l-15.214538 50.494537c-7.811951 25.402435-11.731507 42.813019-11.731507 52.231476 0 9.877502 3.496582 14.818481 10.512024 14.818481 4.463989 0 9.404968-2.380432 14.80957-7.154968 5.404419-4.774536 12.97345-12.041992 22.738404-21.807007v19.813538zm-126.166443 9.490539c11.488403 0 22.31543-9.791992 32.503479-29.380615 10.170044-19.597412 15.250549-37.678406 15.250549-54.220398 0-6.426025-1.449096-11.461487-4.306518-15.075012-2.884583-3.631531-6.731995-5.431519-11.547058-5.431519-11.497437 0-22.396424 9.765076-32.66095 29.303956-10.282532 19.539062-15.434998 37.521057-15.434998 53.937133 0 6.214417 1.53003 11.240906 4.571961 15.092896 3.041992 3.852051 6.903015 5.773559 11.623535 5.773559z"/><path d="m1081.412964 535.711487c-28.844971 28.264526-51.083985 42.40802-66.708008 42.40802-7.015442 0-12.9375-2.96106-17.752563-8.860596-4.814881-5.921875-7.240357-13.25238-7.240357-21.991455 0-16.200012 8.684937-37.907898 26.032471-65.146454-8.509583 4.369538-17.806458 7.402436-27.922547 9.130463-7.470031 13.787964-19.19696 28.615539-35.162963 44.455505h-3.955506v-15.493469c8.954956-9.305969 17.059448-19.30957 24.299988-29.99707-9.895569-4.369416-14.827454-10.862885-14.827454-19.46698 0-8.860474 3.005982-18.30597 9.053955-28.372437 6.03003-10.044006 14.328003-15.065979 24.907532-15.065979 8.963928 0 13.436951 4.580872 13.436951 13.778931 0 7.240539-2.583008 17.577026-7.762512 31.027588 19.071045-2.074524 35.734558-16.654602 49.990539-43.780518l15.678101-.693115-16.029053 44.12262c-6.660034 18.616455-10.970947 31.297424-12.919556 38.011444-1.948608 6.714019-2.934082 12.672027-2.934082 17.833587 0 4.832886 1.125 8.693848 3.357056 11.546875 2.241089 2.893555 5.265015 4.315552 9.053955 4.315552 4.130982 0 8.104614-1.412964 11.893555-4.212036 3.789062-2.839539 12.293945-10.615479 25.515014-23.368408v19.817932z"/><path d="m1250.676025 535.711487c-26.541015 28.053039-49.306518 42.065979-68.255981 42.065979-7.699463 0-13.905029-2.700073-18.616455-8.104492-4.720581-5.395508-7.074097-12.631531-7.074097-21.708008 0-12.294007 5.0625-31.085938 15.178589-56.353424 5.395508-13.563019 8.104492-22.194031 8.104492-25.857025 0-3.681092-1.448974-5.521576-4.306518-5.521576-1.606568 0-3.744019.810089-6.380982 2.407501-2.425537 1.606506-5.238037 3.865539-8.455566 6.732025-2.866455 2.636993-6.093018 5.854462-9.652466 9.63446-3.109497 3.244538-6.44397 6.916596-9.985596 11.038514l-9.665893 11.214019c-4.243408 5.166047-6.889527 10.61554-7.920044 16.366456-1.732544 9.765075-2.875488 18.738037-3.456055 26.905517-.350952 6.075012-.517456 14.283081-.517456 24.646607l-38.092407 8.945861c-1.255493-15.511413-1.899048-27.062866-1.899048-34.636413 0-18.499451 2.155518-36.026917 6.470947-52.569031 4.306519-16.559998 11.223145-35.162994 20.767456-55.853943l42.048096-8.095581c-8.842407 23.791596-14.642944 42.511597-17.401489 56.17804 18.845947-21.023987 33.786011-35.577027 44.860473-43.69043 11.056519-8.104614 20.902466-12.136597 29.506592-12.136597 5.845337 0 10.7323 2.205109 14.625 6.619568 3.910401 4.418945 5.85437 9.967468 5.85437 16.600464 0 11.020508-4.940918 29.17804-14.80957 54.468018-6.785889 17.343017-10.178955 28.597534-10.178955 33.795044 0 6.916442 2.821655 10.372497 8.4646 10.372497 8.401489 0 22.009399-11.092529 40.787963-33.268555z"/></g><path d="m692.743469 295.258514h1013.589051v377.766022h-1013.589051z" fill="none"/><text fill="#fff" font-family="Helvetica" font-size="103.85775" x="688" y="370">scikit</text><path d="m1015.055969 620.905518h1464.444031v193.333557h-1464.444031z" fill="none"/></svg>
